G04 #@! TF.FileFunction,Copper,L2,Bot,Signal*
%FSLAX46Y46*%
G04 Gerber Fmt 4.6, Leading zero omitted, Abs format (unit mm)*
G04 Created by KiCad (PCBNEW (2015-07-22 BZR 5980)-product) date Montag, 16. Mai 2016 'u14' 16:14:33*
%MOMM*%
G01*
G04 APERTURE LIST*
%ADD10C,0.100000*%
%ADD11C,0.500000*%
%ADD12C,6.500000*%
%ADD13C,1.501140*%
%ADD14C,1.699260*%
%ADD15R,1.699260X1.699260*%
%ADD16O,3.500000X5.000000*%
%ADD17O,5.000000X3.500000*%
%ADD18O,4.000000X2.500000*%
%ADD19R,2.032000X1.727200*%
%ADD20O,2.032000X1.727200*%
%ADD21R,1.727200X2.032000*%
%ADD22O,1.727200X2.032000*%
%ADD23C,1.998980*%
%ADD24R,1.727200X1.727200*%
%ADD25O,1.727200X1.727200*%
%ADD26C,1.397000*%
%ADD27O,2.300000X1.600000*%
%ADD28O,2.500000X1.800000*%
%ADD29C,4.000000*%
%ADD30R,2.032000X2.032000*%
%ADD31O,2.032000X2.032000*%
%ADD32C,0.500000*%
%ADD33C,0.200000*%
G04 APERTURE END LIST*
D10*
D11*
X113030000Y-74930000D03*
X114300000Y-74930000D03*
X114300000Y-76200000D03*
X113030000Y-76200000D03*
D12*
X105000000Y-75000000D03*
X145000000Y-75000000D03*
X145000000Y-145000000D03*
D11*
X119380000Y-113030000D03*
X117475000Y-118110000D03*
X121920000Y-113030000D03*
X117475000Y-115570000D03*
X121285000Y-120650000D03*
X121920000Y-121285000D03*
X116205000Y-128270000D03*
X116205000Y-129540000D03*
X106680000Y-86360000D03*
X105410000Y-86360000D03*
X114300000Y-82550000D03*
X114300000Y-83820000D03*
X114935000Y-90170000D03*
X114935000Y-91440000D03*
X114935000Y-92710000D03*
X127000000Y-128270000D03*
X125730000Y-128270000D03*
X124460000Y-128270000D03*
X123190000Y-128270000D03*
X108585000Y-127000000D03*
X108585000Y-129540000D03*
X108585000Y-132080000D03*
X131445000Y-130175000D03*
X130810000Y-130810000D03*
X123190000Y-125730000D03*
X124460000Y-125730000D03*
X125730000Y-125730000D03*
X127000000Y-125730000D03*
X128270000Y-125730000D03*
D12*
X105000000Y-145000000D03*
D13*
X104140000Y-138430000D03*
X106680000Y-138430000D03*
D14*
X104140000Y-121920000D03*
D15*
X114300000Y-121920000D03*
D16*
X147580000Y-87500000D03*
D17*
X142500000Y-92580000D03*
X142500000Y-82420000D03*
D18*
X142500000Y-87500000D03*
D16*
X147580000Y-132500000D03*
D17*
X142500000Y-137580000D03*
X142500000Y-127420000D03*
D18*
X142500000Y-132500000D03*
D19*
X134620000Y-93980000D03*
D20*
X134620000Y-96520000D03*
X134620000Y-99060000D03*
D19*
X134620000Y-125730000D03*
D20*
X134620000Y-123190000D03*
X134620000Y-120650000D03*
D21*
X106680000Y-91440000D03*
D22*
X109220000Y-91440000D03*
X111760000Y-91440000D03*
D21*
X118110000Y-91440000D03*
D22*
X120650000Y-91440000D03*
X123190000Y-91440000D03*
D21*
X118110000Y-99060000D03*
D22*
X120650000Y-99060000D03*
X123190000Y-99060000D03*
D21*
X106680000Y-83820000D03*
D22*
X109220000Y-83820000D03*
X111760000Y-83820000D03*
D21*
X106680000Y-99060000D03*
D22*
X109220000Y-99060000D03*
X111760000Y-99060000D03*
D13*
X114300000Y-118110000D03*
X111760000Y-118110000D03*
D23*
X118745000Y-106680000D03*
X118745000Y-116840000D03*
D24*
X130810000Y-143510000D03*
D25*
X130810000Y-146050000D03*
X128270000Y-143510000D03*
X128270000Y-146050000D03*
X125730000Y-143510000D03*
X125730000Y-146050000D03*
X123190000Y-143510000D03*
X123190000Y-146050000D03*
X120650000Y-143510000D03*
X120650000Y-146050000D03*
X118110000Y-143510000D03*
X118110000Y-146050000D03*
X115570000Y-143510000D03*
X115570000Y-146050000D03*
X113030000Y-143510000D03*
X113030000Y-146050000D03*
D26*
X128905000Y-82550000D03*
X133985000Y-82550000D03*
X128905000Y-90170000D03*
X133985000Y-90170000D03*
D27*
X104140000Y-125730000D03*
X104140000Y-128270000D03*
X104140000Y-130810000D03*
X104140000Y-133350000D03*
X111760000Y-133350000D03*
X111760000Y-130810000D03*
X111760000Y-128270000D03*
X111760000Y-125730000D03*
D28*
X142500000Y-99960000D03*
X142500000Y-102500000D03*
X142500000Y-105040000D03*
D29*
X146310000Y-106310000D03*
X146310000Y-98690000D03*
D28*
X142500000Y-114960000D03*
X142500000Y-117500000D03*
X142500000Y-120040000D03*
D29*
X146310000Y-121310000D03*
X146310000Y-113690000D03*
D30*
X138430000Y-96520000D03*
D31*
X138430000Y-93980000D03*
D30*
X138430000Y-123190000D03*
D31*
X138430000Y-125730000D03*
D13*
X105410000Y-114300000D03*
X107950000Y-114300000D03*
D23*
X123190000Y-111125000D03*
X133350000Y-111125000D03*
X123190000Y-114300000D03*
X133350000Y-114300000D03*
D11*
X127635000Y-103505000D03*
X114935000Y-105410000D03*
X114935000Y-101600000D03*
X130810000Y-124460000D03*
X128270000Y-124460000D03*
X124460000Y-118110000D03*
X109220000Y-89535000D03*
X117475000Y-83185000D03*
X125095000Y-136525000D03*
X129540000Y-128270000D03*
X120650000Y-89535000D03*
X120650000Y-74295000D03*
X120650000Y-97155000D03*
X121285000Y-76835000D03*
X130175000Y-128905000D03*
X124460000Y-137160000D03*
X116329604Y-79375000D03*
X109220000Y-97155000D03*
X128150000Y-135255000D03*
X123070000Y-133985000D03*
X127515000Y-134620000D03*
X123705000Y-133350000D03*
X126880000Y-133985000D03*
X124340000Y-132715000D03*
X126245000Y-133350000D03*
X124975000Y-132080000D03*
D32*
X114935000Y-101600000D02*
X114935000Y-103481671D01*
X114935000Y-103481671D02*
X114935000Y-105410000D01*
X127635000Y-103505000D02*
X114958329Y-103505000D01*
X114958329Y-103505000D02*
X114935000Y-103481671D01*
D33*
X128270000Y-124460000D02*
X130810000Y-124460000D01*
X124460000Y-118110000D02*
X120015000Y-118110000D01*
X120015000Y-118110000D02*
X118745000Y-116840000D01*
X112395000Y-88265000D02*
X111125000Y-89535000D01*
X111125000Y-89535000D02*
X109220000Y-89535000D01*
X117475000Y-83185000D02*
X112395000Y-88265000D01*
X128905000Y-136525000D02*
X125095000Y-136525000D01*
X129540000Y-135890000D02*
X128905000Y-136525000D01*
X129540000Y-130810000D02*
X129540000Y-135890000D01*
X129540000Y-128270000D02*
X129540000Y-130810000D01*
X120650000Y-74295000D02*
X120650000Y-89535000D01*
X121920000Y-89535000D02*
X121920000Y-95885000D01*
X121920000Y-95885000D02*
X120650000Y-97155000D01*
X121285000Y-88900000D02*
X121920000Y-89535000D01*
X121285000Y-76835000D02*
X121285000Y-88900000D01*
X128941061Y-137123939D02*
X128650800Y-137123939D01*
X128650800Y-137123939D02*
X125058939Y-137123939D01*
X130175000Y-136525000D02*
X129576061Y-137123939D01*
X129576061Y-137123939D02*
X128650800Y-137123939D01*
X130175000Y-128905000D02*
X130175000Y-136525000D01*
X125058939Y-137123939D02*
X124496061Y-137123939D01*
X124496061Y-137123939D02*
X124460000Y-137160000D01*
X109220000Y-97155000D02*
X107950000Y-95885000D01*
X107950000Y-95885000D02*
X107950000Y-82550000D01*
X107950000Y-82550000D02*
X108585000Y-81915000D01*
X108585000Y-81915000D02*
X110490000Y-81915000D01*
X111125000Y-80023391D02*
X111788071Y-79360320D01*
X110490000Y-81915000D02*
X111125000Y-81280000D01*
X111788071Y-79360320D02*
X116314924Y-79360320D01*
X116314924Y-79360320D02*
X116329604Y-79375000D01*
X111125000Y-81280000D02*
X111125000Y-80023391D01*
X123070000Y-133985000D02*
X124340000Y-135255000D01*
X124340000Y-135255000D02*
X128150000Y-135255000D01*
X123705000Y-133350000D02*
X124975000Y-134620000D01*
X124975000Y-134620000D02*
X127515000Y-134620000D01*
X124340000Y-132715000D02*
X125610000Y-133985000D01*
X125610000Y-133985000D02*
X126880000Y-133985000D01*
X124975000Y-132080000D02*
X126245000Y-133350000D01*
G36*
X149700000Y-86489893D02*
X149508938Y-85788649D01*
X148994213Y-85123655D01*
X148264187Y-84706257D01*
X148063668Y-84655110D01*
X147730000Y-84705495D01*
X147730000Y-87350000D01*
X147750000Y-87350000D01*
X147750000Y-87650000D01*
X147730000Y-87650000D01*
X147730000Y-90294505D01*
X148063668Y-90344890D01*
X148264187Y-90293743D01*
X148994213Y-89876345D01*
X149508938Y-89211351D01*
X149700000Y-88510107D01*
X149700000Y-131489893D01*
X149508938Y-130788649D01*
X148994213Y-130123655D01*
X148264187Y-129706257D01*
X148063668Y-129655110D01*
X147730000Y-129705495D01*
X147730000Y-132350000D01*
X147750000Y-132350000D01*
X147750000Y-132650000D01*
X147730000Y-132650000D01*
X147730000Y-135294505D01*
X148063668Y-135344890D01*
X148264187Y-135293743D01*
X148994213Y-134876345D01*
X149508938Y-134211351D01*
X149700000Y-133510107D01*
X149700000Y-149700000D01*
X100300000Y-149700000D01*
X100300000Y-147937447D01*
X102628239Y-147937447D01*
X103028310Y-148394320D01*
X104477346Y-148890475D01*
X106005951Y-148794341D01*
X106971690Y-148394320D01*
X107371761Y-147937447D01*
X142628239Y-147937447D01*
X143028310Y-148394320D01*
X144477346Y-148890475D01*
X146005951Y-148794341D01*
X146971690Y-148394320D01*
X147371761Y-147937447D01*
X145000000Y-145565685D01*
X142628239Y-147937447D01*
X107371761Y-147937447D01*
X107371761Y-147937447D01*
X105000000Y-145565685D01*
X102628239Y-147937447D01*
X100300000Y-147937447D01*
X100300000Y-144477346D01*
X101109525Y-144477346D01*
X101205659Y-146005951D01*
X101605680Y-146971690D01*
X102062553Y-147371761D01*
X104434315Y-145000000D01*
X105565685Y-145000000D01*
X107937447Y-147371761D01*
X108394320Y-146971690D01*
X108591976Y-146394428D01*
X111814233Y-146394428D01*
X112038585Y-146833464D01*
X112413871Y-147153224D01*
X112685574Y-147265753D01*
X112880000Y-147203891D01*
X112880000Y-146200000D01*
X113180000Y-146200000D01*
X113180000Y-147203891D01*
X113374426Y-147265753D01*
X113646129Y-147153224D01*
X114021415Y-146833464D01*
X114245767Y-146394428D01*
X114354233Y-146394428D01*
X114578585Y-146833464D01*
X114953871Y-147153224D01*
X115225574Y-147265753D01*
X115420000Y-147203891D01*
X115420000Y-146200000D01*
X115720000Y-146200000D01*
X115720000Y-147203891D01*
X115914426Y-147265753D01*
X116186129Y-147153224D01*
X116561415Y-146833464D01*
X116785767Y-146394428D01*
X116894233Y-146394428D01*
X117118585Y-146833464D01*
X117493871Y-147153224D01*
X117765574Y-147265753D01*
X117960000Y-147203891D01*
X117960000Y-146200000D01*
X118260000Y-146200000D01*
X118260000Y-147203891D01*
X118454426Y-147265753D01*
X118726129Y-147153224D01*
X119101415Y-146833464D01*
X119325767Y-146394428D01*
X119434233Y-146394428D01*
X119658585Y-146833464D01*
X120033871Y-147153224D01*
X120305574Y-147265753D01*
X120500000Y-147203891D01*
X120500000Y-146200000D01*
X120800000Y-146200000D01*
X120800000Y-147203891D01*
X120994426Y-147265753D01*
X121266129Y-147153224D01*
X121641415Y-146833464D01*
X121865767Y-146394428D01*
X121974233Y-146394428D01*
X122198585Y-146833464D01*
X122573871Y-147153224D01*
X122845574Y-147265753D01*
X123040000Y-147203891D01*
X123040000Y-146200000D01*
X123340000Y-146200000D01*
X123340000Y-147203891D01*
X123534426Y-147265753D01*
X123806129Y-147153224D01*
X124181415Y-146833464D01*
X124405767Y-146394428D01*
X124514233Y-146394428D01*
X124738585Y-146833464D01*
X125113871Y-147153224D01*
X125385574Y-147265753D01*
X125580000Y-147203891D01*
X125580000Y-146200000D01*
X125880000Y-146200000D01*
X125880000Y-147203891D01*
X126074426Y-147265753D01*
X126346129Y-147153224D01*
X126721415Y-146833464D01*
X126945767Y-146394428D01*
X127054233Y-146394428D01*
X127278585Y-146833464D01*
X127653871Y-147153224D01*
X127925574Y-147265753D01*
X128120000Y-147203891D01*
X128120000Y-146200000D01*
X128420000Y-146200000D01*
X128420000Y-147203891D01*
X128614426Y-147265753D01*
X128886129Y-147153224D01*
X129261415Y-146833464D01*
X129485767Y-146394428D01*
X129594233Y-146394428D01*
X129818585Y-146833464D01*
X130193871Y-147153224D01*
X130465574Y-147265753D01*
X130660000Y-147203891D01*
X130660000Y-146200000D01*
X130960000Y-146200000D01*
X130960000Y-147203891D01*
X131154426Y-147265753D01*
X131426129Y-147153224D01*
X131801415Y-146833464D01*
X132025767Y-146394428D01*
X131964679Y-146200000D01*
X130960000Y-146200000D01*
X130660000Y-146200000D01*
X130660000Y-146200000D01*
X129655321Y-146200000D01*
X129594233Y-146394428D01*
X129485767Y-146394428D01*
X129485767Y-146394428D01*
X129424679Y-146200000D01*
X128420000Y-146200000D01*
X128120000Y-146200000D01*
X128120000Y-146200000D01*
X127115321Y-146200000D01*
X127054233Y-146394428D01*
X126945767Y-146394428D01*
X126945767Y-146394428D01*
X126884679Y-146200000D01*
X125880000Y-146200000D01*
X125580000Y-146200000D01*
X125580000Y-146200000D01*
X124575321Y-146200000D01*
X124514233Y-146394428D01*
X124405767Y-146394428D01*
X124405767Y-146394428D01*
X124344679Y-146200000D01*
X123340000Y-146200000D01*
X123040000Y-146200000D01*
X123040000Y-146200000D01*
X122035321Y-146200000D01*
X121974233Y-146394428D01*
X121865767Y-146394428D01*
X121865767Y-146394428D01*
X121804679Y-146200000D01*
X120800000Y-146200000D01*
X120500000Y-146200000D01*
X120500000Y-146200000D01*
X119495321Y-146200000D01*
X119434233Y-146394428D01*
X119325767Y-146394428D01*
X119325767Y-146394428D01*
X119264679Y-146200000D01*
X118260000Y-146200000D01*
X117960000Y-146200000D01*
X117960000Y-146200000D01*
X116955321Y-146200000D01*
X116894233Y-146394428D01*
X116785767Y-146394428D01*
X116785767Y-146394428D01*
X116724679Y-146200000D01*
X115720000Y-146200000D01*
X115420000Y-146200000D01*
X115420000Y-146200000D01*
X114415321Y-146200000D01*
X114354233Y-146394428D01*
X114245767Y-146394428D01*
X114245767Y-146394428D01*
X114184679Y-146200000D01*
X113180000Y-146200000D01*
X112880000Y-146200000D01*
X112880000Y-146200000D01*
X111875321Y-146200000D01*
X111814233Y-146394428D01*
X108591976Y-146394428D01*
X108827843Y-145705572D01*
X111814233Y-145705572D01*
X111875321Y-145900000D01*
X112880000Y-145900000D01*
X112880000Y-144896109D01*
X113180000Y-144896109D01*
X113180000Y-145900000D01*
X114184679Y-145900000D01*
X114245767Y-145705572D01*
X114354233Y-145705572D01*
X114415321Y-145900000D01*
X115420000Y-145900000D01*
X115420000Y-144896109D01*
X115720000Y-144896109D01*
X115720000Y-145900000D01*
X116724679Y-145900000D01*
X116785767Y-145705572D01*
X116894233Y-145705572D01*
X116955321Y-145900000D01*
X117960000Y-145900000D01*
X117960000Y-144896109D01*
X118260000Y-144896109D01*
X118260000Y-145900000D01*
X119264679Y-145900000D01*
X119325767Y-145705572D01*
X119434233Y-145705572D01*
X119495321Y-145900000D01*
X120500000Y-145900000D01*
X120500000Y-144896109D01*
X120800000Y-144896109D01*
X120800000Y-145900000D01*
X121804679Y-145900000D01*
X121865767Y-145705572D01*
X121974233Y-145705572D01*
X122035321Y-145900000D01*
X123040000Y-145900000D01*
X123040000Y-144896109D01*
X123340000Y-144896109D01*
X123340000Y-145900000D01*
X124344679Y-145900000D01*
X124405767Y-145705572D01*
X124514233Y-145705572D01*
X124575321Y-145900000D01*
X125580000Y-145900000D01*
X125580000Y-144896109D01*
X125880000Y-144896109D01*
X125880000Y-145900000D01*
X126884679Y-145900000D01*
X126945767Y-145705572D01*
X127054233Y-145705572D01*
X127115321Y-145900000D01*
X128120000Y-145900000D01*
X128120000Y-144896109D01*
X128420000Y-144896109D01*
X128420000Y-145900000D01*
X129424679Y-145900000D01*
X129485767Y-145705572D01*
X129594233Y-145705572D01*
X129655321Y-145900000D01*
X130660000Y-145900000D01*
X130660000Y-144896109D01*
X130960000Y-144896109D01*
X130960000Y-145900000D01*
X131964679Y-145900000D01*
X132025767Y-145705572D01*
X131801415Y-145266536D01*
X131426129Y-144946776D01*
X131154426Y-144834247D01*
X130960000Y-144896109D01*
X130660000Y-144896109D01*
X130660000Y-144896109D01*
X130465574Y-144834247D01*
X130193871Y-144946776D01*
X129818585Y-145266536D01*
X129594233Y-145705572D01*
X129485767Y-145705572D01*
X129485767Y-145705572D01*
X129261415Y-145266536D01*
X128886129Y-144946776D01*
X128614426Y-144834247D01*
X128420000Y-144896109D01*
X128120000Y-144896109D01*
X128120000Y-144896109D01*
X127925574Y-144834247D01*
X127653871Y-144946776D01*
X127278585Y-145266536D01*
X127054233Y-145705572D01*
X126945767Y-145705572D01*
X126945767Y-145705572D01*
X126721415Y-145266536D01*
X126346129Y-144946776D01*
X126074426Y-144834247D01*
X125880000Y-144896109D01*
X125580000Y-144896109D01*
X125580000Y-144896109D01*
X125385574Y-144834247D01*
X125113871Y-144946776D01*
X124738585Y-145266536D01*
X124514233Y-145705572D01*
X124405767Y-145705572D01*
X124405767Y-145705572D01*
X124181415Y-145266536D01*
X123806129Y-144946776D01*
X123534426Y-144834247D01*
X123340000Y-144896109D01*
X123040000Y-144896109D01*
X123040000Y-144896109D01*
X122845574Y-144834247D01*
X122573871Y-144946776D01*
X122198585Y-145266536D01*
X121974233Y-145705572D01*
X121865767Y-145705572D01*
X121865767Y-145705572D01*
X121641415Y-145266536D01*
X121266129Y-144946776D01*
X120994426Y-144834247D01*
X120800000Y-144896109D01*
X120500000Y-144896109D01*
X120500000Y-144896109D01*
X120305574Y-144834247D01*
X120033871Y-144946776D01*
X119658585Y-145266536D01*
X119434233Y-145705572D01*
X119325767Y-145705572D01*
X119325767Y-145705572D01*
X119101415Y-145266536D01*
X118726129Y-144946776D01*
X118454426Y-144834247D01*
X118260000Y-144896109D01*
X117960000Y-144896109D01*
X117960000Y-144896109D01*
X117765574Y-144834247D01*
X117493871Y-144946776D01*
X117118585Y-145266536D01*
X116894233Y-145705572D01*
X116785767Y-145705572D01*
X116785767Y-145705572D01*
X116561415Y-145266536D01*
X116186129Y-144946776D01*
X115914426Y-144834247D01*
X115720000Y-144896109D01*
X115420000Y-144896109D01*
X115420000Y-144896109D01*
X115225574Y-144834247D01*
X114953871Y-144946776D01*
X114578585Y-145266536D01*
X114354233Y-145705572D01*
X114245767Y-145705572D01*
X114245767Y-145705572D01*
X114021415Y-145266536D01*
X113646129Y-144946776D01*
X113374426Y-144834247D01*
X113180000Y-144896109D01*
X112880000Y-144896109D01*
X112880000Y-144896109D01*
X112685574Y-144834247D01*
X112413871Y-144946776D01*
X112038585Y-145266536D01*
X111814233Y-145705572D01*
X108827843Y-145705572D01*
X108890475Y-145522654D01*
X108794341Y-143994049D01*
X108584806Y-143488183D01*
X111916400Y-143488183D01*
X111916400Y-143531817D01*
X112001168Y-143957973D01*
X112242566Y-144319251D01*
X112603844Y-144560649D01*
X113030000Y-144645417D01*
X113456156Y-144560649D01*
X113817434Y-144319251D01*
X114058832Y-143957973D01*
X114143600Y-143531817D01*
X114143600Y-143488183D01*
X114456400Y-143488183D01*
X114456400Y-143531817D01*
X114541168Y-143957973D01*
X114782566Y-144319251D01*
X115143844Y-144560649D01*
X115570000Y-144645417D01*
X115996156Y-144560649D01*
X116357434Y-144319251D01*
X116598832Y-143957973D01*
X116683600Y-143531817D01*
X116683600Y-143488183D01*
X116996400Y-143488183D01*
X116996400Y-143531817D01*
X117081168Y-143957973D01*
X117322566Y-144319251D01*
X117683844Y-144560649D01*
X118110000Y-144645417D01*
X118536156Y-144560649D01*
X118897434Y-144319251D01*
X119138832Y-143957973D01*
X119223600Y-143531817D01*
X119223600Y-143488183D01*
X119536400Y-143488183D01*
X119536400Y-143531817D01*
X119621168Y-143957973D01*
X119862566Y-144319251D01*
X120223844Y-144560649D01*
X120650000Y-144645417D01*
X121076156Y-144560649D01*
X121437434Y-144319251D01*
X121678832Y-143957973D01*
X121763600Y-143531817D01*
X121763600Y-143488183D01*
X122076400Y-143488183D01*
X122076400Y-143531817D01*
X122161168Y-143957973D01*
X122402566Y-144319251D01*
X122763844Y-144560649D01*
X123190000Y-144645417D01*
X123616156Y-144560649D01*
X123977434Y-144319251D01*
X124218832Y-143957973D01*
X124303600Y-143531817D01*
X124303600Y-143488183D01*
X124616400Y-143488183D01*
X124616400Y-143531817D01*
X124701168Y-143957973D01*
X124942566Y-144319251D01*
X125303844Y-144560649D01*
X125730000Y-144645417D01*
X126156156Y-144560649D01*
X126517434Y-144319251D01*
X126758832Y-143957973D01*
X126843600Y-143531817D01*
X126843600Y-143488183D01*
X127156400Y-143488183D01*
X127156400Y-143531817D01*
X127241168Y-143957973D01*
X127482566Y-144319251D01*
X127843844Y-144560649D01*
X128270000Y-144645417D01*
X128696156Y-144560649D01*
X129057434Y-144319251D01*
X129298832Y-143957973D01*
X129383600Y-143531817D01*
X129383600Y-143488183D01*
X129298832Y-143062027D01*
X129057434Y-142700749D01*
X128976095Y-142646400D01*
X129691502Y-142646400D01*
X129691502Y-144373600D01*
X129709997Y-144468924D01*
X129765033Y-144552705D01*
X129848116Y-144608788D01*
X129946400Y-144628498D01*
X131673600Y-144628498D01*
X131768924Y-144610003D01*
X131852705Y-144554967D01*
X131905101Y-144477346D01*
X141109525Y-144477346D01*
X141205659Y-146005951D01*
X141605680Y-146971690D01*
X142062553Y-147371761D01*
X144434315Y-145000000D01*
X145565685Y-145000000D01*
X147937447Y-147371761D01*
X148394320Y-146971690D01*
X148890475Y-145522654D01*
X148794341Y-143994049D01*
X148394320Y-143028310D01*
X147937447Y-142628239D01*
X145565685Y-145000000D01*
X144434315Y-145000000D01*
X144434315Y-145000000D01*
X142062553Y-142628239D01*
X141605680Y-143028310D01*
X141109525Y-144477346D01*
X131905101Y-144477346D01*
X131908788Y-144471884D01*
X131928498Y-144373600D01*
X131928498Y-142646400D01*
X131910003Y-142551076D01*
X131854967Y-142467295D01*
X131771884Y-142411212D01*
X131673600Y-142391502D01*
X129946400Y-142391502D01*
X129851076Y-142409997D01*
X129767295Y-142465033D01*
X129711212Y-142548116D01*
X129691502Y-142646400D01*
X128976095Y-142646400D01*
X128696156Y-142459351D01*
X128270000Y-142374583D01*
X127843844Y-142459351D01*
X127482566Y-142700749D01*
X127241168Y-143062027D01*
X127156400Y-143488183D01*
X126843600Y-143488183D01*
X126843600Y-143488183D01*
X126758832Y-143062027D01*
X126517434Y-142700749D01*
X126156156Y-142459351D01*
X125730000Y-142374583D01*
X125303844Y-142459351D01*
X124942566Y-142700749D01*
X124701168Y-143062027D01*
X124616400Y-143488183D01*
X124303600Y-143488183D01*
X124303600Y-143488183D01*
X124218832Y-143062027D01*
X123977434Y-142700749D01*
X123616156Y-142459351D01*
X123190000Y-142374583D01*
X122763844Y-142459351D01*
X122402566Y-142700749D01*
X122161168Y-143062027D01*
X122076400Y-143488183D01*
X121763600Y-143488183D01*
X121763600Y-143488183D01*
X121678832Y-143062027D01*
X121437434Y-142700749D01*
X121076156Y-142459351D01*
X120650000Y-142374583D01*
X120223844Y-142459351D01*
X119862566Y-142700749D01*
X119621168Y-143062027D01*
X119536400Y-143488183D01*
X119223600Y-143488183D01*
X119223600Y-143488183D01*
X119138832Y-143062027D01*
X118897434Y-142700749D01*
X118536156Y-142459351D01*
X118110000Y-142374583D01*
X117683844Y-142459351D01*
X117322566Y-142700749D01*
X117081168Y-143062027D01*
X116996400Y-143488183D01*
X116683600Y-143488183D01*
X116683600Y-143488183D01*
X116598832Y-143062027D01*
X116357434Y-142700749D01*
X115996156Y-142459351D01*
X115570000Y-142374583D01*
X115143844Y-142459351D01*
X114782566Y-142700749D01*
X114541168Y-143062027D01*
X114456400Y-143488183D01*
X114143600Y-143488183D01*
X114143600Y-143488183D01*
X114058832Y-143062027D01*
X113817434Y-142700749D01*
X113456156Y-142459351D01*
X113030000Y-142374583D01*
X112603844Y-142459351D01*
X112242566Y-142700749D01*
X112001168Y-143062027D01*
X111916400Y-143488183D01*
X108584806Y-143488183D01*
X108394320Y-143028310D01*
X107937447Y-142628239D01*
X105565685Y-145000000D01*
X104434315Y-145000000D01*
X104434315Y-145000000D01*
X102062553Y-142628239D01*
X101605680Y-143028310D01*
X101109525Y-144477346D01*
X100300000Y-144477346D01*
X100300000Y-142062553D01*
X102628239Y-142062553D01*
X105000000Y-144434315D01*
X107371761Y-142062553D01*
X142628239Y-142062553D01*
X145000000Y-144434315D01*
X147371761Y-142062553D01*
X146971690Y-141605680D01*
X145522654Y-141109525D01*
X143994049Y-141205659D01*
X143028310Y-141605680D01*
X142628239Y-142062553D01*
X107371761Y-142062553D01*
X107371761Y-142062553D01*
X106971690Y-141605680D01*
X105522654Y-141109525D01*
X103994049Y-141205659D01*
X103028310Y-141605680D01*
X102628239Y-142062553D01*
X100300000Y-142062553D01*
X100300000Y-139287421D01*
X103494711Y-139287421D01*
X103577475Y-139459444D01*
X104014247Y-139596351D01*
X104470163Y-139555692D01*
X104702525Y-139459444D01*
X104785289Y-139287421D01*
X104140000Y-138642132D01*
X103494711Y-139287421D01*
X100300000Y-139287421D01*
X100300000Y-138304247D01*
X102973649Y-138304247D01*
X103014308Y-138760163D01*
X103110556Y-138992525D01*
X103282579Y-139075289D01*
X103927868Y-138430000D01*
X104352132Y-138430000D01*
X104997421Y-139075289D01*
X105169444Y-138992525D01*
X105283657Y-138628152D01*
X105679257Y-138628152D01*
X105831264Y-138996037D01*
X106112483Y-139277747D01*
X106480101Y-139430396D01*
X106878152Y-139430743D01*
X107246037Y-139278736D01*
X107527747Y-138997517D01*
X107680396Y-138629899D01*
X107680743Y-138231848D01*
X107611253Y-138063668D01*
X139655110Y-138063668D01*
X139706257Y-138264187D01*
X140123655Y-138994213D01*
X140788649Y-139508938D01*
X141600000Y-139730000D01*
X142350000Y-139730000D01*
X142350000Y-137730000D01*
X142650000Y-137730000D01*
X142650000Y-139730000D01*
X143400000Y-139730000D01*
X144211351Y-139508938D01*
X144876345Y-138994213D01*
X145293743Y-138264187D01*
X145344890Y-138063668D01*
X145294505Y-137730000D01*
X142650000Y-137730000D01*
X142350000Y-137730000D01*
X142350000Y-137730000D01*
X139705495Y-137730000D01*
X139655110Y-138063668D01*
X107611253Y-138063668D01*
X107528736Y-137863963D01*
X107247517Y-137582253D01*
X106879899Y-137429604D01*
X106481848Y-137429257D01*
X106113963Y-137581264D01*
X105832253Y-137862483D01*
X105679604Y-138230101D01*
X105679257Y-138628152D01*
X105283657Y-138628152D01*
X105306351Y-138555753D01*
X105265692Y-138099837D01*
X105169444Y-137867475D01*
X104997421Y-137784711D01*
X104352132Y-138430000D01*
X103927868Y-138430000D01*
X103927868Y-138430000D01*
X103282579Y-137784711D01*
X103110556Y-137867475D01*
X102973649Y-138304247D01*
X100300000Y-138304247D01*
X100300000Y-137572579D01*
X103494711Y-137572579D01*
X104140000Y-138217868D01*
X104785289Y-137572579D01*
X104702525Y-137400556D01*
X104265753Y-137263649D01*
X103809837Y-137304308D01*
X103577475Y-137400556D01*
X103494711Y-137572579D01*
X100300000Y-137572579D01*
X100300000Y-137259020D01*
X123959913Y-137259020D01*
X124035873Y-137442857D01*
X124176403Y-137583633D01*
X124360107Y-137659913D01*
X124559020Y-137660087D01*
X124742857Y-137584127D01*
X124853238Y-137473939D01*
X129576061Y-137473939D01*
X129710000Y-137447297D01*
X129823548Y-137371426D01*
X130098642Y-137096332D01*
X139655110Y-137096332D01*
X139705495Y-137430000D01*
X142350000Y-137430000D01*
X142350000Y-135430000D01*
X142650000Y-135430000D01*
X142650000Y-137430000D01*
X145294505Y-137430000D01*
X145344890Y-137096332D01*
X145293743Y-136895813D01*
X144876345Y-136165787D01*
X144211351Y-135651062D01*
X143400000Y-135430000D01*
X142650000Y-135430000D01*
X142350000Y-135430000D01*
X142350000Y-135430000D01*
X141600000Y-135430000D01*
X140788649Y-135651062D01*
X140123655Y-136165787D01*
X139706257Y-136895813D01*
X139655110Y-137096332D01*
X130098642Y-137096332D01*
X130422488Y-136772487D01*
X130498358Y-136658939D01*
X130525000Y-136525000D01*
X130525000Y-132500000D01*
X140205920Y-132500000D01*
X140320101Y-133074025D01*
X140645260Y-133560660D01*
X141131895Y-133885819D01*
X141705920Y-134000000D01*
X143294080Y-134000000D01*
X143868105Y-133885819D01*
X144354740Y-133560660D01*
X144679899Y-133074025D01*
X144764243Y-132650000D01*
X145430000Y-132650000D01*
X145430000Y-133400000D01*
X145651062Y-134211351D01*
X146165787Y-134876345D01*
X146895813Y-135293743D01*
X147096332Y-135344890D01*
X147430000Y-135294505D01*
X147430000Y-132650000D01*
X145430000Y-132650000D01*
X144764243Y-132650000D01*
X144794080Y-132500000D01*
X144679899Y-131925975D01*
X144462090Y-131600000D01*
X145430000Y-131600000D01*
X145430000Y-132350000D01*
X147430000Y-132350000D01*
X147430000Y-129705495D01*
X147096332Y-129655110D01*
X146895813Y-129706257D01*
X146165787Y-130123655D01*
X145651062Y-130788649D01*
X145430000Y-131600000D01*
X144462090Y-131600000D01*
X144354740Y-131439340D01*
X143868105Y-131114181D01*
X143294080Y-131000000D01*
X141705920Y-131000000D01*
X141131895Y-131114181D01*
X140645260Y-131439340D01*
X140320101Y-131925975D01*
X140205920Y-132500000D01*
X130525000Y-132500000D01*
X130525000Y-129262101D01*
X130598633Y-129188597D01*
X130674913Y-129004893D01*
X130675087Y-128805980D01*
X130599127Y-128622143D01*
X130458597Y-128481367D01*
X130274893Y-128405087D01*
X130075980Y-128404913D01*
X130014890Y-128430155D01*
X130039913Y-128369893D01*
X130040087Y-128170980D01*
X129964127Y-127987143D01*
X129880798Y-127903668D01*
X139655110Y-127903668D01*
X139706257Y-128104187D01*
X140123655Y-128834213D01*
X140788649Y-129348938D01*
X141600000Y-129570000D01*
X142350000Y-129570000D01*
X142350000Y-127570000D01*
X142650000Y-127570000D01*
X142650000Y-129570000D01*
X143400000Y-129570000D01*
X144211351Y-129348938D01*
X144876345Y-128834213D01*
X145293743Y-128104187D01*
X145344890Y-127903668D01*
X145294505Y-127570000D01*
X142650000Y-127570000D01*
X142350000Y-127570000D01*
X142350000Y-127570000D01*
X139705495Y-127570000D01*
X139655110Y-127903668D01*
X129880798Y-127903668D01*
X129823597Y-127846367D01*
X129639893Y-127770087D01*
X129440980Y-127769913D01*
X129257143Y-127845873D01*
X129116367Y-127986403D01*
X129040087Y-128170107D01*
X129039913Y-128369020D01*
X129115873Y-128552857D01*
X129190000Y-128627114D01*
X129190000Y-135745025D01*
X128760026Y-136175000D01*
X125452101Y-136175000D01*
X125378597Y-136101367D01*
X125194893Y-136025087D01*
X124995980Y-136024913D01*
X124812143Y-136100873D01*
X124671367Y-136241403D01*
X124595087Y-136425107D01*
X124594913Y-136624020D01*
X124620155Y-136685110D01*
X124559893Y-136660087D01*
X124360980Y-136659913D01*
X124177143Y-136735873D01*
X124036367Y-136876403D01*
X123960087Y-137060107D01*
X123959913Y-137259020D01*
X100300000Y-137259020D01*
X100300000Y-133684402D01*
X102637535Y-133684402D01*
X102835406Y-134092462D01*
X103192198Y-134401253D01*
X103640000Y-134550000D01*
X103990000Y-134550000D01*
X103990000Y-133500000D01*
X104290000Y-133500000D01*
X104290000Y-134550000D01*
X104640000Y-134550000D01*
X105087802Y-134401253D01*
X105444594Y-134092462D01*
X105642465Y-133684402D01*
X105579725Y-133500000D01*
X104290000Y-133500000D01*
X103990000Y-133500000D01*
X103990000Y-133500000D01*
X102700275Y-133500000D01*
X102637535Y-133684402D01*
X100300000Y-133684402D01*
X100300000Y-133350000D01*
X110332572Y-133350000D01*
X110412498Y-133751818D01*
X110640110Y-134092462D01*
X110980754Y-134320074D01*
X111382572Y-134400000D01*
X112137428Y-134400000D01*
X112539246Y-134320074D01*
X112879890Y-134092462D01*
X112885530Y-134084020D01*
X122569913Y-134084020D01*
X122645873Y-134267857D01*
X122786403Y-134408633D01*
X122970107Y-134484913D01*
X123075031Y-134485005D01*
X124092512Y-135502487D01*
X124206060Y-135578358D01*
X124228282Y-135582778D01*
X124340000Y-135605000D01*
X127792899Y-135605000D01*
X127866403Y-135678633D01*
X128050107Y-135754913D01*
X128249020Y-135755087D01*
X128432857Y-135679127D01*
X128573633Y-135538597D01*
X128649913Y-135354893D01*
X128650087Y-135155980D01*
X128574127Y-134972143D01*
X128433597Y-134831367D01*
X128249893Y-134755087D01*
X128050980Y-134754913D01*
X127989890Y-134780155D01*
X128014913Y-134719893D01*
X128015087Y-134520980D01*
X127939127Y-134337143D01*
X127798597Y-134196367D01*
X127614893Y-134120087D01*
X127415980Y-134119913D01*
X127354890Y-134145155D01*
X127379913Y-134084893D01*
X127380087Y-133885980D01*
X127304127Y-133702143D01*
X127163597Y-133561367D01*
X126979893Y-133485087D01*
X126780980Y-133484913D01*
X126719890Y-133510155D01*
X126744913Y-133449893D01*
X126745087Y-133250980D01*
X126669127Y-133067143D01*
X126528597Y-132926367D01*
X126344893Y-132850087D01*
X126239970Y-132849995D01*
X125474996Y-132085022D01*
X125475087Y-131980980D01*
X125399127Y-131797143D01*
X125258597Y-131656367D01*
X125074893Y-131580087D01*
X124875980Y-131579913D01*
X124692143Y-131655873D01*
X124551367Y-131796403D01*
X124475087Y-131980107D01*
X124474913Y-132179020D01*
X124500155Y-132240110D01*
X124439893Y-132215087D01*
X124240980Y-132214913D01*
X124057143Y-132290873D01*
X123916367Y-132431403D01*
X123840087Y-132615107D01*
X123839913Y-132814020D01*
X123865155Y-132875110D01*
X123804893Y-132850087D01*
X123605980Y-132849913D01*
X123422143Y-132925873D01*
X123281367Y-133066403D01*
X123205087Y-133250107D01*
X123204913Y-133449020D01*
X123230155Y-133510110D01*
X123169893Y-133485087D01*
X122970980Y-133484913D01*
X122787143Y-133560873D01*
X122646367Y-133701403D01*
X122570087Y-133885107D01*
X122569913Y-134084020D01*
X112885530Y-134084020D01*
X113107502Y-133751818D01*
X113187428Y-133350000D01*
X113107502Y-132948182D01*
X112879890Y-132607538D01*
X112539246Y-132379926D01*
X112137428Y-132300000D01*
X111382572Y-132300000D01*
X110980754Y-132379926D01*
X110640110Y-132607538D01*
X110412498Y-132948182D01*
X110332572Y-133350000D01*
X100300000Y-133350000D01*
X100300000Y-133015598D01*
X102637535Y-133015598D01*
X102700275Y-133200000D01*
X103990000Y-133200000D01*
X103990000Y-132150000D01*
X104290000Y-132150000D01*
X104290000Y-133200000D01*
X105579725Y-133200000D01*
X105642465Y-133015598D01*
X105444594Y-132607538D01*
X105087802Y-132298747D01*
X104640000Y-132150000D01*
X104290000Y-132150000D01*
X103990000Y-132150000D01*
X103990000Y-132150000D01*
X103640000Y-132150000D01*
X103192198Y-132298747D01*
X102835406Y-132607538D01*
X102637535Y-133015598D01*
X100300000Y-133015598D01*
X100300000Y-131144402D01*
X102637535Y-131144402D01*
X102835406Y-131552462D01*
X103192198Y-131861253D01*
X103640000Y-132010000D01*
X103990000Y-132010000D01*
X103990000Y-130960000D01*
X104290000Y-130960000D01*
X104290000Y-132010000D01*
X104640000Y-132010000D01*
X105087802Y-131861253D01*
X105444594Y-131552462D01*
X105642465Y-131144402D01*
X105579725Y-130960000D01*
X104290000Y-130960000D01*
X103990000Y-130960000D01*
X103990000Y-130960000D01*
X102700275Y-130960000D01*
X102637535Y-131144402D01*
X100300000Y-131144402D01*
X100300000Y-130810000D01*
X110332572Y-130810000D01*
X110412498Y-131211818D01*
X110640110Y-131552462D01*
X110980754Y-131780074D01*
X111382572Y-131860000D01*
X112137428Y-131860000D01*
X112539246Y-131780074D01*
X112879890Y-131552462D01*
X113107502Y-131211818D01*
X113187428Y-130810000D01*
X113107502Y-130408182D01*
X112879890Y-130067538D01*
X112539246Y-129839926D01*
X112137428Y-129760000D01*
X111382572Y-129760000D01*
X110980754Y-129839926D01*
X110640110Y-130067538D01*
X110412498Y-130408182D01*
X110332572Y-130810000D01*
X100300000Y-130810000D01*
X100300000Y-130475598D01*
X102637535Y-130475598D01*
X102700275Y-130660000D01*
X103990000Y-130660000D01*
X103990000Y-129610000D01*
X104290000Y-129610000D01*
X104290000Y-130660000D01*
X105579725Y-130660000D01*
X105642465Y-130475598D01*
X105444594Y-130067538D01*
X105087802Y-129758747D01*
X104640000Y-129610000D01*
X104290000Y-129610000D01*
X103990000Y-129610000D01*
X103990000Y-129610000D01*
X103640000Y-129610000D01*
X103192198Y-129758747D01*
X102835406Y-130067538D01*
X102637535Y-130475598D01*
X100300000Y-130475598D01*
X100300000Y-128604402D01*
X102637535Y-128604402D01*
X102835406Y-129012462D01*
X103192198Y-129321253D01*
X103640000Y-129470000D01*
X103990000Y-129470000D01*
X103990000Y-128420000D01*
X104290000Y-128420000D01*
X104290000Y-129470000D01*
X104640000Y-129470000D01*
X105087802Y-129321253D01*
X105444594Y-129012462D01*
X105642465Y-128604402D01*
X105579725Y-128420000D01*
X104290000Y-128420000D01*
X103990000Y-128420000D01*
X103990000Y-128420000D01*
X102700275Y-128420000D01*
X102637535Y-128604402D01*
X100300000Y-128604402D01*
X100300000Y-128270000D01*
X110332572Y-128270000D01*
X110412498Y-128671818D01*
X110640110Y-129012462D01*
X110980754Y-129240074D01*
X111382572Y-129320000D01*
X112137428Y-129320000D01*
X112539246Y-129240074D01*
X112879890Y-129012462D01*
X113107502Y-128671818D01*
X113187428Y-128270000D01*
X113107502Y-127868182D01*
X112879890Y-127527538D01*
X112539246Y-127299926D01*
X112137428Y-127220000D01*
X111382572Y-127220000D01*
X110980754Y-127299926D01*
X110640110Y-127527538D01*
X110412498Y-127868182D01*
X110332572Y-128270000D01*
X100300000Y-128270000D01*
X100300000Y-127935598D01*
X102637535Y-127935598D01*
X102700275Y-128120000D01*
X103990000Y-128120000D01*
X103990000Y-127070000D01*
X104290000Y-127070000D01*
X104290000Y-128120000D01*
X105579725Y-128120000D01*
X105642465Y-127935598D01*
X105444594Y-127527538D01*
X105087802Y-127218747D01*
X104640000Y-127070000D01*
X104290000Y-127070000D01*
X103990000Y-127070000D01*
X103990000Y-127070000D01*
X103640000Y-127070000D01*
X103192198Y-127218747D01*
X102835406Y-127527538D01*
X102637535Y-127935598D01*
X100300000Y-127935598D01*
X100300000Y-125730000D01*
X102712572Y-125730000D01*
X102792498Y-126131818D01*
X103020110Y-126472462D01*
X103360754Y-126700074D01*
X103762572Y-126780000D01*
X104517428Y-126780000D01*
X104919246Y-126700074D01*
X105259890Y-126472462D01*
X105487502Y-126131818D01*
X105567428Y-125730000D01*
X110332572Y-125730000D01*
X110412498Y-126131818D01*
X110640110Y-126472462D01*
X110980754Y-126700074D01*
X111382572Y-126780000D01*
X112137428Y-126780000D01*
X112539246Y-126700074D01*
X112879890Y-126472462D01*
X113107502Y-126131818D01*
X113187428Y-125730000D01*
X113107502Y-125328182D01*
X112879890Y-124987538D01*
X112539246Y-124759926D01*
X112137428Y-124680000D01*
X111382572Y-124680000D01*
X110980754Y-124759926D01*
X110640110Y-124987538D01*
X110412498Y-125328182D01*
X110332572Y-125730000D01*
X105567428Y-125730000D01*
X105567428Y-125730000D01*
X105487502Y-125328182D01*
X105259890Y-124987538D01*
X104919246Y-124759926D01*
X104517428Y-124680000D01*
X103762572Y-124680000D01*
X103360754Y-124759926D01*
X103020110Y-124987538D01*
X102792498Y-125328182D01*
X102712572Y-125730000D01*
X100300000Y-125730000D01*
X100300000Y-124559020D01*
X127769913Y-124559020D01*
X127845873Y-124742857D01*
X127986403Y-124883633D01*
X128170107Y-124959913D01*
X128369020Y-124960087D01*
X128552857Y-124884127D01*
X128627114Y-124810000D01*
X130452899Y-124810000D01*
X130526403Y-124883633D01*
X130710107Y-124959913D01*
X130909020Y-124960087D01*
X131092857Y-124884127D01*
X131110615Y-124866400D01*
X133349102Y-124866400D01*
X133349102Y-126593600D01*
X133367597Y-126688924D01*
X133422633Y-126772705D01*
X133505716Y-126828788D01*
X133604000Y-126848498D01*
X135636000Y-126848498D01*
X135731324Y-126830003D01*
X135815105Y-126774967D01*
X135871188Y-126691884D01*
X135890898Y-126593600D01*
X135890898Y-126098418D01*
X137062767Y-126098418D01*
X137202700Y-126436276D01*
X137566403Y-126852181D01*
X138061580Y-127097244D01*
X138280000Y-127038045D01*
X138280000Y-125880000D01*
X138580000Y-125880000D01*
X138580000Y-127038045D01*
X138798420Y-127097244D01*
X139123560Y-126936332D01*
X139655110Y-126936332D01*
X139705495Y-127270000D01*
X142350000Y-127270000D01*
X142350000Y-125270000D01*
X142650000Y-125270000D01*
X142650000Y-127270000D01*
X145294505Y-127270000D01*
X145344890Y-126936332D01*
X145293743Y-126735813D01*
X144876345Y-126005787D01*
X144211351Y-125491062D01*
X143400000Y-125270000D01*
X142650000Y-125270000D01*
X142350000Y-125270000D01*
X142350000Y-125270000D01*
X141600000Y-125270000D01*
X140788649Y-125491062D01*
X140123655Y-126005787D01*
X139706257Y-126735813D01*
X139655110Y-126936332D01*
X139123560Y-126936332D01*
X139293597Y-126852181D01*
X139657300Y-126436276D01*
X139797233Y-126098418D01*
X139737423Y-125880000D01*
X138580000Y-125880000D01*
X138280000Y-125880000D01*
X138280000Y-125880000D01*
X137122577Y-125880000D01*
X137062767Y-126098418D01*
X135890898Y-126098418D01*
X135890898Y-125361582D01*
X137062767Y-125361582D01*
X137122577Y-125580000D01*
X138280000Y-125580000D01*
X138280000Y-125560000D01*
X138580000Y-125560000D01*
X138580000Y-125580000D01*
X139737423Y-125580000D01*
X139797233Y-125361582D01*
X139657300Y-125023724D01*
X139293597Y-124607819D01*
X138996727Y-124460898D01*
X139446000Y-124460898D01*
X139541324Y-124442403D01*
X139625105Y-124387367D01*
X139681188Y-124304284D01*
X139700898Y-124206000D01*
X139700898Y-122174000D01*
X139682403Y-122078676D01*
X139627367Y-121994895D01*
X139544284Y-121938812D01*
X139446000Y-121919102D01*
X137414000Y-121919102D01*
X137318676Y-121937597D01*
X137234895Y-121992633D01*
X137178812Y-122075716D01*
X137159102Y-122174000D01*
X137159102Y-124206000D01*
X137177597Y-124301324D01*
X137232633Y-124385105D01*
X137315716Y-124441188D01*
X137414000Y-124460898D01*
X137863273Y-124460898D01*
X137566403Y-124607819D01*
X137202700Y-125023724D01*
X137062767Y-125361582D01*
X135890898Y-125361582D01*
X135890898Y-124866400D01*
X135872403Y-124771076D01*
X135817367Y-124687295D01*
X135734284Y-124631212D01*
X135636000Y-124611502D01*
X133604000Y-124611502D01*
X133508676Y-124629997D01*
X133424895Y-124685033D01*
X133368812Y-124768116D01*
X133349102Y-124866400D01*
X131110615Y-124866400D01*
X131233633Y-124743597D01*
X131309913Y-124559893D01*
X131310087Y-124360980D01*
X131234127Y-124177143D01*
X131093597Y-124036367D01*
X130909893Y-123960087D01*
X130710980Y-123959913D01*
X130527143Y-124035873D01*
X130452886Y-124110000D01*
X128627101Y-124110000D01*
X128553597Y-124036367D01*
X128369893Y-123960087D01*
X128170980Y-123959913D01*
X127987143Y-124035873D01*
X127846367Y-124176403D01*
X127770087Y-124360107D01*
X127769913Y-124559020D01*
X100300000Y-124559020D01*
X100300000Y-123190000D01*
X133329198Y-123190000D01*
X133413966Y-123616156D01*
X133655364Y-123977434D01*
X134016642Y-124218832D01*
X134442798Y-124303600D01*
X134797202Y-124303600D01*
X135223358Y-124218832D01*
X135584636Y-123977434D01*
X135826034Y-123616156D01*
X135910802Y-123190000D01*
X135826034Y-122763844D01*
X135584636Y-122402566D01*
X135223358Y-122161168D01*
X134797202Y-122076400D01*
X134442798Y-122076400D01*
X134016642Y-122161168D01*
X133655364Y-122402566D01*
X133413966Y-122763844D01*
X133329198Y-123190000D01*
X100300000Y-123190000D01*
X100300000Y-122849485D01*
X103422647Y-122849485D01*
X103517656Y-123031778D01*
X103990488Y-123185310D01*
X104486082Y-123146209D01*
X104762344Y-123031778D01*
X104857353Y-122849485D01*
X104140000Y-122132132D01*
X103422647Y-122849485D01*
X100300000Y-122849485D01*
X100300000Y-121770488D01*
X102874690Y-121770488D01*
X102913791Y-122266082D01*
X103028222Y-122542344D01*
X103210515Y-122637353D01*
X103927868Y-121920000D01*
X104352132Y-121920000D01*
X105069485Y-122637353D01*
X105251778Y-122542344D01*
X105405310Y-122069512D01*
X105366209Y-121573918D01*
X105251778Y-121297656D01*
X105069485Y-121202647D01*
X104352132Y-121920000D01*
X103927868Y-121920000D01*
X103927868Y-121920000D01*
X103210515Y-121202647D01*
X103028222Y-121297656D01*
X102874690Y-121770488D01*
X100300000Y-121770488D01*
X100300000Y-120990515D01*
X103422647Y-120990515D01*
X104140000Y-121707868D01*
X104777498Y-121070370D01*
X113195472Y-121070370D01*
X113195472Y-122769630D01*
X113213967Y-122864954D01*
X113269003Y-122948735D01*
X113352086Y-123004818D01*
X113450370Y-123024528D01*
X115149630Y-123024528D01*
X115244954Y-123006033D01*
X115328735Y-122950997D01*
X115384818Y-122867914D01*
X115404528Y-122769630D01*
X115404528Y-121070370D01*
X115386033Y-120975046D01*
X115330997Y-120891265D01*
X115247914Y-120835182D01*
X115149630Y-120815472D01*
X113450370Y-120815472D01*
X113355046Y-120833967D01*
X113271265Y-120889003D01*
X113215182Y-120972086D01*
X113195472Y-121070370D01*
X104777498Y-121070370D01*
X104857353Y-120990515D01*
X104762344Y-120808222D01*
X104289512Y-120654690D01*
X103793918Y-120693791D01*
X103517656Y-120808222D01*
X103422647Y-120990515D01*
X100300000Y-120990515D01*
X100300000Y-120650000D01*
X133329198Y-120650000D01*
X133413966Y-121076156D01*
X133655364Y-121437434D01*
X134016642Y-121678832D01*
X134442798Y-121763600D01*
X134797202Y-121763600D01*
X134837475Y-121755589D01*
X144059610Y-121755589D01*
X144401431Y-122582858D01*
X145033813Y-123216345D01*
X145860484Y-123559608D01*
X146755589Y-123560390D01*
X147582858Y-123218569D01*
X148216345Y-122586187D01*
X148559608Y-121759516D01*
X148560390Y-120864411D01*
X148218569Y-120037142D01*
X147586187Y-119403655D01*
X146759516Y-119060392D01*
X145864411Y-119059610D01*
X145037142Y-119401431D01*
X144403655Y-120033813D01*
X144060392Y-120860484D01*
X144059610Y-121755589D01*
X134837475Y-121755589D01*
X135223358Y-121678832D01*
X135584636Y-121437434D01*
X135826034Y-121076156D01*
X135910802Y-120650000D01*
X135826034Y-120223844D01*
X135703194Y-120040000D01*
X140970613Y-120040000D01*
X141058152Y-120480086D01*
X141307440Y-120853173D01*
X141680527Y-121102461D01*
X142120613Y-121190000D01*
X142879387Y-121190000D01*
X143319473Y-121102461D01*
X143692560Y-120853173D01*
X143941848Y-120480086D01*
X144029387Y-120040000D01*
X143941848Y-119599914D01*
X143692560Y-119226827D01*
X143319473Y-118977539D01*
X142879387Y-118890000D01*
X142120613Y-118890000D01*
X141680527Y-118977539D01*
X141307440Y-119226827D01*
X141058152Y-119599914D01*
X140970613Y-120040000D01*
X135703194Y-120040000D01*
X135584636Y-119862566D01*
X135223358Y-119621168D01*
X134797202Y-119536400D01*
X134442798Y-119536400D01*
X134016642Y-119621168D01*
X133655364Y-119862566D01*
X133413966Y-120223844D01*
X133329198Y-120650000D01*
X100300000Y-120650000D01*
X100300000Y-118308152D01*
X110759257Y-118308152D01*
X110911264Y-118676037D01*
X111192483Y-118957747D01*
X111560101Y-119110396D01*
X111958152Y-119110743D01*
X112326037Y-118958736D01*
X112607747Y-118677517D01*
X112760396Y-118309899D01*
X112760397Y-118308152D01*
X113299257Y-118308152D01*
X113451264Y-118676037D01*
X113732483Y-118957747D01*
X114100101Y-119110396D01*
X114498152Y-119110743D01*
X114866037Y-118958736D01*
X115147747Y-118677517D01*
X115300396Y-118309899D01*
X115300743Y-117911848D01*
X115148736Y-117543963D01*
X114867517Y-117262253D01*
X114499899Y-117109604D01*
X114101848Y-117109257D01*
X113733963Y-117261264D01*
X113452253Y-117542483D01*
X113299604Y-117910101D01*
X113299257Y-118308152D01*
X112760397Y-118308152D01*
X112760743Y-117911848D01*
X112608736Y-117543963D01*
X112327517Y-117262253D01*
X111959899Y-117109604D01*
X111561848Y-117109257D01*
X111193963Y-117261264D01*
X110912253Y-117542483D01*
X110759604Y-117910101D01*
X110759257Y-118308152D01*
X100300000Y-118308152D01*
X100300000Y-117087449D01*
X117495294Y-117087449D01*
X117685116Y-117546855D01*
X118036297Y-117898648D01*
X118495371Y-118089273D01*
X118992449Y-118089706D01*
X119351412Y-117941386D01*
X119767512Y-118357487D01*
X119881060Y-118433358D01*
X119903282Y-118437778D01*
X120015000Y-118460000D01*
X124102899Y-118460000D01*
X124176403Y-118533633D01*
X124360107Y-118609913D01*
X124559020Y-118610087D01*
X124742857Y-118534127D01*
X124883633Y-118393597D01*
X124959913Y-118209893D01*
X124960087Y-118010980D01*
X124884127Y-117827143D01*
X124743597Y-117686367D01*
X124559893Y-117610087D01*
X124360980Y-117609913D01*
X124177143Y-117685873D01*
X124102886Y-117760000D01*
X120159975Y-117760000D01*
X119899975Y-117500000D01*
X140970613Y-117500000D01*
X141058152Y-117940086D01*
X141307440Y-118313173D01*
X141680527Y-118562461D01*
X142120613Y-118650000D01*
X142879387Y-118650000D01*
X143319473Y-118562461D01*
X143692560Y-118313173D01*
X143941848Y-117940086D01*
X144029387Y-117500000D01*
X143941848Y-117059914D01*
X143692560Y-116686827D01*
X143319473Y-116437539D01*
X142879387Y-116350000D01*
X142120613Y-116350000D01*
X141680527Y-116437539D01*
X141307440Y-116686827D01*
X141058152Y-117059914D01*
X140970613Y-117500000D01*
X119899975Y-117500000D01*
X119846200Y-117446226D01*
X119994273Y-117089629D01*
X119994706Y-116592551D01*
X119804884Y-116133145D01*
X119453703Y-115781352D01*
X118994629Y-115590727D01*
X118497551Y-115590294D01*
X118038145Y-115780116D01*
X117686352Y-116131297D01*
X117495727Y-116590371D01*
X117495294Y-117087449D01*
X100300000Y-117087449D01*
X100300000Y-115157421D01*
X104764711Y-115157421D01*
X104847475Y-115329444D01*
X105284247Y-115466351D01*
X105740163Y-115425692D01*
X105972525Y-115329444D01*
X106055289Y-115157421D01*
X105410000Y-114512132D01*
X104764711Y-115157421D01*
X100300000Y-115157421D01*
X100300000Y-114174247D01*
X104243649Y-114174247D01*
X104284308Y-114630163D01*
X104380556Y-114862525D01*
X104552579Y-114945289D01*
X105197868Y-114300000D01*
X105622132Y-114300000D01*
X106267421Y-114945289D01*
X106439444Y-114862525D01*
X106553657Y-114498152D01*
X106949257Y-114498152D01*
X107101264Y-114866037D01*
X107382483Y-115147747D01*
X107750101Y-115300396D01*
X108148152Y-115300743D01*
X108516037Y-115148736D01*
X108797747Y-114867517D01*
X108930651Y-114547449D01*
X121940294Y-114547449D01*
X122130116Y-115006855D01*
X122481297Y-115358648D01*
X122940371Y-115549273D01*
X123437449Y-115549706D01*
X123896855Y-115359884D01*
X124248648Y-115008703D01*
X124439273Y-114549629D01*
X124439274Y-114547449D01*
X132100294Y-114547449D01*
X132290116Y-115006855D01*
X132641297Y-115358648D01*
X133100371Y-115549273D01*
X133597449Y-115549706D01*
X134056855Y-115359884D01*
X134106665Y-115310160D01*
X140898046Y-115310160D01*
X141124695Y-115773173D01*
X141513930Y-116103641D01*
X142000000Y-116260000D01*
X142350000Y-116260000D01*
X142350000Y-115110000D01*
X142650000Y-115110000D01*
X142650000Y-116260000D01*
X143000000Y-116260000D01*
X143486070Y-116103641D01*
X143875305Y-115773173D01*
X144101954Y-115310160D01*
X144040588Y-115110000D01*
X142650000Y-115110000D01*
X142350000Y-115110000D01*
X142350000Y-115110000D01*
X140959412Y-115110000D01*
X140898046Y-115310160D01*
X134106665Y-115310160D01*
X134408648Y-115008703D01*
X134574271Y-114609840D01*
X140898046Y-114609840D01*
X140959412Y-114810000D01*
X142350000Y-114810000D01*
X142350000Y-113660000D01*
X142650000Y-113660000D01*
X142650000Y-114810000D01*
X144040588Y-114810000D01*
X144101954Y-114609840D01*
X143875305Y-114146827D01*
X143862069Y-114135589D01*
X144059610Y-114135589D01*
X144401431Y-114962858D01*
X145033813Y-115596345D01*
X145860484Y-115939608D01*
X146755589Y-115940390D01*
X147582858Y-115598569D01*
X148216345Y-114966187D01*
X148559608Y-114139516D01*
X148560390Y-113244411D01*
X148218569Y-112417142D01*
X147586187Y-111783655D01*
X146759516Y-111440392D01*
X145864411Y-111439610D01*
X145037142Y-111781431D01*
X144403655Y-112413813D01*
X144060392Y-113240484D01*
X144059610Y-114135589D01*
X143862069Y-114135589D01*
X143486070Y-113816359D01*
X143000000Y-113660000D01*
X142650000Y-113660000D01*
X142350000Y-113660000D01*
X142350000Y-113660000D01*
X142000000Y-113660000D01*
X141513930Y-113816359D01*
X141124695Y-114146827D01*
X140898046Y-114609840D01*
X134574271Y-114609840D01*
X134599273Y-114549629D01*
X134599706Y-114052551D01*
X134409884Y-113593145D01*
X134058703Y-113241352D01*
X133599629Y-113050727D01*
X133102551Y-113050294D01*
X132643145Y-113240116D01*
X132291352Y-113591297D01*
X132100727Y-114050371D01*
X132100294Y-114547449D01*
X124439274Y-114547449D01*
X124439706Y-114052551D01*
X124249884Y-113593145D01*
X123898703Y-113241352D01*
X123439629Y-113050727D01*
X122942551Y-113050294D01*
X122483145Y-113240116D01*
X122131352Y-113591297D01*
X121940727Y-114050371D01*
X121940294Y-114547449D01*
X108930651Y-114547449D01*
X108950396Y-114499899D01*
X108950743Y-114101848D01*
X108798736Y-113733963D01*
X108517517Y-113452253D01*
X108149899Y-113299604D01*
X107751848Y-113299257D01*
X107383963Y-113451264D01*
X107102253Y-113732483D01*
X106949604Y-114100101D01*
X106949257Y-114498152D01*
X106553657Y-114498152D01*
X106576351Y-114425753D01*
X106535692Y-113969837D01*
X106439444Y-113737475D01*
X106267421Y-113654711D01*
X105622132Y-114300000D01*
X105197868Y-114300000D01*
X105197868Y-114300000D01*
X104552579Y-113654711D01*
X104380556Y-113737475D01*
X104243649Y-114174247D01*
X100300000Y-114174247D01*
X100300000Y-113442579D01*
X104764711Y-113442579D01*
X105410000Y-114087868D01*
X106055289Y-113442579D01*
X105972525Y-113270556D01*
X105535753Y-113133649D01*
X105079837Y-113174308D01*
X104847475Y-113270556D01*
X104764711Y-113442579D01*
X100300000Y-113442579D01*
X100300000Y-111372449D01*
X121940294Y-111372449D01*
X122130116Y-111831855D01*
X122481297Y-112183648D01*
X122940371Y-112374273D01*
X123437449Y-112374706D01*
X123896855Y-112184884D01*
X124248648Y-111833703D01*
X124439273Y-111374629D01*
X124439274Y-111372449D01*
X132100294Y-111372449D01*
X132290116Y-111831855D01*
X132641297Y-112183648D01*
X133100371Y-112374273D01*
X133597449Y-112374706D01*
X134056855Y-112184884D01*
X134408648Y-111833703D01*
X134599273Y-111374629D01*
X134599706Y-110877551D01*
X134409884Y-110418145D01*
X134058703Y-110066352D01*
X133599629Y-109875727D01*
X133102551Y-109875294D01*
X132643145Y-110065116D01*
X132291352Y-110416297D01*
X132100727Y-110875371D01*
X132100294Y-111372449D01*
X124439274Y-111372449D01*
X124439706Y-110877551D01*
X124249884Y-110418145D01*
X123898703Y-110066352D01*
X123439629Y-109875727D01*
X122942551Y-109875294D01*
X122483145Y-110065116D01*
X122131352Y-110416297D01*
X121940727Y-110875371D01*
X121940294Y-111372449D01*
X100300000Y-111372449D01*
X100300000Y-106927449D01*
X117495294Y-106927449D01*
X117685116Y-107386855D01*
X118036297Y-107738648D01*
X118495371Y-107929273D01*
X118992449Y-107929706D01*
X119451855Y-107739884D01*
X119803648Y-107388703D01*
X119994273Y-106929629D01*
X119994424Y-106755589D01*
X144059610Y-106755589D01*
X144401431Y-107582858D01*
X145033813Y-108216345D01*
X145860484Y-108559608D01*
X146755589Y-108560390D01*
X147582858Y-108218569D01*
X148216345Y-107586187D01*
X148559608Y-106759516D01*
X148560390Y-105864411D01*
X148218569Y-105037142D01*
X147586187Y-104403655D01*
X146759516Y-104060392D01*
X145864411Y-104059610D01*
X145037142Y-104401431D01*
X144403655Y-105033813D01*
X144060392Y-105860484D01*
X144059610Y-106755589D01*
X119994424Y-106755589D01*
X119994706Y-106432551D01*
X119804884Y-105973145D01*
X119453703Y-105621352D01*
X118994629Y-105430727D01*
X118497551Y-105430294D01*
X118038145Y-105620116D01*
X117686352Y-105971297D01*
X117495727Y-106430371D01*
X117495294Y-106927449D01*
X100300000Y-106927449D01*
X100300000Y-101699020D01*
X114434913Y-101699020D01*
X114435000Y-101699231D01*
X114435000Y-105409564D01*
X114434913Y-105509020D01*
X114510873Y-105692857D01*
X114651403Y-105833633D01*
X114835107Y-105909913D01*
X115034020Y-105910087D01*
X115217857Y-105834127D01*
X115358633Y-105693597D01*
X115434913Y-105509893D01*
X115435087Y-105310980D01*
X115435000Y-105310769D01*
X115435000Y-105040000D01*
X140970613Y-105040000D01*
X141058152Y-105480086D01*
X141307440Y-105853173D01*
X141680527Y-106102461D01*
X142120613Y-106190000D01*
X142879387Y-106190000D01*
X143319473Y-106102461D01*
X143692560Y-105853173D01*
X143941848Y-105480086D01*
X144029387Y-105040000D01*
X143941848Y-104599914D01*
X143692560Y-104226827D01*
X143319473Y-103977539D01*
X142879387Y-103890000D01*
X142120613Y-103890000D01*
X141680527Y-103977539D01*
X141307440Y-104226827D01*
X141058152Y-104599914D01*
X140970613Y-105040000D01*
X115435000Y-105040000D01*
X115435000Y-104005000D01*
X127634563Y-104005000D01*
X127734020Y-104005087D01*
X127917857Y-103929127D01*
X128058633Y-103788597D01*
X128134913Y-103604893D01*
X128135087Y-103405980D01*
X128059127Y-103222143D01*
X127918597Y-103081367D01*
X127734893Y-103005087D01*
X127535980Y-103004913D01*
X127535769Y-103005000D01*
X115435000Y-103005000D01*
X115435000Y-102850160D01*
X140898046Y-102850160D01*
X141124695Y-103313173D01*
X141513930Y-103643641D01*
X142000000Y-103800000D01*
X142350000Y-103800000D01*
X142350000Y-102650000D01*
X142650000Y-102650000D01*
X142650000Y-103800000D01*
X143000000Y-103800000D01*
X143486070Y-103643641D01*
X143875305Y-103313173D01*
X144101954Y-102850160D01*
X144040588Y-102650000D01*
X142650000Y-102650000D01*
X142350000Y-102650000D01*
X142350000Y-102650000D01*
X140959412Y-102650000D01*
X140898046Y-102850160D01*
X115435000Y-102850160D01*
X115435000Y-102149840D01*
X140898046Y-102149840D01*
X140959412Y-102350000D01*
X142350000Y-102350000D01*
X142350000Y-101200000D01*
X142650000Y-101200000D01*
X142650000Y-102350000D01*
X144040588Y-102350000D01*
X144101954Y-102149840D01*
X143875305Y-101686827D01*
X143486070Y-101356359D01*
X143000000Y-101200000D01*
X142650000Y-101200000D01*
X142350000Y-101200000D01*
X142350000Y-101200000D01*
X142000000Y-101200000D01*
X141513930Y-101356359D01*
X141124695Y-101686827D01*
X140898046Y-102149840D01*
X115435000Y-102149840D01*
X115435000Y-101600000D01*
X115435087Y-101500980D01*
X115359127Y-101317143D01*
X115218597Y-101176367D01*
X115034893Y-101100087D01*
X114835980Y-101099913D01*
X114652143Y-101175873D01*
X114511367Y-101316403D01*
X114435087Y-101500107D01*
X114434913Y-101699020D01*
X100300000Y-101699020D01*
X100300000Y-98044000D01*
X105561502Y-98044000D01*
X105561502Y-100076000D01*
X105579997Y-100171324D01*
X105635033Y-100255105D01*
X105718116Y-100311188D01*
X105816400Y-100330898D01*
X107543600Y-100330898D01*
X107638924Y-100312403D01*
X107722705Y-100257367D01*
X107778788Y-100174284D01*
X107798498Y-100076000D01*
X107798498Y-98882798D01*
X108106400Y-98882798D01*
X108106400Y-99237202D01*
X108191168Y-99663358D01*
X108432566Y-100024636D01*
X108793844Y-100266034D01*
X109220000Y-100350802D01*
X109646156Y-100266034D01*
X110007434Y-100024636D01*
X110248832Y-99663358D01*
X110333600Y-99237202D01*
X110333600Y-98882798D01*
X110646400Y-98882798D01*
X110646400Y-99237202D01*
X110731168Y-99663358D01*
X110972566Y-100024636D01*
X111333844Y-100266034D01*
X111760000Y-100350802D01*
X112186156Y-100266034D01*
X112547434Y-100024636D01*
X112788832Y-99663358D01*
X112873600Y-99237202D01*
X112873600Y-98882798D01*
X112788832Y-98456642D01*
X112547434Y-98095364D01*
X112470563Y-98044000D01*
X116991502Y-98044000D01*
X116991502Y-100076000D01*
X117009997Y-100171324D01*
X117065033Y-100255105D01*
X117148116Y-100311188D01*
X117246400Y-100330898D01*
X118973600Y-100330898D01*
X119068924Y-100312403D01*
X119152705Y-100257367D01*
X119208788Y-100174284D01*
X119228498Y-100076000D01*
X119228498Y-98882798D01*
X119536400Y-98882798D01*
X119536400Y-99237202D01*
X119621168Y-99663358D01*
X119862566Y-100024636D01*
X120223844Y-100266034D01*
X120650000Y-100350802D01*
X121076156Y-100266034D01*
X121437434Y-100024636D01*
X121678832Y-99663358D01*
X121763600Y-99237202D01*
X121763600Y-98882798D01*
X122076400Y-98882798D01*
X122076400Y-99237202D01*
X122161168Y-99663358D01*
X122402566Y-100024636D01*
X122763844Y-100266034D01*
X123190000Y-100350802D01*
X123616156Y-100266034D01*
X123977434Y-100024636D01*
X124218832Y-99663358D01*
X124303600Y-99237202D01*
X124303600Y-99060000D01*
X133329198Y-99060000D01*
X133413966Y-99486156D01*
X133655364Y-99847434D01*
X134016642Y-100088832D01*
X134442798Y-100173600D01*
X134797202Y-100173600D01*
X135223358Y-100088832D01*
X135416168Y-99960000D01*
X140970613Y-99960000D01*
X141058152Y-100400086D01*
X141307440Y-100773173D01*
X141680527Y-101022461D01*
X142120613Y-101110000D01*
X142879387Y-101110000D01*
X143319473Y-101022461D01*
X143692560Y-100773173D01*
X143941848Y-100400086D01*
X144029387Y-99960000D01*
X143941848Y-99519914D01*
X143692560Y-99146827D01*
X143675742Y-99135589D01*
X144059610Y-99135589D01*
X144401431Y-99962858D01*
X145033813Y-100596345D01*
X145860484Y-100939608D01*
X146755589Y-100940390D01*
X147582858Y-100598569D01*
X148216345Y-99966187D01*
X148559608Y-99139516D01*
X148560390Y-98244411D01*
X148218569Y-97417142D01*
X147586187Y-96783655D01*
X146759516Y-96440392D01*
X145864411Y-96439610D01*
X145037142Y-96781431D01*
X144403655Y-97413813D01*
X144060392Y-98240484D01*
X144059610Y-99135589D01*
X143675742Y-99135589D01*
X143319473Y-98897539D01*
X142879387Y-98810000D01*
X142120613Y-98810000D01*
X141680527Y-98897539D01*
X141307440Y-99146827D01*
X141058152Y-99519914D01*
X140970613Y-99960000D01*
X135416168Y-99960000D01*
X135584636Y-99847434D01*
X135826034Y-99486156D01*
X135910802Y-99060000D01*
X135826034Y-98633844D01*
X135584636Y-98272566D01*
X135223358Y-98031168D01*
X134797202Y-97946400D01*
X134442798Y-97946400D01*
X134016642Y-98031168D01*
X133655364Y-98272566D01*
X133413966Y-98633844D01*
X133329198Y-99060000D01*
X124303600Y-99060000D01*
X124303600Y-98882798D01*
X124218832Y-98456642D01*
X123977434Y-98095364D01*
X123616156Y-97853966D01*
X123190000Y-97769198D01*
X122763844Y-97853966D01*
X122402566Y-98095364D01*
X122161168Y-98456642D01*
X122076400Y-98882798D01*
X121763600Y-98882798D01*
X121763600Y-98882798D01*
X121678832Y-98456642D01*
X121437434Y-98095364D01*
X121076156Y-97853966D01*
X120650000Y-97769198D01*
X120223844Y-97853966D01*
X119862566Y-98095364D01*
X119621168Y-98456642D01*
X119536400Y-98882798D01*
X119228498Y-98882798D01*
X119228498Y-98044000D01*
X119210003Y-97948676D01*
X119154967Y-97864895D01*
X119071884Y-97808812D01*
X118973600Y-97789102D01*
X117246400Y-97789102D01*
X117151076Y-97807597D01*
X117067295Y-97862633D01*
X117011212Y-97945716D01*
X116991502Y-98044000D01*
X112470563Y-98044000D01*
X112186156Y-97853966D01*
X111760000Y-97769198D01*
X111333844Y-97853966D01*
X110972566Y-98095364D01*
X110731168Y-98456642D01*
X110646400Y-98882798D01*
X110333600Y-98882798D01*
X110333600Y-98882798D01*
X110248832Y-98456642D01*
X110007434Y-98095364D01*
X109646156Y-97853966D01*
X109220000Y-97769198D01*
X108793844Y-97853966D01*
X108432566Y-98095364D01*
X108191168Y-98456642D01*
X108106400Y-98882798D01*
X107798498Y-98882798D01*
X107798498Y-98044000D01*
X107780003Y-97948676D01*
X107724967Y-97864895D01*
X107641884Y-97808812D01*
X107543600Y-97789102D01*
X105816400Y-97789102D01*
X105721076Y-97807597D01*
X105637295Y-97862633D01*
X105581212Y-97945716D01*
X105561502Y-98044000D01*
X100300000Y-98044000D01*
X100300000Y-82804000D01*
X105561502Y-82804000D01*
X105561502Y-84836000D01*
X105579997Y-84931324D01*
X105635033Y-85015105D01*
X105718116Y-85071188D01*
X105816400Y-85090898D01*
X107543600Y-85090898D01*
X107600000Y-85079955D01*
X107600000Y-90180413D01*
X107543600Y-90169102D01*
X105816400Y-90169102D01*
X105721076Y-90187597D01*
X105637295Y-90242633D01*
X105581212Y-90325716D01*
X105561502Y-90424000D01*
X105561502Y-92456000D01*
X105579997Y-92551324D01*
X105635033Y-92635105D01*
X105718116Y-92691188D01*
X105816400Y-92710898D01*
X107543600Y-92710898D01*
X107600000Y-92699955D01*
X107600000Y-95885000D01*
X107626642Y-96018939D01*
X107702513Y-96132487D01*
X108720004Y-97149979D01*
X108719913Y-97254020D01*
X108795873Y-97437857D01*
X108936403Y-97578633D01*
X109120107Y-97654913D01*
X109319020Y-97655087D01*
X109502857Y-97579127D01*
X109643633Y-97438597D01*
X109719913Y-97254893D01*
X109720087Y-97055980D01*
X109644127Y-96872143D01*
X109503597Y-96731367D01*
X109319893Y-96655087D01*
X109214970Y-96654995D01*
X108300000Y-95740026D01*
X108300000Y-92206237D01*
X108432566Y-92404636D01*
X108793844Y-92646034D01*
X109220000Y-92730802D01*
X109646156Y-92646034D01*
X110007434Y-92404636D01*
X110248832Y-92043358D01*
X110333600Y-91617202D01*
X110333600Y-91262798D01*
X110646400Y-91262798D01*
X110646400Y-91617202D01*
X110731168Y-92043358D01*
X110972566Y-92404636D01*
X111333844Y-92646034D01*
X111760000Y-92730802D01*
X112186156Y-92646034D01*
X112547434Y-92404636D01*
X112788832Y-92043358D01*
X112873600Y-91617202D01*
X112873600Y-91262798D01*
X112788832Y-90836642D01*
X112547434Y-90475364D01*
X112470563Y-90424000D01*
X116991502Y-90424000D01*
X116991502Y-92456000D01*
X117009997Y-92551324D01*
X117065033Y-92635105D01*
X117148116Y-92691188D01*
X117246400Y-92710898D01*
X118973600Y-92710898D01*
X119068924Y-92692403D01*
X119152705Y-92637367D01*
X119208788Y-92554284D01*
X119228498Y-92456000D01*
X119228498Y-91262798D01*
X119536400Y-91262798D01*
X119536400Y-91617202D01*
X119621168Y-92043358D01*
X119862566Y-92404636D01*
X120223844Y-92646034D01*
X120650000Y-92730802D01*
X121076156Y-92646034D01*
X121437434Y-92404636D01*
X121570000Y-92206237D01*
X121570000Y-95740025D01*
X120655022Y-96655004D01*
X120550980Y-96654913D01*
X120367143Y-96730873D01*
X120226367Y-96871403D01*
X120150087Y-97055107D01*
X120149913Y-97254020D01*
X120225873Y-97437857D01*
X120366403Y-97578633D01*
X120550107Y-97654913D01*
X120749020Y-97655087D01*
X120932857Y-97579127D01*
X121073633Y-97438597D01*
X121149913Y-97254893D01*
X121150005Y-97149969D01*
X121779974Y-96520000D01*
X133329198Y-96520000D01*
X133413966Y-96946156D01*
X133655364Y-97307434D01*
X134016642Y-97548832D01*
X134442798Y-97633600D01*
X134797202Y-97633600D01*
X135223358Y-97548832D01*
X135584636Y-97307434D01*
X135826034Y-96946156D01*
X135910802Y-96520000D01*
X135826034Y-96093844D01*
X135584636Y-95732566D01*
X135223358Y-95491168D01*
X134797202Y-95406400D01*
X134442798Y-95406400D01*
X134016642Y-95491168D01*
X133655364Y-95732566D01*
X133413966Y-96093844D01*
X133329198Y-96520000D01*
X121779974Y-96520000D01*
X122167487Y-96132488D01*
X122243358Y-96018940D01*
X122247778Y-95996718D01*
X122270000Y-95885000D01*
X122270000Y-93116400D01*
X133349102Y-93116400D01*
X133349102Y-94843600D01*
X133367597Y-94938924D01*
X133422633Y-95022705D01*
X133505716Y-95078788D01*
X133604000Y-95098498D01*
X135636000Y-95098498D01*
X135731324Y-95080003D01*
X135815105Y-95024967D01*
X135871188Y-94941884D01*
X135890898Y-94843600D01*
X135890898Y-94348418D01*
X137062767Y-94348418D01*
X137202700Y-94686276D01*
X137566403Y-95102181D01*
X137863273Y-95249102D01*
X137414000Y-95249102D01*
X137318676Y-95267597D01*
X137234895Y-95322633D01*
X137178812Y-95405716D01*
X137159102Y-95504000D01*
X137159102Y-97536000D01*
X137177597Y-97631324D01*
X137232633Y-97715105D01*
X137315716Y-97771188D01*
X137414000Y-97790898D01*
X139446000Y-97790898D01*
X139541324Y-97772403D01*
X139625105Y-97717367D01*
X139681188Y-97634284D01*
X139700898Y-97536000D01*
X139700898Y-95504000D01*
X139682403Y-95408676D01*
X139627367Y-95324895D01*
X139544284Y-95268812D01*
X139446000Y-95249102D01*
X138996727Y-95249102D01*
X139293597Y-95102181D01*
X139657300Y-94686276D01*
X139797233Y-94348418D01*
X139737423Y-94130000D01*
X138580000Y-94130000D01*
X138580000Y-94150000D01*
X138280000Y-94150000D01*
X138280000Y-94130000D01*
X137122577Y-94130000D01*
X137062767Y-94348418D01*
X135890898Y-94348418D01*
X135890898Y-93611582D01*
X137062767Y-93611582D01*
X137122577Y-93830000D01*
X138280000Y-93830000D01*
X138280000Y-92671955D01*
X138580000Y-92671955D01*
X138580000Y-93830000D01*
X139737423Y-93830000D01*
X139797233Y-93611582D01*
X139657300Y-93273724D01*
X139473610Y-93063668D01*
X139655110Y-93063668D01*
X139706257Y-93264187D01*
X140123655Y-93994213D01*
X140788649Y-94508938D01*
X141600000Y-94730000D01*
X142350000Y-94730000D01*
X142350000Y-92730000D01*
X142650000Y-92730000D01*
X142650000Y-94730000D01*
X143400000Y-94730000D01*
X144211351Y-94508938D01*
X144876345Y-93994213D01*
X145293743Y-93264187D01*
X145344890Y-93063668D01*
X145294505Y-92730000D01*
X142650000Y-92730000D01*
X142350000Y-92730000D01*
X142350000Y-92730000D01*
X139705495Y-92730000D01*
X139655110Y-93063668D01*
X139473610Y-93063668D01*
X139293597Y-92857819D01*
X138798420Y-92612756D01*
X138580000Y-92671955D01*
X138280000Y-92671955D01*
X138280000Y-92671955D01*
X138061580Y-92612756D01*
X137566403Y-92857819D01*
X137202700Y-93273724D01*
X137062767Y-93611582D01*
X135890898Y-93611582D01*
X135890898Y-93116400D01*
X135872403Y-93021076D01*
X135817367Y-92937295D01*
X135734284Y-92881212D01*
X135636000Y-92861502D01*
X133604000Y-92861502D01*
X133508676Y-92879997D01*
X133424895Y-92935033D01*
X133368812Y-93018116D01*
X133349102Y-93116400D01*
X122270000Y-93116400D01*
X122270000Y-92206237D01*
X122402566Y-92404636D01*
X122763844Y-92646034D01*
X123190000Y-92730802D01*
X123616156Y-92646034D01*
X123977434Y-92404636D01*
X124183435Y-92096332D01*
X139655110Y-92096332D01*
X139705495Y-92430000D01*
X142350000Y-92430000D01*
X142350000Y-90430000D01*
X142650000Y-90430000D01*
X142650000Y-92430000D01*
X145294505Y-92430000D01*
X145344890Y-92096332D01*
X145293743Y-91895813D01*
X144876345Y-91165787D01*
X144211351Y-90651062D01*
X143400000Y-90430000D01*
X142650000Y-90430000D01*
X142350000Y-90430000D01*
X142350000Y-90430000D01*
X141600000Y-90430000D01*
X140788649Y-90651062D01*
X140123655Y-91165787D01*
X139706257Y-91895813D01*
X139655110Y-92096332D01*
X124183435Y-92096332D01*
X124218832Y-92043358D01*
X124303600Y-91617202D01*
X124303600Y-91262798D01*
X124218832Y-90836642D01*
X123977434Y-90475364D01*
X123801549Y-90357841D01*
X127956336Y-90357841D01*
X128100432Y-90706580D01*
X128367017Y-90973630D01*
X128715504Y-91118335D01*
X129092841Y-91118664D01*
X129405468Y-90989489D01*
X133377643Y-90989489D01*
X133453951Y-91156121D01*
X133871748Y-91284281D01*
X134306785Y-91242800D01*
X134516049Y-91156121D01*
X134592357Y-90989489D01*
X133985000Y-90382132D01*
X133377643Y-90989489D01*
X129405468Y-90989489D01*
X129441580Y-90974568D01*
X129708630Y-90707983D01*
X129853335Y-90359496D01*
X129853598Y-90056748D01*
X132870719Y-90056748D01*
X132912200Y-90491785D01*
X132998879Y-90701049D01*
X133165511Y-90777357D01*
X133772868Y-90170000D01*
X134197132Y-90170000D01*
X134804489Y-90777357D01*
X134971121Y-90701049D01*
X135099281Y-90283252D01*
X135057800Y-89848215D01*
X134971121Y-89638951D01*
X134804489Y-89562643D01*
X134197132Y-90170000D01*
X133772868Y-90170000D01*
X133772868Y-90170000D01*
X133165511Y-89562643D01*
X132998879Y-89638951D01*
X132870719Y-90056748D01*
X129853598Y-90056748D01*
X129853664Y-89982159D01*
X129709568Y-89633420D01*
X129442983Y-89366370D01*
X129404791Y-89350511D01*
X133377643Y-89350511D01*
X133985000Y-89957868D01*
X134592357Y-89350511D01*
X134516049Y-89183879D01*
X134098252Y-89055719D01*
X133663215Y-89097200D01*
X133453951Y-89183879D01*
X133377643Y-89350511D01*
X129404791Y-89350511D01*
X129094496Y-89221665D01*
X128717159Y-89221336D01*
X128368420Y-89365432D01*
X128101370Y-89632017D01*
X127956665Y-89980504D01*
X127956336Y-90357841D01*
X123801549Y-90357841D01*
X123616156Y-90233966D01*
X123190000Y-90149198D01*
X122763844Y-90233966D01*
X122402566Y-90475364D01*
X122270000Y-90673763D01*
X122270000Y-89535000D01*
X122243358Y-89401061D01*
X122220178Y-89366370D01*
X122167488Y-89287513D01*
X121635000Y-88755026D01*
X121635000Y-87500000D01*
X140205920Y-87500000D01*
X140320101Y-88074025D01*
X140645260Y-88560660D01*
X141131895Y-88885819D01*
X141705920Y-89000000D01*
X143294080Y-89000000D01*
X143868105Y-88885819D01*
X144354740Y-88560660D01*
X144679899Y-88074025D01*
X144764243Y-87650000D01*
X145430000Y-87650000D01*
X145430000Y-88400000D01*
X145651062Y-89211351D01*
X146165787Y-89876345D01*
X146895813Y-90293743D01*
X147096332Y-90344890D01*
X147430000Y-90294505D01*
X147430000Y-87650000D01*
X145430000Y-87650000D01*
X144764243Y-87650000D01*
X144794080Y-87500000D01*
X144679899Y-86925975D01*
X144462090Y-86600000D01*
X145430000Y-86600000D01*
X145430000Y-87350000D01*
X147430000Y-87350000D01*
X147430000Y-84705495D01*
X147096332Y-84655110D01*
X146895813Y-84706257D01*
X146165787Y-85123655D01*
X145651062Y-85788649D01*
X145430000Y-86600000D01*
X144462090Y-86600000D01*
X144354740Y-86439340D01*
X143868105Y-86114181D01*
X143294080Y-86000000D01*
X141705920Y-86000000D01*
X141131895Y-86114181D01*
X140645260Y-86439340D01*
X140320101Y-86925975D01*
X140205920Y-87500000D01*
X121635000Y-87500000D01*
X121635000Y-82737841D01*
X127956336Y-82737841D01*
X128100432Y-83086580D01*
X128367017Y-83353630D01*
X128715504Y-83498335D01*
X129092841Y-83498664D01*
X129405468Y-83369489D01*
X133377643Y-83369489D01*
X133453951Y-83536121D01*
X133871748Y-83664281D01*
X134306785Y-83622800D01*
X134516049Y-83536121D01*
X134592357Y-83369489D01*
X133985000Y-82762132D01*
X133377643Y-83369489D01*
X129405468Y-83369489D01*
X129441580Y-83354568D01*
X129708630Y-83087983D01*
X129853335Y-82739496D01*
X129853598Y-82436748D01*
X132870719Y-82436748D01*
X132912200Y-82871785D01*
X132998879Y-83081049D01*
X133165511Y-83157357D01*
X133772868Y-82550000D01*
X134197132Y-82550000D01*
X134804489Y-83157357D01*
X134971121Y-83081049D01*
X135025532Y-82903668D01*
X139655110Y-82903668D01*
X139706257Y-83104187D01*
X140123655Y-83834213D01*
X140788649Y-84348938D01*
X141600000Y-84570000D01*
X142350000Y-84570000D01*
X142350000Y-82570000D01*
X142650000Y-82570000D01*
X142650000Y-84570000D01*
X143400000Y-84570000D01*
X144211351Y-84348938D01*
X144876345Y-83834213D01*
X145293743Y-83104187D01*
X145344890Y-82903668D01*
X145294505Y-82570000D01*
X142650000Y-82570000D01*
X142350000Y-82570000D01*
X142350000Y-82570000D01*
X139705495Y-82570000D01*
X139655110Y-82903668D01*
X135025532Y-82903668D01*
X135099281Y-82663252D01*
X135057800Y-82228215D01*
X134971121Y-82018951D01*
X134804489Y-81942643D01*
X134197132Y-82550000D01*
X133772868Y-82550000D01*
X133772868Y-82550000D01*
X133165511Y-81942643D01*
X132998879Y-82018951D01*
X132870719Y-82436748D01*
X129853598Y-82436748D01*
X129853664Y-82362159D01*
X129709568Y-82013420D01*
X129442983Y-81746370D01*
X129404791Y-81730511D01*
X133377643Y-81730511D01*
X133985000Y-82337868D01*
X134386536Y-81936332D01*
X139655110Y-81936332D01*
X139705495Y-82270000D01*
X142350000Y-82270000D01*
X142350000Y-80270000D01*
X142650000Y-80270000D01*
X142650000Y-82270000D01*
X145294505Y-82270000D01*
X145344890Y-81936332D01*
X145293743Y-81735813D01*
X144876345Y-81005787D01*
X144211351Y-80491062D01*
X143400000Y-80270000D01*
X142650000Y-80270000D01*
X142350000Y-80270000D01*
X142350000Y-80270000D01*
X141600000Y-80270000D01*
X140788649Y-80491062D01*
X140123655Y-81005787D01*
X139706257Y-81735813D01*
X139655110Y-81936332D01*
X134386536Y-81936332D01*
X134592357Y-81730511D01*
X134516049Y-81563879D01*
X134098252Y-81435719D01*
X133663215Y-81477200D01*
X133453951Y-81563879D01*
X133377643Y-81730511D01*
X129404791Y-81730511D01*
X129094496Y-81601665D01*
X128717159Y-81601336D01*
X128368420Y-81745432D01*
X128101370Y-82012017D01*
X127956665Y-82360504D01*
X127956336Y-82737841D01*
X121635000Y-82737841D01*
X121635000Y-77937447D01*
X142628239Y-77937447D01*
X143028310Y-78394320D01*
X144477346Y-78890475D01*
X146005951Y-78794341D01*
X146971690Y-78394320D01*
X147371761Y-77937447D01*
X145000000Y-75565685D01*
X142628239Y-77937447D01*
X121635000Y-77937447D01*
X121635000Y-77192101D01*
X121708633Y-77118597D01*
X121784913Y-76934893D01*
X121785087Y-76735980D01*
X121709127Y-76552143D01*
X121568597Y-76411367D01*
X121384893Y-76335087D01*
X121185980Y-76334913D01*
X121002143Y-76410873D01*
X121000000Y-76413012D01*
X121000000Y-74652101D01*
X121073633Y-74578597D01*
X121115675Y-74477346D01*
X141109525Y-74477346D01*
X141205659Y-76005951D01*
X141605680Y-76971690D01*
X142062553Y-77371761D01*
X144434315Y-75000000D01*
X145565685Y-75000000D01*
X147937447Y-77371761D01*
X148394320Y-76971690D01*
X148890475Y-75522654D01*
X148794341Y-73994049D01*
X148394320Y-73028310D01*
X147937447Y-72628239D01*
X145565685Y-75000000D01*
X144434315Y-75000000D01*
X144434315Y-75000000D01*
X142062553Y-72628239D01*
X141605680Y-73028310D01*
X141109525Y-74477346D01*
X121115675Y-74477346D01*
X121149913Y-74394893D01*
X121150087Y-74195980D01*
X121074127Y-74012143D01*
X120933597Y-73871367D01*
X120749893Y-73795087D01*
X120550980Y-73794913D01*
X120367143Y-73870873D01*
X120226367Y-74011403D01*
X120150087Y-74195107D01*
X120149913Y-74394020D01*
X120225873Y-74577857D01*
X120300000Y-74652114D01*
X120300000Y-89177899D01*
X120226367Y-89251403D01*
X120150087Y-89435107D01*
X120149913Y-89634020D01*
X120225873Y-89817857D01*
X120366403Y-89958633D01*
X120550107Y-90034913D01*
X120749020Y-90035087D01*
X120932857Y-89959127D01*
X121073633Y-89818597D01*
X121149913Y-89634893D01*
X121150087Y-89435980D01*
X121074127Y-89252143D01*
X121000000Y-89177886D01*
X121000000Y-89091345D01*
X121037513Y-89147487D01*
X121570000Y-89679975D01*
X121570000Y-90673763D01*
X121437434Y-90475364D01*
X121076156Y-90233966D01*
X120650000Y-90149198D01*
X120223844Y-90233966D01*
X119862566Y-90475364D01*
X119621168Y-90836642D01*
X119536400Y-91262798D01*
X119228498Y-91262798D01*
X119228498Y-90424000D01*
X119210003Y-90328676D01*
X119154967Y-90244895D01*
X119071884Y-90188812D01*
X118973600Y-90169102D01*
X117246400Y-90169102D01*
X117151076Y-90187597D01*
X117067295Y-90242633D01*
X117011212Y-90325716D01*
X116991502Y-90424000D01*
X112470563Y-90424000D01*
X112186156Y-90233966D01*
X111760000Y-90149198D01*
X111333844Y-90233966D01*
X110972566Y-90475364D01*
X110731168Y-90836642D01*
X110646400Y-91262798D01*
X110333600Y-91262798D01*
X110333600Y-91262798D01*
X110248832Y-90836642D01*
X110007434Y-90475364D01*
X109646156Y-90233966D01*
X109220000Y-90149198D01*
X108793844Y-90233966D01*
X108432566Y-90475364D01*
X108300000Y-90673763D01*
X108300000Y-89634020D01*
X108719913Y-89634020D01*
X108795873Y-89817857D01*
X108936403Y-89958633D01*
X109120107Y-90034913D01*
X109319020Y-90035087D01*
X109502857Y-89959127D01*
X109577114Y-89885000D01*
X111125000Y-89885000D01*
X111258939Y-89858358D01*
X111372487Y-89782487D01*
X112642487Y-88512488D01*
X112642489Y-88512485D01*
X117469978Y-83684996D01*
X117574020Y-83685087D01*
X117757857Y-83609127D01*
X117898633Y-83468597D01*
X117974913Y-83284893D01*
X117975087Y-83085980D01*
X117899127Y-82902143D01*
X117758597Y-82761367D01*
X117574893Y-82685087D01*
X117375980Y-82684913D01*
X117192143Y-82760873D01*
X117051367Y-82901403D01*
X116975087Y-83085107D01*
X116974995Y-83190031D01*
X112147515Y-88017511D01*
X112147512Y-88017513D01*
X110980026Y-89185000D01*
X109577101Y-89185000D01*
X109503597Y-89111367D01*
X109319893Y-89035087D01*
X109120980Y-89034913D01*
X108937143Y-89110873D01*
X108796367Y-89251403D01*
X108720087Y-89435107D01*
X108719913Y-89634020D01*
X108300000Y-89634020D01*
X108300000Y-84586237D01*
X108432566Y-84784636D01*
X108793844Y-85026034D01*
X109220000Y-85110802D01*
X109646156Y-85026034D01*
X110007434Y-84784636D01*
X110248832Y-84423358D01*
X110333600Y-83997202D01*
X110333600Y-83642798D01*
X110646400Y-83642798D01*
X110646400Y-83997202D01*
X110731168Y-84423358D01*
X110972566Y-84784636D01*
X111333844Y-85026034D01*
X111760000Y-85110802D01*
X112186156Y-85026034D01*
X112547434Y-84784636D01*
X112788832Y-84423358D01*
X112873600Y-83997202D01*
X112873600Y-83642798D01*
X112788832Y-83216642D01*
X112547434Y-82855364D01*
X112186156Y-82613966D01*
X111760000Y-82529198D01*
X111333844Y-82613966D01*
X110972566Y-82855364D01*
X110731168Y-83216642D01*
X110646400Y-83642798D01*
X110333600Y-83642798D01*
X110333600Y-83642798D01*
X110248832Y-83216642D01*
X110007434Y-82855364D01*
X109646156Y-82613966D01*
X109220000Y-82529198D01*
X108793844Y-82613966D01*
X108432566Y-82855364D01*
X108300000Y-83053763D01*
X108300000Y-82694974D01*
X108729975Y-82265000D01*
X110490000Y-82265000D01*
X110623939Y-82238358D01*
X110737487Y-82162487D01*
X111372488Y-81527487D01*
X111448358Y-81413939D01*
X111475000Y-81280000D01*
X111475000Y-80168365D01*
X111933045Y-79710320D01*
X115957848Y-79710320D01*
X116046007Y-79798633D01*
X116229711Y-79874913D01*
X116428624Y-79875087D01*
X116612461Y-79799127D01*
X116753237Y-79658597D01*
X116829517Y-79474893D01*
X116829691Y-79275980D01*
X116753731Y-79092143D01*
X116613201Y-78951367D01*
X116429497Y-78875087D01*
X116230584Y-78874913D01*
X116046747Y-78950873D01*
X115987196Y-79010320D01*
X111788071Y-79010320D01*
X111654132Y-79036962D01*
X111540584Y-79112833D01*
X110877513Y-79775904D01*
X110801642Y-79889452D01*
X110775000Y-80023391D01*
X110775000Y-81135025D01*
X110345026Y-81565000D01*
X108585000Y-81565000D01*
X108451061Y-81591642D01*
X108337513Y-81667512D01*
X107702513Y-82302513D01*
X107626642Y-82416061D01*
X107600000Y-82550000D01*
X107600000Y-82560413D01*
X107543600Y-82549102D01*
X105816400Y-82549102D01*
X105721076Y-82567597D01*
X105637295Y-82622633D01*
X105581212Y-82705716D01*
X105561502Y-82804000D01*
X100300000Y-82804000D01*
X100300000Y-77937447D01*
X102628239Y-77937447D01*
X103028310Y-78394320D01*
X104477346Y-78890475D01*
X106005951Y-78794341D01*
X106971690Y-78394320D01*
X107371761Y-77937447D01*
X105000000Y-75565685D01*
X102628239Y-77937447D01*
X100300000Y-77937447D01*
X100300000Y-74477346D01*
X101109525Y-74477346D01*
X101205659Y-76005951D01*
X101605680Y-76971690D01*
X102062553Y-77371761D01*
X104434315Y-75000000D01*
X105565685Y-75000000D01*
X107937447Y-77371761D01*
X108394320Y-76971690D01*
X108890475Y-75522654D01*
X108794341Y-73994049D01*
X108394320Y-73028310D01*
X107937447Y-72628239D01*
X105565685Y-75000000D01*
X104434315Y-75000000D01*
X104434315Y-75000000D01*
X102062553Y-72628239D01*
X101605680Y-73028310D01*
X101109525Y-74477346D01*
X100300000Y-74477346D01*
X100300000Y-72062553D01*
X102628239Y-72062553D01*
X105000000Y-74434315D01*
X107371761Y-72062553D01*
X142628239Y-72062553D01*
X145000000Y-74434315D01*
X147371761Y-72062553D01*
X146971690Y-71605680D01*
X145522654Y-71109525D01*
X143994049Y-71205659D01*
X143028310Y-71605680D01*
X142628239Y-72062553D01*
X107371761Y-72062553D01*
X107371761Y-72062553D01*
X106971690Y-71605680D01*
X105522654Y-71109525D01*
X103994049Y-71205659D01*
X103028310Y-71605680D01*
X102628239Y-72062553D01*
X100300000Y-72062553D01*
X100300000Y-70300000D01*
X149700000Y-70300000D01*
X149700000Y-86489893D01*
X149700000Y-86489893D01*
G37*
X149700000Y-86489893D02*
X149508938Y-85788649D01*
X148994213Y-85123655D01*
X148264187Y-84706257D01*
X148063668Y-84655110D01*
X147730000Y-84705495D01*
X147730000Y-87350000D01*
X147750000Y-87350000D01*
X147750000Y-87650000D01*
X147730000Y-87650000D01*
X147730000Y-90294505D01*
X148063668Y-90344890D01*
X148264187Y-90293743D01*
X148994213Y-89876345D01*
X149508938Y-89211351D01*
X149700000Y-88510107D01*
X149700000Y-131489893D01*
X149508938Y-130788649D01*
X148994213Y-130123655D01*
X148264187Y-129706257D01*
X148063668Y-129655110D01*
X147730000Y-129705495D01*
X147730000Y-132350000D01*
X147750000Y-132350000D01*
X147750000Y-132650000D01*
X147730000Y-132650000D01*
X147730000Y-135294505D01*
X148063668Y-135344890D01*
X148264187Y-135293743D01*
X148994213Y-134876345D01*
X149508938Y-134211351D01*
X149700000Y-133510107D01*
X149700000Y-149700000D01*
X100300000Y-149700000D01*
X100300000Y-147937447D01*
X102628239Y-147937447D01*
X103028310Y-148394320D01*
X104477346Y-148890475D01*
X106005951Y-148794341D01*
X106971690Y-148394320D01*
X107371761Y-147937447D01*
X142628239Y-147937447D01*
X143028310Y-148394320D01*
X144477346Y-148890475D01*
X146005951Y-148794341D01*
X146971690Y-148394320D01*
X147371761Y-147937447D01*
X145000000Y-145565685D01*
X142628239Y-147937447D01*
X107371761Y-147937447D01*
X107371761Y-147937447D01*
X105000000Y-145565685D01*
X102628239Y-147937447D01*
X100300000Y-147937447D01*
X100300000Y-144477346D01*
X101109525Y-144477346D01*
X101205659Y-146005951D01*
X101605680Y-146971690D01*
X102062553Y-147371761D01*
X104434315Y-145000000D01*
X105565685Y-145000000D01*
X107937447Y-147371761D01*
X108394320Y-146971690D01*
X108591976Y-146394428D01*
X111814233Y-146394428D01*
X112038585Y-146833464D01*
X112413871Y-147153224D01*
X112685574Y-147265753D01*
X112880000Y-147203891D01*
X112880000Y-146200000D01*
X113180000Y-146200000D01*
X113180000Y-147203891D01*
X113374426Y-147265753D01*
X113646129Y-147153224D01*
X114021415Y-146833464D01*
X114245767Y-146394428D01*
X114354233Y-146394428D01*
X114578585Y-146833464D01*
X114953871Y-147153224D01*
X115225574Y-147265753D01*
X115420000Y-147203891D01*
X115420000Y-146200000D01*
X115720000Y-146200000D01*
X115720000Y-147203891D01*
X115914426Y-147265753D01*
X116186129Y-147153224D01*
X116561415Y-146833464D01*
X116785767Y-146394428D01*
X116894233Y-146394428D01*
X117118585Y-146833464D01*
X117493871Y-147153224D01*
X117765574Y-147265753D01*
X117960000Y-147203891D01*
X117960000Y-146200000D01*
X118260000Y-146200000D01*
X118260000Y-147203891D01*
X118454426Y-147265753D01*
X118726129Y-147153224D01*
X119101415Y-146833464D01*
X119325767Y-146394428D01*
X119434233Y-146394428D01*
X119658585Y-146833464D01*
X120033871Y-147153224D01*
X120305574Y-147265753D01*
X120500000Y-147203891D01*
X120500000Y-146200000D01*
X120800000Y-146200000D01*
X120800000Y-147203891D01*
X120994426Y-147265753D01*
X121266129Y-147153224D01*
X121641415Y-146833464D01*
X121865767Y-146394428D01*
X121974233Y-146394428D01*
X122198585Y-146833464D01*
X122573871Y-147153224D01*
X122845574Y-147265753D01*
X123040000Y-147203891D01*
X123040000Y-146200000D01*
X123340000Y-146200000D01*
X123340000Y-147203891D01*
X123534426Y-147265753D01*
X123806129Y-147153224D01*
X124181415Y-146833464D01*
X124405767Y-146394428D01*
X124514233Y-146394428D01*
X124738585Y-146833464D01*
X125113871Y-147153224D01*
X125385574Y-147265753D01*
X125580000Y-147203891D01*
X125580000Y-146200000D01*
X125880000Y-146200000D01*
X125880000Y-147203891D01*
X126074426Y-147265753D01*
X126346129Y-147153224D01*
X126721415Y-146833464D01*
X126945767Y-146394428D01*
X127054233Y-146394428D01*
X127278585Y-146833464D01*
X127653871Y-147153224D01*
X127925574Y-147265753D01*
X128120000Y-147203891D01*
X128120000Y-146200000D01*
X128420000Y-146200000D01*
X128420000Y-147203891D01*
X128614426Y-147265753D01*
X128886129Y-147153224D01*
X129261415Y-146833464D01*
X129485767Y-146394428D01*
X129594233Y-146394428D01*
X129818585Y-146833464D01*
X130193871Y-147153224D01*
X130465574Y-147265753D01*
X130660000Y-147203891D01*
X130660000Y-146200000D01*
X130960000Y-146200000D01*
X130960000Y-147203891D01*
X131154426Y-147265753D01*
X131426129Y-147153224D01*
X131801415Y-146833464D01*
X132025767Y-146394428D01*
X131964679Y-146200000D01*
X130960000Y-146200000D01*
X130660000Y-146200000D01*
X130660000Y-146200000D01*
X129655321Y-146200000D01*
X129594233Y-146394428D01*
X129485767Y-146394428D01*
X129485767Y-146394428D01*
X129424679Y-146200000D01*
X128420000Y-146200000D01*
X128120000Y-146200000D01*
X128120000Y-146200000D01*
X127115321Y-146200000D01*
X127054233Y-146394428D01*
X126945767Y-146394428D01*
X126945767Y-146394428D01*
X126884679Y-146200000D01*
X125880000Y-146200000D01*
X125580000Y-146200000D01*
X125580000Y-146200000D01*
X124575321Y-146200000D01*
X124514233Y-146394428D01*
X124405767Y-146394428D01*
X124405767Y-146394428D01*
X124344679Y-146200000D01*
X123340000Y-146200000D01*
X123040000Y-146200000D01*
X123040000Y-146200000D01*
X122035321Y-146200000D01*
X121974233Y-146394428D01*
X121865767Y-146394428D01*
X121865767Y-146394428D01*
X121804679Y-146200000D01*
X120800000Y-146200000D01*
X120500000Y-146200000D01*
X120500000Y-146200000D01*
X119495321Y-146200000D01*
X119434233Y-146394428D01*
X119325767Y-146394428D01*
X119325767Y-146394428D01*
X119264679Y-146200000D01*
X118260000Y-146200000D01*
X117960000Y-146200000D01*
X117960000Y-146200000D01*
X116955321Y-146200000D01*
X116894233Y-146394428D01*
X116785767Y-146394428D01*
X116785767Y-146394428D01*
X116724679Y-146200000D01*
X115720000Y-146200000D01*
X115420000Y-146200000D01*
X115420000Y-146200000D01*
X114415321Y-146200000D01*
X114354233Y-146394428D01*
X114245767Y-146394428D01*
X114245767Y-146394428D01*
X114184679Y-146200000D01*
X113180000Y-146200000D01*
X112880000Y-146200000D01*
X112880000Y-146200000D01*
X111875321Y-146200000D01*
X111814233Y-146394428D01*
X108591976Y-146394428D01*
X108827843Y-145705572D01*
X111814233Y-145705572D01*
X111875321Y-145900000D01*
X112880000Y-145900000D01*
X112880000Y-144896109D01*
X113180000Y-144896109D01*
X113180000Y-145900000D01*
X114184679Y-145900000D01*
X114245767Y-145705572D01*
X114354233Y-145705572D01*
X114415321Y-145900000D01*
X115420000Y-145900000D01*
X115420000Y-144896109D01*
X115720000Y-144896109D01*
X115720000Y-145900000D01*
X116724679Y-145900000D01*
X116785767Y-145705572D01*
X116894233Y-145705572D01*
X116955321Y-145900000D01*
X117960000Y-145900000D01*
X117960000Y-144896109D01*
X118260000Y-144896109D01*
X118260000Y-145900000D01*
X119264679Y-145900000D01*
X119325767Y-145705572D01*
X119434233Y-145705572D01*
X119495321Y-145900000D01*
X120500000Y-145900000D01*
X120500000Y-144896109D01*
X120800000Y-144896109D01*
X120800000Y-145900000D01*
X121804679Y-145900000D01*
X121865767Y-145705572D01*
X121974233Y-145705572D01*
X122035321Y-145900000D01*
X123040000Y-145900000D01*
X123040000Y-144896109D01*
X123340000Y-144896109D01*
X123340000Y-145900000D01*
X124344679Y-145900000D01*
X124405767Y-145705572D01*
X124514233Y-145705572D01*
X124575321Y-145900000D01*
X125580000Y-145900000D01*
X125580000Y-144896109D01*
X125880000Y-144896109D01*
X125880000Y-145900000D01*
X126884679Y-145900000D01*
X126945767Y-145705572D01*
X127054233Y-145705572D01*
X127115321Y-145900000D01*
X128120000Y-145900000D01*
X128120000Y-144896109D01*
X128420000Y-144896109D01*
X128420000Y-145900000D01*
X129424679Y-145900000D01*
X129485767Y-145705572D01*
X129594233Y-145705572D01*
X129655321Y-145900000D01*
X130660000Y-145900000D01*
X130660000Y-144896109D01*
X130960000Y-144896109D01*
X130960000Y-145900000D01*
X131964679Y-145900000D01*
X132025767Y-145705572D01*
X131801415Y-145266536D01*
X131426129Y-144946776D01*
X131154426Y-144834247D01*
X130960000Y-144896109D01*
X130660000Y-144896109D01*
X130660000Y-144896109D01*
X130465574Y-144834247D01*
X130193871Y-144946776D01*
X129818585Y-145266536D01*
X129594233Y-145705572D01*
X129485767Y-145705572D01*
X129485767Y-145705572D01*
X129261415Y-145266536D01*
X128886129Y-144946776D01*
X128614426Y-144834247D01*
X128420000Y-144896109D01*
X128120000Y-144896109D01*
X128120000Y-144896109D01*
X127925574Y-144834247D01*
X127653871Y-144946776D01*
X127278585Y-145266536D01*
X127054233Y-145705572D01*
X126945767Y-145705572D01*
X126945767Y-145705572D01*
X126721415Y-145266536D01*
X126346129Y-144946776D01*
X126074426Y-144834247D01*
X125880000Y-144896109D01*
X125580000Y-144896109D01*
X125580000Y-144896109D01*
X125385574Y-144834247D01*
X125113871Y-144946776D01*
X124738585Y-145266536D01*
X124514233Y-145705572D01*
X124405767Y-145705572D01*
X124405767Y-145705572D01*
X124181415Y-145266536D01*
X123806129Y-144946776D01*
X123534426Y-144834247D01*
X123340000Y-144896109D01*
X123040000Y-144896109D01*
X123040000Y-144896109D01*
X122845574Y-144834247D01*
X122573871Y-144946776D01*
X122198585Y-145266536D01*
X121974233Y-145705572D01*
X121865767Y-145705572D01*
X121865767Y-145705572D01*
X121641415Y-145266536D01*
X121266129Y-144946776D01*
X120994426Y-144834247D01*
X120800000Y-144896109D01*
X120500000Y-144896109D01*
X120500000Y-144896109D01*
X120305574Y-144834247D01*
X120033871Y-144946776D01*
X119658585Y-145266536D01*
X119434233Y-145705572D01*
X119325767Y-145705572D01*
X119325767Y-145705572D01*
X119101415Y-145266536D01*
X118726129Y-144946776D01*
X118454426Y-144834247D01*
X118260000Y-144896109D01*
X117960000Y-144896109D01*
X117960000Y-144896109D01*
X117765574Y-144834247D01*
X117493871Y-144946776D01*
X117118585Y-145266536D01*
X116894233Y-145705572D01*
X116785767Y-145705572D01*
X116785767Y-145705572D01*
X116561415Y-145266536D01*
X116186129Y-144946776D01*
X115914426Y-144834247D01*
X115720000Y-144896109D01*
X115420000Y-144896109D01*
X115420000Y-144896109D01*
X115225574Y-144834247D01*
X114953871Y-144946776D01*
X114578585Y-145266536D01*
X114354233Y-145705572D01*
X114245767Y-145705572D01*
X114245767Y-145705572D01*
X114021415Y-145266536D01*
X113646129Y-144946776D01*
X113374426Y-144834247D01*
X113180000Y-144896109D01*
X112880000Y-144896109D01*
X112880000Y-144896109D01*
X112685574Y-144834247D01*
X112413871Y-144946776D01*
X112038585Y-145266536D01*
X111814233Y-145705572D01*
X108827843Y-145705572D01*
X108890475Y-145522654D01*
X108794341Y-143994049D01*
X108584806Y-143488183D01*
X111916400Y-143488183D01*
X111916400Y-143531817D01*
X112001168Y-143957973D01*
X112242566Y-144319251D01*
X112603844Y-144560649D01*
X113030000Y-144645417D01*
X113456156Y-144560649D01*
X113817434Y-144319251D01*
X114058832Y-143957973D01*
X114143600Y-143531817D01*
X114143600Y-143488183D01*
X114456400Y-143488183D01*
X114456400Y-143531817D01*
X114541168Y-143957973D01*
X114782566Y-144319251D01*
X115143844Y-144560649D01*
X115570000Y-144645417D01*
X115996156Y-144560649D01*
X116357434Y-144319251D01*
X116598832Y-143957973D01*
X116683600Y-143531817D01*
X116683600Y-143488183D01*
X116996400Y-143488183D01*
X116996400Y-143531817D01*
X117081168Y-143957973D01*
X117322566Y-144319251D01*
X117683844Y-144560649D01*
X118110000Y-144645417D01*
X118536156Y-144560649D01*
X118897434Y-144319251D01*
X119138832Y-143957973D01*
X119223600Y-143531817D01*
X119223600Y-143488183D01*
X119536400Y-143488183D01*
X119536400Y-143531817D01*
X119621168Y-143957973D01*
X119862566Y-144319251D01*
X120223844Y-144560649D01*
X120650000Y-144645417D01*
X121076156Y-144560649D01*
X121437434Y-144319251D01*
X121678832Y-143957973D01*
X121763600Y-143531817D01*
X121763600Y-143488183D01*
X122076400Y-143488183D01*
X122076400Y-143531817D01*
X122161168Y-143957973D01*
X122402566Y-144319251D01*
X122763844Y-144560649D01*
X123190000Y-144645417D01*
X123616156Y-144560649D01*
X123977434Y-144319251D01*
X124218832Y-143957973D01*
X124303600Y-143531817D01*
X124303600Y-143488183D01*
X124616400Y-143488183D01*
X124616400Y-143531817D01*
X124701168Y-143957973D01*
X124942566Y-144319251D01*
X125303844Y-144560649D01*
X125730000Y-144645417D01*
X126156156Y-144560649D01*
X126517434Y-144319251D01*
X126758832Y-143957973D01*
X126843600Y-143531817D01*
X126843600Y-143488183D01*
X127156400Y-143488183D01*
X127156400Y-143531817D01*
X127241168Y-143957973D01*
X127482566Y-144319251D01*
X127843844Y-144560649D01*
X128270000Y-144645417D01*
X128696156Y-144560649D01*
X129057434Y-144319251D01*
X129298832Y-143957973D01*
X129383600Y-143531817D01*
X129383600Y-143488183D01*
X129298832Y-143062027D01*
X129057434Y-142700749D01*
X128976095Y-142646400D01*
X129691502Y-142646400D01*
X129691502Y-144373600D01*
X129709997Y-144468924D01*
X129765033Y-144552705D01*
X129848116Y-144608788D01*
X129946400Y-144628498D01*
X131673600Y-144628498D01*
X131768924Y-144610003D01*
X131852705Y-144554967D01*
X131905101Y-144477346D01*
X141109525Y-144477346D01*
X141205659Y-146005951D01*
X141605680Y-146971690D01*
X142062553Y-147371761D01*
X144434315Y-145000000D01*
X145565685Y-145000000D01*
X147937447Y-147371761D01*
X148394320Y-146971690D01*
X148890475Y-145522654D01*
X148794341Y-143994049D01*
X148394320Y-143028310D01*
X147937447Y-142628239D01*
X145565685Y-145000000D01*
X144434315Y-145000000D01*
X144434315Y-145000000D01*
X142062553Y-142628239D01*
X141605680Y-143028310D01*
X141109525Y-144477346D01*
X131905101Y-144477346D01*
X131908788Y-144471884D01*
X131928498Y-144373600D01*
X131928498Y-142646400D01*
X131910003Y-142551076D01*
X131854967Y-142467295D01*
X131771884Y-142411212D01*
X131673600Y-142391502D01*
X129946400Y-142391502D01*
X129851076Y-142409997D01*
X129767295Y-142465033D01*
X129711212Y-142548116D01*
X129691502Y-142646400D01*
X128976095Y-142646400D01*
X128696156Y-142459351D01*
X128270000Y-142374583D01*
X127843844Y-142459351D01*
X127482566Y-142700749D01*
X127241168Y-143062027D01*
X127156400Y-143488183D01*
X126843600Y-143488183D01*
X126843600Y-143488183D01*
X126758832Y-143062027D01*
X126517434Y-142700749D01*
X126156156Y-142459351D01*
X125730000Y-142374583D01*
X125303844Y-142459351D01*
X124942566Y-142700749D01*
X124701168Y-143062027D01*
X124616400Y-143488183D01*
X124303600Y-143488183D01*
X124303600Y-143488183D01*
X124218832Y-143062027D01*
X123977434Y-142700749D01*
X123616156Y-142459351D01*
X123190000Y-142374583D01*
X122763844Y-142459351D01*
X122402566Y-142700749D01*
X122161168Y-143062027D01*
X122076400Y-143488183D01*
X121763600Y-143488183D01*
X121763600Y-143488183D01*
X121678832Y-143062027D01*
X121437434Y-142700749D01*
X121076156Y-142459351D01*
X120650000Y-142374583D01*
X120223844Y-142459351D01*
X119862566Y-142700749D01*
X119621168Y-143062027D01*
X119536400Y-143488183D01*
X119223600Y-143488183D01*
X119223600Y-143488183D01*
X119138832Y-143062027D01*
X118897434Y-142700749D01*
X118536156Y-142459351D01*
X118110000Y-142374583D01*
X117683844Y-142459351D01*
X117322566Y-142700749D01*
X117081168Y-143062027D01*
X116996400Y-143488183D01*
X116683600Y-143488183D01*
X116683600Y-143488183D01*
X116598832Y-143062027D01*
X116357434Y-142700749D01*
X115996156Y-142459351D01*
X115570000Y-142374583D01*
X115143844Y-142459351D01*
X114782566Y-142700749D01*
X114541168Y-143062027D01*
X114456400Y-143488183D01*
X114143600Y-143488183D01*
X114143600Y-143488183D01*
X114058832Y-143062027D01*
X113817434Y-142700749D01*
X113456156Y-142459351D01*
X113030000Y-142374583D01*
X112603844Y-142459351D01*
X112242566Y-142700749D01*
X112001168Y-143062027D01*
X111916400Y-143488183D01*
X108584806Y-143488183D01*
X108394320Y-143028310D01*
X107937447Y-142628239D01*
X105565685Y-145000000D01*
X104434315Y-145000000D01*
X104434315Y-145000000D01*
X102062553Y-142628239D01*
X101605680Y-143028310D01*
X101109525Y-144477346D01*
X100300000Y-144477346D01*
X100300000Y-142062553D01*
X102628239Y-142062553D01*
X105000000Y-144434315D01*
X107371761Y-142062553D01*
X142628239Y-142062553D01*
X145000000Y-144434315D01*
X147371761Y-142062553D01*
X146971690Y-141605680D01*
X145522654Y-141109525D01*
X143994049Y-141205659D01*
X143028310Y-141605680D01*
X142628239Y-142062553D01*
X107371761Y-142062553D01*
X107371761Y-142062553D01*
X106971690Y-141605680D01*
X105522654Y-141109525D01*
X103994049Y-141205659D01*
X103028310Y-141605680D01*
X102628239Y-142062553D01*
X100300000Y-142062553D01*
X100300000Y-139287421D01*
X103494711Y-139287421D01*
X103577475Y-139459444D01*
X104014247Y-139596351D01*
X104470163Y-139555692D01*
X104702525Y-139459444D01*
X104785289Y-139287421D01*
X104140000Y-138642132D01*
X103494711Y-139287421D01*
X100300000Y-139287421D01*
X100300000Y-138304247D01*
X102973649Y-138304247D01*
X103014308Y-138760163D01*
X103110556Y-138992525D01*
X103282579Y-139075289D01*
X103927868Y-138430000D01*
X104352132Y-138430000D01*
X104997421Y-139075289D01*
X105169444Y-138992525D01*
X105283657Y-138628152D01*
X105679257Y-138628152D01*
X105831264Y-138996037D01*
X106112483Y-139277747D01*
X106480101Y-139430396D01*
X106878152Y-139430743D01*
X107246037Y-139278736D01*
X107527747Y-138997517D01*
X107680396Y-138629899D01*
X107680743Y-138231848D01*
X107611253Y-138063668D01*
X139655110Y-138063668D01*
X139706257Y-138264187D01*
X140123655Y-138994213D01*
X140788649Y-139508938D01*
X141600000Y-139730000D01*
X142350000Y-139730000D01*
X142350000Y-137730000D01*
X142650000Y-137730000D01*
X142650000Y-139730000D01*
X143400000Y-139730000D01*
X144211351Y-139508938D01*
X144876345Y-138994213D01*
X145293743Y-138264187D01*
X145344890Y-138063668D01*
X145294505Y-137730000D01*
X142650000Y-137730000D01*
X142350000Y-137730000D01*
X142350000Y-137730000D01*
X139705495Y-137730000D01*
X139655110Y-138063668D01*
X107611253Y-138063668D01*
X107528736Y-137863963D01*
X107247517Y-137582253D01*
X106879899Y-137429604D01*
X106481848Y-137429257D01*
X106113963Y-137581264D01*
X105832253Y-137862483D01*
X105679604Y-138230101D01*
X105679257Y-138628152D01*
X105283657Y-138628152D01*
X105306351Y-138555753D01*
X105265692Y-138099837D01*
X105169444Y-137867475D01*
X104997421Y-137784711D01*
X104352132Y-138430000D01*
X103927868Y-138430000D01*
X103927868Y-138430000D01*
X103282579Y-137784711D01*
X103110556Y-137867475D01*
X102973649Y-138304247D01*
X100300000Y-138304247D01*
X100300000Y-137572579D01*
X103494711Y-137572579D01*
X104140000Y-138217868D01*
X104785289Y-137572579D01*
X104702525Y-137400556D01*
X104265753Y-137263649D01*
X103809837Y-137304308D01*
X103577475Y-137400556D01*
X103494711Y-137572579D01*
X100300000Y-137572579D01*
X100300000Y-137259020D01*
X123959913Y-137259020D01*
X124035873Y-137442857D01*
X124176403Y-137583633D01*
X124360107Y-137659913D01*
X124559020Y-137660087D01*
X124742857Y-137584127D01*
X124853238Y-137473939D01*
X129576061Y-137473939D01*
X129710000Y-137447297D01*
X129823548Y-137371426D01*
X130098642Y-137096332D01*
X139655110Y-137096332D01*
X139705495Y-137430000D01*
X142350000Y-137430000D01*
X142350000Y-135430000D01*
X142650000Y-135430000D01*
X142650000Y-137430000D01*
X145294505Y-137430000D01*
X145344890Y-137096332D01*
X145293743Y-136895813D01*
X144876345Y-136165787D01*
X144211351Y-135651062D01*
X143400000Y-135430000D01*
X142650000Y-135430000D01*
X142350000Y-135430000D01*
X142350000Y-135430000D01*
X141600000Y-135430000D01*
X140788649Y-135651062D01*
X140123655Y-136165787D01*
X139706257Y-136895813D01*
X139655110Y-137096332D01*
X130098642Y-137096332D01*
X130422488Y-136772487D01*
X130498358Y-136658939D01*
X130525000Y-136525000D01*
X130525000Y-132500000D01*
X140205920Y-132500000D01*
X140320101Y-133074025D01*
X140645260Y-133560660D01*
X141131895Y-133885819D01*
X141705920Y-134000000D01*
X143294080Y-134000000D01*
X143868105Y-133885819D01*
X144354740Y-133560660D01*
X144679899Y-133074025D01*
X144764243Y-132650000D01*
X145430000Y-132650000D01*
X145430000Y-133400000D01*
X145651062Y-134211351D01*
X146165787Y-134876345D01*
X146895813Y-135293743D01*
X147096332Y-135344890D01*
X147430000Y-135294505D01*
X147430000Y-132650000D01*
X145430000Y-132650000D01*
X144764243Y-132650000D01*
X144794080Y-132500000D01*
X144679899Y-131925975D01*
X144462090Y-131600000D01*
X145430000Y-131600000D01*
X145430000Y-132350000D01*
X147430000Y-132350000D01*
X147430000Y-129705495D01*
X147096332Y-129655110D01*
X146895813Y-129706257D01*
X146165787Y-130123655D01*
X145651062Y-130788649D01*
X145430000Y-131600000D01*
X144462090Y-131600000D01*
X144354740Y-131439340D01*
X143868105Y-131114181D01*
X143294080Y-131000000D01*
X141705920Y-131000000D01*
X141131895Y-131114181D01*
X140645260Y-131439340D01*
X140320101Y-131925975D01*
X140205920Y-132500000D01*
X130525000Y-132500000D01*
X130525000Y-129262101D01*
X130598633Y-129188597D01*
X130674913Y-129004893D01*
X130675087Y-128805980D01*
X130599127Y-128622143D01*
X130458597Y-128481367D01*
X130274893Y-128405087D01*
X130075980Y-128404913D01*
X130014890Y-128430155D01*
X130039913Y-128369893D01*
X130040087Y-128170980D01*
X129964127Y-127987143D01*
X129880798Y-127903668D01*
X139655110Y-127903668D01*
X139706257Y-128104187D01*
X140123655Y-128834213D01*
X140788649Y-129348938D01*
X141600000Y-129570000D01*
X142350000Y-129570000D01*
X142350000Y-127570000D01*
X142650000Y-127570000D01*
X142650000Y-129570000D01*
X143400000Y-129570000D01*
X144211351Y-129348938D01*
X144876345Y-128834213D01*
X145293743Y-128104187D01*
X145344890Y-127903668D01*
X145294505Y-127570000D01*
X142650000Y-127570000D01*
X142350000Y-127570000D01*
X142350000Y-127570000D01*
X139705495Y-127570000D01*
X139655110Y-127903668D01*
X129880798Y-127903668D01*
X129823597Y-127846367D01*
X129639893Y-127770087D01*
X129440980Y-127769913D01*
X129257143Y-127845873D01*
X129116367Y-127986403D01*
X129040087Y-128170107D01*
X129039913Y-128369020D01*
X129115873Y-128552857D01*
X129190000Y-128627114D01*
X129190000Y-135745025D01*
X128760026Y-136175000D01*
X125452101Y-136175000D01*
X125378597Y-136101367D01*
X125194893Y-136025087D01*
X124995980Y-136024913D01*
X124812143Y-136100873D01*
X124671367Y-136241403D01*
X124595087Y-136425107D01*
X124594913Y-136624020D01*
X124620155Y-136685110D01*
X124559893Y-136660087D01*
X124360980Y-136659913D01*
X124177143Y-136735873D01*
X124036367Y-136876403D01*
X123960087Y-137060107D01*
X123959913Y-137259020D01*
X100300000Y-137259020D01*
X100300000Y-133684402D01*
X102637535Y-133684402D01*
X102835406Y-134092462D01*
X103192198Y-134401253D01*
X103640000Y-134550000D01*
X103990000Y-134550000D01*
X103990000Y-133500000D01*
X104290000Y-133500000D01*
X104290000Y-134550000D01*
X104640000Y-134550000D01*
X105087802Y-134401253D01*
X105444594Y-134092462D01*
X105642465Y-133684402D01*
X105579725Y-133500000D01*
X104290000Y-133500000D01*
X103990000Y-133500000D01*
X103990000Y-133500000D01*
X102700275Y-133500000D01*
X102637535Y-133684402D01*
X100300000Y-133684402D01*
X100300000Y-133350000D01*
X110332572Y-133350000D01*
X110412498Y-133751818D01*
X110640110Y-134092462D01*
X110980754Y-134320074D01*
X111382572Y-134400000D01*
X112137428Y-134400000D01*
X112539246Y-134320074D01*
X112879890Y-134092462D01*
X112885530Y-134084020D01*
X122569913Y-134084020D01*
X122645873Y-134267857D01*
X122786403Y-134408633D01*
X122970107Y-134484913D01*
X123075031Y-134485005D01*
X124092512Y-135502487D01*
X124206060Y-135578358D01*
X124228282Y-135582778D01*
X124340000Y-135605000D01*
X127792899Y-135605000D01*
X127866403Y-135678633D01*
X128050107Y-135754913D01*
X128249020Y-135755087D01*
X128432857Y-135679127D01*
X128573633Y-135538597D01*
X128649913Y-135354893D01*
X128650087Y-135155980D01*
X128574127Y-134972143D01*
X128433597Y-134831367D01*
X128249893Y-134755087D01*
X128050980Y-134754913D01*
X127989890Y-134780155D01*
X128014913Y-134719893D01*
X128015087Y-134520980D01*
X127939127Y-134337143D01*
X127798597Y-134196367D01*
X127614893Y-134120087D01*
X127415980Y-134119913D01*
X127354890Y-134145155D01*
X127379913Y-134084893D01*
X127380087Y-133885980D01*
X127304127Y-133702143D01*
X127163597Y-133561367D01*
X126979893Y-133485087D01*
X126780980Y-133484913D01*
X126719890Y-133510155D01*
X126744913Y-133449893D01*
X126745087Y-133250980D01*
X126669127Y-133067143D01*
X126528597Y-132926367D01*
X126344893Y-132850087D01*
X126239970Y-132849995D01*
X125474996Y-132085022D01*
X125475087Y-131980980D01*
X125399127Y-131797143D01*
X125258597Y-131656367D01*
X125074893Y-131580087D01*
X124875980Y-131579913D01*
X124692143Y-131655873D01*
X124551367Y-131796403D01*
X124475087Y-131980107D01*
X124474913Y-132179020D01*
X124500155Y-132240110D01*
X124439893Y-132215087D01*
X124240980Y-132214913D01*
X124057143Y-132290873D01*
X123916367Y-132431403D01*
X123840087Y-132615107D01*
X123839913Y-132814020D01*
X123865155Y-132875110D01*
X123804893Y-132850087D01*
X123605980Y-132849913D01*
X123422143Y-132925873D01*
X123281367Y-133066403D01*
X123205087Y-133250107D01*
X123204913Y-133449020D01*
X123230155Y-133510110D01*
X123169893Y-133485087D01*
X122970980Y-133484913D01*
X122787143Y-133560873D01*
X122646367Y-133701403D01*
X122570087Y-133885107D01*
X122569913Y-134084020D01*
X112885530Y-134084020D01*
X113107502Y-133751818D01*
X113187428Y-133350000D01*
X113107502Y-132948182D01*
X112879890Y-132607538D01*
X112539246Y-132379926D01*
X112137428Y-132300000D01*
X111382572Y-132300000D01*
X110980754Y-132379926D01*
X110640110Y-132607538D01*
X110412498Y-132948182D01*
X110332572Y-133350000D01*
X100300000Y-133350000D01*
X100300000Y-133015598D01*
X102637535Y-133015598D01*
X102700275Y-133200000D01*
X103990000Y-133200000D01*
X103990000Y-132150000D01*
X104290000Y-132150000D01*
X104290000Y-133200000D01*
X105579725Y-133200000D01*
X105642465Y-133015598D01*
X105444594Y-132607538D01*
X105087802Y-132298747D01*
X104640000Y-132150000D01*
X104290000Y-132150000D01*
X103990000Y-132150000D01*
X103990000Y-132150000D01*
X103640000Y-132150000D01*
X103192198Y-132298747D01*
X102835406Y-132607538D01*
X102637535Y-133015598D01*
X100300000Y-133015598D01*
X100300000Y-131144402D01*
X102637535Y-131144402D01*
X102835406Y-131552462D01*
X103192198Y-131861253D01*
X103640000Y-132010000D01*
X103990000Y-132010000D01*
X103990000Y-130960000D01*
X104290000Y-130960000D01*
X104290000Y-132010000D01*
X104640000Y-132010000D01*
X105087802Y-131861253D01*
X105444594Y-131552462D01*
X105642465Y-131144402D01*
X105579725Y-130960000D01*
X104290000Y-130960000D01*
X103990000Y-130960000D01*
X103990000Y-130960000D01*
X102700275Y-130960000D01*
X102637535Y-131144402D01*
X100300000Y-131144402D01*
X100300000Y-130810000D01*
X110332572Y-130810000D01*
X110412498Y-131211818D01*
X110640110Y-131552462D01*
X110980754Y-131780074D01*
X111382572Y-131860000D01*
X112137428Y-131860000D01*
X112539246Y-131780074D01*
X112879890Y-131552462D01*
X113107502Y-131211818D01*
X113187428Y-130810000D01*
X113107502Y-130408182D01*
X112879890Y-130067538D01*
X112539246Y-129839926D01*
X112137428Y-129760000D01*
X111382572Y-129760000D01*
X110980754Y-129839926D01*
X110640110Y-130067538D01*
X110412498Y-130408182D01*
X110332572Y-130810000D01*
X100300000Y-130810000D01*
X100300000Y-130475598D01*
X102637535Y-130475598D01*
X102700275Y-130660000D01*
X103990000Y-130660000D01*
X103990000Y-129610000D01*
X104290000Y-129610000D01*
X104290000Y-130660000D01*
X105579725Y-130660000D01*
X105642465Y-130475598D01*
X105444594Y-130067538D01*
X105087802Y-129758747D01*
X104640000Y-129610000D01*
X104290000Y-129610000D01*
X103990000Y-129610000D01*
X103990000Y-129610000D01*
X103640000Y-129610000D01*
X103192198Y-129758747D01*
X102835406Y-130067538D01*
X102637535Y-130475598D01*
X100300000Y-130475598D01*
X100300000Y-128604402D01*
X102637535Y-128604402D01*
X102835406Y-129012462D01*
X103192198Y-129321253D01*
X103640000Y-129470000D01*
X103990000Y-129470000D01*
X103990000Y-128420000D01*
X104290000Y-128420000D01*
X104290000Y-129470000D01*
X104640000Y-129470000D01*
X105087802Y-129321253D01*
X105444594Y-129012462D01*
X105642465Y-128604402D01*
X105579725Y-128420000D01*
X104290000Y-128420000D01*
X103990000Y-128420000D01*
X103990000Y-128420000D01*
X102700275Y-128420000D01*
X102637535Y-128604402D01*
X100300000Y-128604402D01*
X100300000Y-128270000D01*
X110332572Y-128270000D01*
X110412498Y-128671818D01*
X110640110Y-129012462D01*
X110980754Y-129240074D01*
X111382572Y-129320000D01*
X112137428Y-129320000D01*
X112539246Y-129240074D01*
X112879890Y-129012462D01*
X113107502Y-128671818D01*
X113187428Y-128270000D01*
X113107502Y-127868182D01*
X112879890Y-127527538D01*
X112539246Y-127299926D01*
X112137428Y-127220000D01*
X111382572Y-127220000D01*
X110980754Y-127299926D01*
X110640110Y-127527538D01*
X110412498Y-127868182D01*
X110332572Y-128270000D01*
X100300000Y-128270000D01*
X100300000Y-127935598D01*
X102637535Y-127935598D01*
X102700275Y-128120000D01*
X103990000Y-128120000D01*
X103990000Y-127070000D01*
X104290000Y-127070000D01*
X104290000Y-128120000D01*
X105579725Y-128120000D01*
X105642465Y-127935598D01*
X105444594Y-127527538D01*
X105087802Y-127218747D01*
X104640000Y-127070000D01*
X104290000Y-127070000D01*
X103990000Y-127070000D01*
X103990000Y-127070000D01*
X103640000Y-127070000D01*
X103192198Y-127218747D01*
X102835406Y-127527538D01*
X102637535Y-127935598D01*
X100300000Y-127935598D01*
X100300000Y-125730000D01*
X102712572Y-125730000D01*
X102792498Y-126131818D01*
X103020110Y-126472462D01*
X103360754Y-126700074D01*
X103762572Y-126780000D01*
X104517428Y-126780000D01*
X104919246Y-126700074D01*
X105259890Y-126472462D01*
X105487502Y-126131818D01*
X105567428Y-125730000D01*
X110332572Y-125730000D01*
X110412498Y-126131818D01*
X110640110Y-126472462D01*
X110980754Y-126700074D01*
X111382572Y-126780000D01*
X112137428Y-126780000D01*
X112539246Y-126700074D01*
X112879890Y-126472462D01*
X113107502Y-126131818D01*
X113187428Y-125730000D01*
X113107502Y-125328182D01*
X112879890Y-124987538D01*
X112539246Y-124759926D01*
X112137428Y-124680000D01*
X111382572Y-124680000D01*
X110980754Y-124759926D01*
X110640110Y-124987538D01*
X110412498Y-125328182D01*
X110332572Y-125730000D01*
X105567428Y-125730000D01*
X105567428Y-125730000D01*
X105487502Y-125328182D01*
X105259890Y-124987538D01*
X104919246Y-124759926D01*
X104517428Y-124680000D01*
X103762572Y-124680000D01*
X103360754Y-124759926D01*
X103020110Y-124987538D01*
X102792498Y-125328182D01*
X102712572Y-125730000D01*
X100300000Y-125730000D01*
X100300000Y-124559020D01*
X127769913Y-124559020D01*
X127845873Y-124742857D01*
X127986403Y-124883633D01*
X128170107Y-124959913D01*
X128369020Y-124960087D01*
X128552857Y-124884127D01*
X128627114Y-124810000D01*
X130452899Y-124810000D01*
X130526403Y-124883633D01*
X130710107Y-124959913D01*
X130909020Y-124960087D01*
X131092857Y-124884127D01*
X131110615Y-124866400D01*
X133349102Y-124866400D01*
X133349102Y-126593600D01*
X133367597Y-126688924D01*
X133422633Y-126772705D01*
X133505716Y-126828788D01*
X133604000Y-126848498D01*
X135636000Y-126848498D01*
X135731324Y-126830003D01*
X135815105Y-126774967D01*
X135871188Y-126691884D01*
X135890898Y-126593600D01*
X135890898Y-126098418D01*
X137062767Y-126098418D01*
X137202700Y-126436276D01*
X137566403Y-126852181D01*
X138061580Y-127097244D01*
X138280000Y-127038045D01*
X138280000Y-125880000D01*
X138580000Y-125880000D01*
X138580000Y-127038045D01*
X138798420Y-127097244D01*
X139123560Y-126936332D01*
X139655110Y-126936332D01*
X139705495Y-127270000D01*
X142350000Y-127270000D01*
X142350000Y-125270000D01*
X142650000Y-125270000D01*
X142650000Y-127270000D01*
X145294505Y-127270000D01*
X145344890Y-126936332D01*
X145293743Y-126735813D01*
X144876345Y-126005787D01*
X144211351Y-125491062D01*
X143400000Y-125270000D01*
X142650000Y-125270000D01*
X142350000Y-125270000D01*
X142350000Y-125270000D01*
X141600000Y-125270000D01*
X140788649Y-125491062D01*
X140123655Y-126005787D01*
X139706257Y-126735813D01*
X139655110Y-126936332D01*
X139123560Y-126936332D01*
X139293597Y-126852181D01*
X139657300Y-126436276D01*
X139797233Y-126098418D01*
X139737423Y-125880000D01*
X138580000Y-125880000D01*
X138280000Y-125880000D01*
X138280000Y-125880000D01*
X137122577Y-125880000D01*
X137062767Y-126098418D01*
X135890898Y-126098418D01*
X135890898Y-125361582D01*
X137062767Y-125361582D01*
X137122577Y-125580000D01*
X138280000Y-125580000D01*
X138280000Y-125560000D01*
X138580000Y-125560000D01*
X138580000Y-125580000D01*
X139737423Y-125580000D01*
X139797233Y-125361582D01*
X139657300Y-125023724D01*
X139293597Y-124607819D01*
X138996727Y-124460898D01*
X139446000Y-124460898D01*
X139541324Y-124442403D01*
X139625105Y-124387367D01*
X139681188Y-124304284D01*
X139700898Y-124206000D01*
X139700898Y-122174000D01*
X139682403Y-122078676D01*
X139627367Y-121994895D01*
X139544284Y-121938812D01*
X139446000Y-121919102D01*
X137414000Y-121919102D01*
X137318676Y-121937597D01*
X137234895Y-121992633D01*
X137178812Y-122075716D01*
X137159102Y-122174000D01*
X137159102Y-124206000D01*
X137177597Y-124301324D01*
X137232633Y-124385105D01*
X137315716Y-124441188D01*
X137414000Y-124460898D01*
X137863273Y-124460898D01*
X137566403Y-124607819D01*
X137202700Y-125023724D01*
X137062767Y-125361582D01*
X135890898Y-125361582D01*
X135890898Y-124866400D01*
X135872403Y-124771076D01*
X135817367Y-124687295D01*
X135734284Y-124631212D01*
X135636000Y-124611502D01*
X133604000Y-124611502D01*
X133508676Y-124629997D01*
X133424895Y-124685033D01*
X133368812Y-124768116D01*
X133349102Y-124866400D01*
X131110615Y-124866400D01*
X131233633Y-124743597D01*
X131309913Y-124559893D01*
X131310087Y-124360980D01*
X131234127Y-124177143D01*
X131093597Y-124036367D01*
X130909893Y-123960087D01*
X130710980Y-123959913D01*
X130527143Y-124035873D01*
X130452886Y-124110000D01*
X128627101Y-124110000D01*
X128553597Y-124036367D01*
X128369893Y-123960087D01*
X128170980Y-123959913D01*
X127987143Y-124035873D01*
X127846367Y-124176403D01*
X127770087Y-124360107D01*
X127769913Y-124559020D01*
X100300000Y-124559020D01*
X100300000Y-123190000D01*
X133329198Y-123190000D01*
X133413966Y-123616156D01*
X133655364Y-123977434D01*
X134016642Y-124218832D01*
X134442798Y-124303600D01*
X134797202Y-124303600D01*
X135223358Y-124218832D01*
X135584636Y-123977434D01*
X135826034Y-123616156D01*
X135910802Y-123190000D01*
X135826034Y-122763844D01*
X135584636Y-122402566D01*
X135223358Y-122161168D01*
X134797202Y-122076400D01*
X134442798Y-122076400D01*
X134016642Y-122161168D01*
X133655364Y-122402566D01*
X133413966Y-122763844D01*
X133329198Y-123190000D01*
X100300000Y-123190000D01*
X100300000Y-122849485D01*
X103422647Y-122849485D01*
X103517656Y-123031778D01*
X103990488Y-123185310D01*
X104486082Y-123146209D01*
X104762344Y-123031778D01*
X104857353Y-122849485D01*
X104140000Y-122132132D01*
X103422647Y-122849485D01*
X100300000Y-122849485D01*
X100300000Y-121770488D01*
X102874690Y-121770488D01*
X102913791Y-122266082D01*
X103028222Y-122542344D01*
X103210515Y-122637353D01*
X103927868Y-121920000D01*
X104352132Y-121920000D01*
X105069485Y-122637353D01*
X105251778Y-122542344D01*
X105405310Y-122069512D01*
X105366209Y-121573918D01*
X105251778Y-121297656D01*
X105069485Y-121202647D01*
X104352132Y-121920000D01*
X103927868Y-121920000D01*
X103927868Y-121920000D01*
X103210515Y-121202647D01*
X103028222Y-121297656D01*
X102874690Y-121770488D01*
X100300000Y-121770488D01*
X100300000Y-120990515D01*
X103422647Y-120990515D01*
X104140000Y-121707868D01*
X104777498Y-121070370D01*
X113195472Y-121070370D01*
X113195472Y-122769630D01*
X113213967Y-122864954D01*
X113269003Y-122948735D01*
X113352086Y-123004818D01*
X113450370Y-123024528D01*
X115149630Y-123024528D01*
X115244954Y-123006033D01*
X115328735Y-122950997D01*
X115384818Y-122867914D01*
X115404528Y-122769630D01*
X115404528Y-121070370D01*
X115386033Y-120975046D01*
X115330997Y-120891265D01*
X115247914Y-120835182D01*
X115149630Y-120815472D01*
X113450370Y-120815472D01*
X113355046Y-120833967D01*
X113271265Y-120889003D01*
X113215182Y-120972086D01*
X113195472Y-121070370D01*
X104777498Y-121070370D01*
X104857353Y-120990515D01*
X104762344Y-120808222D01*
X104289512Y-120654690D01*
X103793918Y-120693791D01*
X103517656Y-120808222D01*
X103422647Y-120990515D01*
X100300000Y-120990515D01*
X100300000Y-120650000D01*
X133329198Y-120650000D01*
X133413966Y-121076156D01*
X133655364Y-121437434D01*
X134016642Y-121678832D01*
X134442798Y-121763600D01*
X134797202Y-121763600D01*
X134837475Y-121755589D01*
X144059610Y-121755589D01*
X144401431Y-122582858D01*
X145033813Y-123216345D01*
X145860484Y-123559608D01*
X146755589Y-123560390D01*
X147582858Y-123218569D01*
X148216345Y-122586187D01*
X148559608Y-121759516D01*
X148560390Y-120864411D01*
X148218569Y-120037142D01*
X147586187Y-119403655D01*
X146759516Y-119060392D01*
X145864411Y-119059610D01*
X145037142Y-119401431D01*
X144403655Y-120033813D01*
X144060392Y-120860484D01*
X144059610Y-121755589D01*
X134837475Y-121755589D01*
X135223358Y-121678832D01*
X135584636Y-121437434D01*
X135826034Y-121076156D01*
X135910802Y-120650000D01*
X135826034Y-120223844D01*
X135703194Y-120040000D01*
X140970613Y-120040000D01*
X141058152Y-120480086D01*
X141307440Y-120853173D01*
X141680527Y-121102461D01*
X142120613Y-121190000D01*
X142879387Y-121190000D01*
X143319473Y-121102461D01*
X143692560Y-120853173D01*
X143941848Y-120480086D01*
X144029387Y-120040000D01*
X143941848Y-119599914D01*
X143692560Y-119226827D01*
X143319473Y-118977539D01*
X142879387Y-118890000D01*
X142120613Y-118890000D01*
X141680527Y-118977539D01*
X141307440Y-119226827D01*
X141058152Y-119599914D01*
X140970613Y-120040000D01*
X135703194Y-120040000D01*
X135584636Y-119862566D01*
X135223358Y-119621168D01*
X134797202Y-119536400D01*
X134442798Y-119536400D01*
X134016642Y-119621168D01*
X133655364Y-119862566D01*
X133413966Y-120223844D01*
X133329198Y-120650000D01*
X100300000Y-120650000D01*
X100300000Y-118308152D01*
X110759257Y-118308152D01*
X110911264Y-118676037D01*
X111192483Y-118957747D01*
X111560101Y-119110396D01*
X111958152Y-119110743D01*
X112326037Y-118958736D01*
X112607747Y-118677517D01*
X112760396Y-118309899D01*
X112760397Y-118308152D01*
X113299257Y-118308152D01*
X113451264Y-118676037D01*
X113732483Y-118957747D01*
X114100101Y-119110396D01*
X114498152Y-119110743D01*
X114866037Y-118958736D01*
X115147747Y-118677517D01*
X115300396Y-118309899D01*
X115300743Y-117911848D01*
X115148736Y-117543963D01*
X114867517Y-117262253D01*
X114499899Y-117109604D01*
X114101848Y-117109257D01*
X113733963Y-117261264D01*
X113452253Y-117542483D01*
X113299604Y-117910101D01*
X113299257Y-118308152D01*
X112760397Y-118308152D01*
X112760743Y-117911848D01*
X112608736Y-117543963D01*
X112327517Y-117262253D01*
X111959899Y-117109604D01*
X111561848Y-117109257D01*
X111193963Y-117261264D01*
X110912253Y-117542483D01*
X110759604Y-117910101D01*
X110759257Y-118308152D01*
X100300000Y-118308152D01*
X100300000Y-117087449D01*
X117495294Y-117087449D01*
X117685116Y-117546855D01*
X118036297Y-117898648D01*
X118495371Y-118089273D01*
X118992449Y-118089706D01*
X119351412Y-117941386D01*
X119767512Y-118357487D01*
X119881060Y-118433358D01*
X119903282Y-118437778D01*
X120015000Y-118460000D01*
X124102899Y-118460000D01*
X124176403Y-118533633D01*
X124360107Y-118609913D01*
X124559020Y-118610087D01*
X124742857Y-118534127D01*
X124883633Y-118393597D01*
X124959913Y-118209893D01*
X124960087Y-118010980D01*
X124884127Y-117827143D01*
X124743597Y-117686367D01*
X124559893Y-117610087D01*
X124360980Y-117609913D01*
X124177143Y-117685873D01*
X124102886Y-117760000D01*
X120159975Y-117760000D01*
X119899975Y-117500000D01*
X140970613Y-117500000D01*
X141058152Y-117940086D01*
X141307440Y-118313173D01*
X141680527Y-118562461D01*
X142120613Y-118650000D01*
X142879387Y-118650000D01*
X143319473Y-118562461D01*
X143692560Y-118313173D01*
X143941848Y-117940086D01*
X144029387Y-117500000D01*
X143941848Y-117059914D01*
X143692560Y-116686827D01*
X143319473Y-116437539D01*
X142879387Y-116350000D01*
X142120613Y-116350000D01*
X141680527Y-116437539D01*
X141307440Y-116686827D01*
X141058152Y-117059914D01*
X140970613Y-117500000D01*
X119899975Y-117500000D01*
X119846200Y-117446226D01*
X119994273Y-117089629D01*
X119994706Y-116592551D01*
X119804884Y-116133145D01*
X119453703Y-115781352D01*
X118994629Y-115590727D01*
X118497551Y-115590294D01*
X118038145Y-115780116D01*
X117686352Y-116131297D01*
X117495727Y-116590371D01*
X117495294Y-117087449D01*
X100300000Y-117087449D01*
X100300000Y-115157421D01*
X104764711Y-115157421D01*
X104847475Y-115329444D01*
X105284247Y-115466351D01*
X105740163Y-115425692D01*
X105972525Y-115329444D01*
X106055289Y-115157421D01*
X105410000Y-114512132D01*
X104764711Y-115157421D01*
X100300000Y-115157421D01*
X100300000Y-114174247D01*
X104243649Y-114174247D01*
X104284308Y-114630163D01*
X104380556Y-114862525D01*
X104552579Y-114945289D01*
X105197868Y-114300000D01*
X105622132Y-114300000D01*
X106267421Y-114945289D01*
X106439444Y-114862525D01*
X106553657Y-114498152D01*
X106949257Y-114498152D01*
X107101264Y-114866037D01*
X107382483Y-115147747D01*
X107750101Y-115300396D01*
X108148152Y-115300743D01*
X108516037Y-115148736D01*
X108797747Y-114867517D01*
X108930651Y-114547449D01*
X121940294Y-114547449D01*
X122130116Y-115006855D01*
X122481297Y-115358648D01*
X122940371Y-115549273D01*
X123437449Y-115549706D01*
X123896855Y-115359884D01*
X124248648Y-115008703D01*
X124439273Y-114549629D01*
X124439274Y-114547449D01*
X132100294Y-114547449D01*
X132290116Y-115006855D01*
X132641297Y-115358648D01*
X133100371Y-115549273D01*
X133597449Y-115549706D01*
X134056855Y-115359884D01*
X134106665Y-115310160D01*
X140898046Y-115310160D01*
X141124695Y-115773173D01*
X141513930Y-116103641D01*
X142000000Y-116260000D01*
X142350000Y-116260000D01*
X142350000Y-115110000D01*
X142650000Y-115110000D01*
X142650000Y-116260000D01*
X143000000Y-116260000D01*
X143486070Y-116103641D01*
X143875305Y-115773173D01*
X144101954Y-115310160D01*
X144040588Y-115110000D01*
X142650000Y-115110000D01*
X142350000Y-115110000D01*
X142350000Y-115110000D01*
X140959412Y-115110000D01*
X140898046Y-115310160D01*
X134106665Y-115310160D01*
X134408648Y-115008703D01*
X134574271Y-114609840D01*
X140898046Y-114609840D01*
X140959412Y-114810000D01*
X142350000Y-114810000D01*
X142350000Y-113660000D01*
X142650000Y-113660000D01*
X142650000Y-114810000D01*
X144040588Y-114810000D01*
X144101954Y-114609840D01*
X143875305Y-114146827D01*
X143862069Y-114135589D01*
X144059610Y-114135589D01*
X144401431Y-114962858D01*
X145033813Y-115596345D01*
X145860484Y-115939608D01*
X146755589Y-115940390D01*
X147582858Y-115598569D01*
X148216345Y-114966187D01*
X148559608Y-114139516D01*
X148560390Y-113244411D01*
X148218569Y-112417142D01*
X147586187Y-111783655D01*
X146759516Y-111440392D01*
X145864411Y-111439610D01*
X145037142Y-111781431D01*
X144403655Y-112413813D01*
X144060392Y-113240484D01*
X144059610Y-114135589D01*
X143862069Y-114135589D01*
X143486070Y-113816359D01*
X143000000Y-113660000D01*
X142650000Y-113660000D01*
X142350000Y-113660000D01*
X142350000Y-113660000D01*
X142000000Y-113660000D01*
X141513930Y-113816359D01*
X141124695Y-114146827D01*
X140898046Y-114609840D01*
X134574271Y-114609840D01*
X134599273Y-114549629D01*
X134599706Y-114052551D01*
X134409884Y-113593145D01*
X134058703Y-113241352D01*
X133599629Y-113050727D01*
X133102551Y-113050294D01*
X132643145Y-113240116D01*
X132291352Y-113591297D01*
X132100727Y-114050371D01*
X132100294Y-114547449D01*
X124439274Y-114547449D01*
X124439706Y-114052551D01*
X124249884Y-113593145D01*
X123898703Y-113241352D01*
X123439629Y-113050727D01*
X122942551Y-113050294D01*
X122483145Y-113240116D01*
X122131352Y-113591297D01*
X121940727Y-114050371D01*
X121940294Y-114547449D01*
X108930651Y-114547449D01*
X108950396Y-114499899D01*
X108950743Y-114101848D01*
X108798736Y-113733963D01*
X108517517Y-113452253D01*
X108149899Y-113299604D01*
X107751848Y-113299257D01*
X107383963Y-113451264D01*
X107102253Y-113732483D01*
X106949604Y-114100101D01*
X106949257Y-114498152D01*
X106553657Y-114498152D01*
X106576351Y-114425753D01*
X106535692Y-113969837D01*
X106439444Y-113737475D01*
X106267421Y-113654711D01*
X105622132Y-114300000D01*
X105197868Y-114300000D01*
X105197868Y-114300000D01*
X104552579Y-113654711D01*
X104380556Y-113737475D01*
X104243649Y-114174247D01*
X100300000Y-114174247D01*
X100300000Y-113442579D01*
X104764711Y-113442579D01*
X105410000Y-114087868D01*
X106055289Y-113442579D01*
X105972525Y-113270556D01*
X105535753Y-113133649D01*
X105079837Y-113174308D01*
X104847475Y-113270556D01*
X104764711Y-113442579D01*
X100300000Y-113442579D01*
X100300000Y-111372449D01*
X121940294Y-111372449D01*
X122130116Y-111831855D01*
X122481297Y-112183648D01*
X122940371Y-112374273D01*
X123437449Y-112374706D01*
X123896855Y-112184884D01*
X124248648Y-111833703D01*
X124439273Y-111374629D01*
X124439274Y-111372449D01*
X132100294Y-111372449D01*
X132290116Y-111831855D01*
X132641297Y-112183648D01*
X133100371Y-112374273D01*
X133597449Y-112374706D01*
X134056855Y-112184884D01*
X134408648Y-111833703D01*
X134599273Y-111374629D01*
X134599706Y-110877551D01*
X134409884Y-110418145D01*
X134058703Y-110066352D01*
X133599629Y-109875727D01*
X133102551Y-109875294D01*
X132643145Y-110065116D01*
X132291352Y-110416297D01*
X132100727Y-110875371D01*
X132100294Y-111372449D01*
X124439274Y-111372449D01*
X124439706Y-110877551D01*
X124249884Y-110418145D01*
X123898703Y-110066352D01*
X123439629Y-109875727D01*
X122942551Y-109875294D01*
X122483145Y-110065116D01*
X122131352Y-110416297D01*
X121940727Y-110875371D01*
X121940294Y-111372449D01*
X100300000Y-111372449D01*
X100300000Y-106927449D01*
X117495294Y-106927449D01*
X117685116Y-107386855D01*
X118036297Y-107738648D01*
X118495371Y-107929273D01*
X118992449Y-107929706D01*
X119451855Y-107739884D01*
X119803648Y-107388703D01*
X119994273Y-106929629D01*
X119994424Y-106755589D01*
X144059610Y-106755589D01*
X144401431Y-107582858D01*
X145033813Y-108216345D01*
X145860484Y-108559608D01*
X146755589Y-108560390D01*
X147582858Y-108218569D01*
X148216345Y-107586187D01*
X148559608Y-106759516D01*
X148560390Y-105864411D01*
X148218569Y-105037142D01*
X147586187Y-104403655D01*
X146759516Y-104060392D01*
X145864411Y-104059610D01*
X145037142Y-104401431D01*
X144403655Y-105033813D01*
X144060392Y-105860484D01*
X144059610Y-106755589D01*
X119994424Y-106755589D01*
X119994706Y-106432551D01*
X119804884Y-105973145D01*
X119453703Y-105621352D01*
X118994629Y-105430727D01*
X118497551Y-105430294D01*
X118038145Y-105620116D01*
X117686352Y-105971297D01*
X117495727Y-106430371D01*
X117495294Y-106927449D01*
X100300000Y-106927449D01*
X100300000Y-101699020D01*
X114434913Y-101699020D01*
X114435000Y-101699231D01*
X114435000Y-105409564D01*
X114434913Y-105509020D01*
X114510873Y-105692857D01*
X114651403Y-105833633D01*
X114835107Y-105909913D01*
X115034020Y-105910087D01*
X115217857Y-105834127D01*
X115358633Y-105693597D01*
X115434913Y-105509893D01*
X115435087Y-105310980D01*
X115435000Y-105310769D01*
X115435000Y-105040000D01*
X140970613Y-105040000D01*
X141058152Y-105480086D01*
X141307440Y-105853173D01*
X141680527Y-106102461D01*
X142120613Y-106190000D01*
X142879387Y-106190000D01*
X143319473Y-106102461D01*
X143692560Y-105853173D01*
X143941848Y-105480086D01*
X144029387Y-105040000D01*
X143941848Y-104599914D01*
X143692560Y-104226827D01*
X143319473Y-103977539D01*
X142879387Y-103890000D01*
X142120613Y-103890000D01*
X141680527Y-103977539D01*
X141307440Y-104226827D01*
X141058152Y-104599914D01*
X140970613Y-105040000D01*
X115435000Y-105040000D01*
X115435000Y-104005000D01*
X127634563Y-104005000D01*
X127734020Y-104005087D01*
X127917857Y-103929127D01*
X128058633Y-103788597D01*
X128134913Y-103604893D01*
X128135087Y-103405980D01*
X128059127Y-103222143D01*
X127918597Y-103081367D01*
X127734893Y-103005087D01*
X127535980Y-103004913D01*
X127535769Y-103005000D01*
X115435000Y-103005000D01*
X115435000Y-102850160D01*
X140898046Y-102850160D01*
X141124695Y-103313173D01*
X141513930Y-103643641D01*
X142000000Y-103800000D01*
X142350000Y-103800000D01*
X142350000Y-102650000D01*
X142650000Y-102650000D01*
X142650000Y-103800000D01*
X143000000Y-103800000D01*
X143486070Y-103643641D01*
X143875305Y-103313173D01*
X144101954Y-102850160D01*
X144040588Y-102650000D01*
X142650000Y-102650000D01*
X142350000Y-102650000D01*
X142350000Y-102650000D01*
X140959412Y-102650000D01*
X140898046Y-102850160D01*
X115435000Y-102850160D01*
X115435000Y-102149840D01*
X140898046Y-102149840D01*
X140959412Y-102350000D01*
X142350000Y-102350000D01*
X142350000Y-101200000D01*
X142650000Y-101200000D01*
X142650000Y-102350000D01*
X144040588Y-102350000D01*
X144101954Y-102149840D01*
X143875305Y-101686827D01*
X143486070Y-101356359D01*
X143000000Y-101200000D01*
X142650000Y-101200000D01*
X142350000Y-101200000D01*
X142350000Y-101200000D01*
X142000000Y-101200000D01*
X141513930Y-101356359D01*
X141124695Y-101686827D01*
X140898046Y-102149840D01*
X115435000Y-102149840D01*
X115435000Y-101600000D01*
X115435087Y-101500980D01*
X115359127Y-101317143D01*
X115218597Y-101176367D01*
X115034893Y-101100087D01*
X114835980Y-101099913D01*
X114652143Y-101175873D01*
X114511367Y-101316403D01*
X114435087Y-101500107D01*
X114434913Y-101699020D01*
X100300000Y-101699020D01*
X100300000Y-98044000D01*
X105561502Y-98044000D01*
X105561502Y-100076000D01*
X105579997Y-100171324D01*
X105635033Y-100255105D01*
X105718116Y-100311188D01*
X105816400Y-100330898D01*
X107543600Y-100330898D01*
X107638924Y-100312403D01*
X107722705Y-100257367D01*
X107778788Y-100174284D01*
X107798498Y-100076000D01*
X107798498Y-98882798D01*
X108106400Y-98882798D01*
X108106400Y-99237202D01*
X108191168Y-99663358D01*
X108432566Y-100024636D01*
X108793844Y-100266034D01*
X109220000Y-100350802D01*
X109646156Y-100266034D01*
X110007434Y-100024636D01*
X110248832Y-99663358D01*
X110333600Y-99237202D01*
X110333600Y-98882798D01*
X110646400Y-98882798D01*
X110646400Y-99237202D01*
X110731168Y-99663358D01*
X110972566Y-100024636D01*
X111333844Y-100266034D01*
X111760000Y-100350802D01*
X112186156Y-100266034D01*
X112547434Y-100024636D01*
X112788832Y-99663358D01*
X112873600Y-99237202D01*
X112873600Y-98882798D01*
X112788832Y-98456642D01*
X112547434Y-98095364D01*
X112470563Y-98044000D01*
X116991502Y-98044000D01*
X116991502Y-100076000D01*
X117009997Y-100171324D01*
X117065033Y-100255105D01*
X117148116Y-100311188D01*
X117246400Y-100330898D01*
X118973600Y-100330898D01*
X119068924Y-100312403D01*
X119152705Y-100257367D01*
X119208788Y-100174284D01*
X119228498Y-100076000D01*
X119228498Y-98882798D01*
X119536400Y-98882798D01*
X119536400Y-99237202D01*
X119621168Y-99663358D01*
X119862566Y-100024636D01*
X120223844Y-100266034D01*
X120650000Y-100350802D01*
X121076156Y-100266034D01*
X121437434Y-100024636D01*
X121678832Y-99663358D01*
X121763600Y-99237202D01*
X121763600Y-98882798D01*
X122076400Y-98882798D01*
X122076400Y-99237202D01*
X122161168Y-99663358D01*
X122402566Y-100024636D01*
X122763844Y-100266034D01*
X123190000Y-100350802D01*
X123616156Y-100266034D01*
X123977434Y-100024636D01*
X124218832Y-99663358D01*
X124303600Y-99237202D01*
X124303600Y-99060000D01*
X133329198Y-99060000D01*
X133413966Y-99486156D01*
X133655364Y-99847434D01*
X134016642Y-100088832D01*
X134442798Y-100173600D01*
X134797202Y-100173600D01*
X135223358Y-100088832D01*
X135416168Y-99960000D01*
X140970613Y-99960000D01*
X141058152Y-100400086D01*
X141307440Y-100773173D01*
X141680527Y-101022461D01*
X142120613Y-101110000D01*
X142879387Y-101110000D01*
X143319473Y-101022461D01*
X143692560Y-100773173D01*
X143941848Y-100400086D01*
X144029387Y-99960000D01*
X143941848Y-99519914D01*
X143692560Y-99146827D01*
X143675742Y-99135589D01*
X144059610Y-99135589D01*
X144401431Y-99962858D01*
X145033813Y-100596345D01*
X145860484Y-100939608D01*
X146755589Y-100940390D01*
X147582858Y-100598569D01*
X148216345Y-99966187D01*
X148559608Y-99139516D01*
X148560390Y-98244411D01*
X148218569Y-97417142D01*
X147586187Y-96783655D01*
X146759516Y-96440392D01*
X145864411Y-96439610D01*
X145037142Y-96781431D01*
X144403655Y-97413813D01*
X144060392Y-98240484D01*
X144059610Y-99135589D01*
X143675742Y-99135589D01*
X143319473Y-98897539D01*
X142879387Y-98810000D01*
X142120613Y-98810000D01*
X141680527Y-98897539D01*
X141307440Y-99146827D01*
X141058152Y-99519914D01*
X140970613Y-99960000D01*
X135416168Y-99960000D01*
X135584636Y-99847434D01*
X135826034Y-99486156D01*
X135910802Y-99060000D01*
X135826034Y-98633844D01*
X135584636Y-98272566D01*
X135223358Y-98031168D01*
X134797202Y-97946400D01*
X134442798Y-97946400D01*
X134016642Y-98031168D01*
X133655364Y-98272566D01*
X133413966Y-98633844D01*
X133329198Y-99060000D01*
X124303600Y-99060000D01*
X124303600Y-98882798D01*
X124218832Y-98456642D01*
X123977434Y-98095364D01*
X123616156Y-97853966D01*
X123190000Y-97769198D01*
X122763844Y-97853966D01*
X122402566Y-98095364D01*
X122161168Y-98456642D01*
X122076400Y-98882798D01*
X121763600Y-98882798D01*
X121763600Y-98882798D01*
X121678832Y-98456642D01*
X121437434Y-98095364D01*
X121076156Y-97853966D01*
X120650000Y-97769198D01*
X120223844Y-97853966D01*
X119862566Y-98095364D01*
X119621168Y-98456642D01*
X119536400Y-98882798D01*
X119228498Y-98882798D01*
X119228498Y-98044000D01*
X119210003Y-97948676D01*
X119154967Y-97864895D01*
X119071884Y-97808812D01*
X118973600Y-97789102D01*
X117246400Y-97789102D01*
X117151076Y-97807597D01*
X117067295Y-97862633D01*
X117011212Y-97945716D01*
X116991502Y-98044000D01*
X112470563Y-98044000D01*
X112186156Y-97853966D01*
X111760000Y-97769198D01*
X111333844Y-97853966D01*
X110972566Y-98095364D01*
X110731168Y-98456642D01*
X110646400Y-98882798D01*
X110333600Y-98882798D01*
X110333600Y-98882798D01*
X110248832Y-98456642D01*
X110007434Y-98095364D01*
X109646156Y-97853966D01*
X109220000Y-97769198D01*
X108793844Y-97853966D01*
X108432566Y-98095364D01*
X108191168Y-98456642D01*
X108106400Y-98882798D01*
X107798498Y-98882798D01*
X107798498Y-98044000D01*
X107780003Y-97948676D01*
X107724967Y-97864895D01*
X107641884Y-97808812D01*
X107543600Y-97789102D01*
X105816400Y-97789102D01*
X105721076Y-97807597D01*
X105637295Y-97862633D01*
X105581212Y-97945716D01*
X105561502Y-98044000D01*
X100300000Y-98044000D01*
X100300000Y-82804000D01*
X105561502Y-82804000D01*
X105561502Y-84836000D01*
X105579997Y-84931324D01*
X105635033Y-85015105D01*
X105718116Y-85071188D01*
X105816400Y-85090898D01*
X107543600Y-85090898D01*
X107600000Y-85079955D01*
X107600000Y-90180413D01*
X107543600Y-90169102D01*
X105816400Y-90169102D01*
X105721076Y-90187597D01*
X105637295Y-90242633D01*
X105581212Y-90325716D01*
X105561502Y-90424000D01*
X105561502Y-92456000D01*
X105579997Y-92551324D01*
X105635033Y-92635105D01*
X105718116Y-92691188D01*
X105816400Y-92710898D01*
X107543600Y-92710898D01*
X107600000Y-92699955D01*
X107600000Y-95885000D01*
X107626642Y-96018939D01*
X107702513Y-96132487D01*
X108720004Y-97149979D01*
X108719913Y-97254020D01*
X108795873Y-97437857D01*
X108936403Y-97578633D01*
X109120107Y-97654913D01*
X109319020Y-97655087D01*
X109502857Y-97579127D01*
X109643633Y-97438597D01*
X109719913Y-97254893D01*
X109720087Y-97055980D01*
X109644127Y-96872143D01*
X109503597Y-96731367D01*
X109319893Y-96655087D01*
X109214970Y-96654995D01*
X108300000Y-95740026D01*
X108300000Y-92206237D01*
X108432566Y-92404636D01*
X108793844Y-92646034D01*
X109220000Y-92730802D01*
X109646156Y-92646034D01*
X110007434Y-92404636D01*
X110248832Y-92043358D01*
X110333600Y-91617202D01*
X110333600Y-91262798D01*
X110646400Y-91262798D01*
X110646400Y-91617202D01*
X110731168Y-92043358D01*
X110972566Y-92404636D01*
X111333844Y-92646034D01*
X111760000Y-92730802D01*
X112186156Y-92646034D01*
X112547434Y-92404636D01*
X112788832Y-92043358D01*
X112873600Y-91617202D01*
X112873600Y-91262798D01*
X112788832Y-90836642D01*
X112547434Y-90475364D01*
X112470563Y-90424000D01*
X116991502Y-90424000D01*
X116991502Y-92456000D01*
X117009997Y-92551324D01*
X117065033Y-92635105D01*
X117148116Y-92691188D01*
X117246400Y-92710898D01*
X118973600Y-92710898D01*
X119068924Y-92692403D01*
X119152705Y-92637367D01*
X119208788Y-92554284D01*
X119228498Y-92456000D01*
X119228498Y-91262798D01*
X119536400Y-91262798D01*
X119536400Y-91617202D01*
X119621168Y-92043358D01*
X119862566Y-92404636D01*
X120223844Y-92646034D01*
X120650000Y-92730802D01*
X121076156Y-92646034D01*
X121437434Y-92404636D01*
X121570000Y-92206237D01*
X121570000Y-95740025D01*
X120655022Y-96655004D01*
X120550980Y-96654913D01*
X120367143Y-96730873D01*
X120226367Y-96871403D01*
X120150087Y-97055107D01*
X120149913Y-97254020D01*
X120225873Y-97437857D01*
X120366403Y-97578633D01*
X120550107Y-97654913D01*
X120749020Y-97655087D01*
X120932857Y-97579127D01*
X121073633Y-97438597D01*
X121149913Y-97254893D01*
X121150005Y-97149969D01*
X121779974Y-96520000D01*
X133329198Y-96520000D01*
X133413966Y-96946156D01*
X133655364Y-97307434D01*
X134016642Y-97548832D01*
X134442798Y-97633600D01*
X134797202Y-97633600D01*
X135223358Y-97548832D01*
X135584636Y-97307434D01*
X135826034Y-96946156D01*
X135910802Y-96520000D01*
X135826034Y-96093844D01*
X135584636Y-95732566D01*
X135223358Y-95491168D01*
X134797202Y-95406400D01*
X134442798Y-95406400D01*
X134016642Y-95491168D01*
X133655364Y-95732566D01*
X133413966Y-96093844D01*
X133329198Y-96520000D01*
X121779974Y-96520000D01*
X122167487Y-96132488D01*
X122243358Y-96018940D01*
X122247778Y-95996718D01*
X122270000Y-95885000D01*
X122270000Y-93116400D01*
X133349102Y-93116400D01*
X133349102Y-94843600D01*
X133367597Y-94938924D01*
X133422633Y-95022705D01*
X133505716Y-95078788D01*
X133604000Y-95098498D01*
X135636000Y-95098498D01*
X135731324Y-95080003D01*
X135815105Y-95024967D01*
X135871188Y-94941884D01*
X135890898Y-94843600D01*
X135890898Y-94348418D01*
X137062767Y-94348418D01*
X137202700Y-94686276D01*
X137566403Y-95102181D01*
X137863273Y-95249102D01*
X137414000Y-95249102D01*
X137318676Y-95267597D01*
X137234895Y-95322633D01*
X137178812Y-95405716D01*
X137159102Y-95504000D01*
X137159102Y-97536000D01*
X137177597Y-97631324D01*
X137232633Y-97715105D01*
X137315716Y-97771188D01*
X137414000Y-97790898D01*
X139446000Y-97790898D01*
X139541324Y-97772403D01*
X139625105Y-97717367D01*
X139681188Y-97634284D01*
X139700898Y-97536000D01*
X139700898Y-95504000D01*
X139682403Y-95408676D01*
X139627367Y-95324895D01*
X139544284Y-95268812D01*
X139446000Y-95249102D01*
X138996727Y-95249102D01*
X139293597Y-95102181D01*
X139657300Y-94686276D01*
X139797233Y-94348418D01*
X139737423Y-94130000D01*
X138580000Y-94130000D01*
X138580000Y-94150000D01*
X138280000Y-94150000D01*
X138280000Y-94130000D01*
X137122577Y-94130000D01*
X137062767Y-94348418D01*
X135890898Y-94348418D01*
X135890898Y-93611582D01*
X137062767Y-93611582D01*
X137122577Y-93830000D01*
X138280000Y-93830000D01*
X138280000Y-92671955D01*
X138580000Y-92671955D01*
X138580000Y-93830000D01*
X139737423Y-93830000D01*
X139797233Y-93611582D01*
X139657300Y-93273724D01*
X139473610Y-93063668D01*
X139655110Y-93063668D01*
X139706257Y-93264187D01*
X140123655Y-93994213D01*
X140788649Y-94508938D01*
X141600000Y-94730000D01*
X142350000Y-94730000D01*
X142350000Y-92730000D01*
X142650000Y-92730000D01*
X142650000Y-94730000D01*
X143400000Y-94730000D01*
X144211351Y-94508938D01*
X144876345Y-93994213D01*
X145293743Y-93264187D01*
X145344890Y-93063668D01*
X145294505Y-92730000D01*
X142650000Y-92730000D01*
X142350000Y-92730000D01*
X142350000Y-92730000D01*
X139705495Y-92730000D01*
X139655110Y-93063668D01*
X139473610Y-93063668D01*
X139293597Y-92857819D01*
X138798420Y-92612756D01*
X138580000Y-92671955D01*
X138280000Y-92671955D01*
X138280000Y-92671955D01*
X138061580Y-92612756D01*
X137566403Y-92857819D01*
X137202700Y-93273724D01*
X137062767Y-93611582D01*
X135890898Y-93611582D01*
X135890898Y-93116400D01*
X135872403Y-93021076D01*
X135817367Y-92937295D01*
X135734284Y-92881212D01*
X135636000Y-92861502D01*
X133604000Y-92861502D01*
X133508676Y-92879997D01*
X133424895Y-92935033D01*
X133368812Y-93018116D01*
X133349102Y-93116400D01*
X122270000Y-93116400D01*
X122270000Y-92206237D01*
X122402566Y-92404636D01*
X122763844Y-92646034D01*
X123190000Y-92730802D01*
X123616156Y-92646034D01*
X123977434Y-92404636D01*
X124183435Y-92096332D01*
X139655110Y-92096332D01*
X139705495Y-92430000D01*
X142350000Y-92430000D01*
X142350000Y-90430000D01*
X142650000Y-90430000D01*
X142650000Y-92430000D01*
X145294505Y-92430000D01*
X145344890Y-92096332D01*
X145293743Y-91895813D01*
X144876345Y-91165787D01*
X144211351Y-90651062D01*
X143400000Y-90430000D01*
X142650000Y-90430000D01*
X142350000Y-90430000D01*
X142350000Y-90430000D01*
X141600000Y-90430000D01*
X140788649Y-90651062D01*
X140123655Y-91165787D01*
X139706257Y-91895813D01*
X139655110Y-92096332D01*
X124183435Y-92096332D01*
X124218832Y-92043358D01*
X124303600Y-91617202D01*
X124303600Y-91262798D01*
X124218832Y-90836642D01*
X123977434Y-90475364D01*
X123801549Y-90357841D01*
X127956336Y-90357841D01*
X128100432Y-90706580D01*
X128367017Y-90973630D01*
X128715504Y-91118335D01*
X129092841Y-91118664D01*
X129405468Y-90989489D01*
X133377643Y-90989489D01*
X133453951Y-91156121D01*
X133871748Y-91284281D01*
X134306785Y-91242800D01*
X134516049Y-91156121D01*
X134592357Y-90989489D01*
X133985000Y-90382132D01*
X133377643Y-90989489D01*
X129405468Y-90989489D01*
X129441580Y-90974568D01*
X129708630Y-90707983D01*
X129853335Y-90359496D01*
X129853598Y-90056748D01*
X132870719Y-90056748D01*
X132912200Y-90491785D01*
X132998879Y-90701049D01*
X133165511Y-90777357D01*
X133772868Y-90170000D01*
X134197132Y-90170000D01*
X134804489Y-90777357D01*
X134971121Y-90701049D01*
X135099281Y-90283252D01*
X135057800Y-89848215D01*
X134971121Y-89638951D01*
X134804489Y-89562643D01*
X134197132Y-90170000D01*
X133772868Y-90170000D01*
X133772868Y-90170000D01*
X133165511Y-89562643D01*
X132998879Y-89638951D01*
X132870719Y-90056748D01*
X129853598Y-90056748D01*
X129853664Y-89982159D01*
X129709568Y-89633420D01*
X129442983Y-89366370D01*
X129404791Y-89350511D01*
X133377643Y-89350511D01*
X133985000Y-89957868D01*
X134592357Y-89350511D01*
X134516049Y-89183879D01*
X134098252Y-89055719D01*
X133663215Y-89097200D01*
X133453951Y-89183879D01*
X133377643Y-89350511D01*
X129404791Y-89350511D01*
X129094496Y-89221665D01*
X128717159Y-89221336D01*
X128368420Y-89365432D01*
X128101370Y-89632017D01*
X127956665Y-89980504D01*
X127956336Y-90357841D01*
X123801549Y-90357841D01*
X123616156Y-90233966D01*
X123190000Y-90149198D01*
X122763844Y-90233966D01*
X122402566Y-90475364D01*
X122270000Y-90673763D01*
X122270000Y-89535000D01*
X122243358Y-89401061D01*
X122220178Y-89366370D01*
X122167488Y-89287513D01*
X121635000Y-88755026D01*
X121635000Y-87500000D01*
X140205920Y-87500000D01*
X140320101Y-88074025D01*
X140645260Y-88560660D01*
X141131895Y-88885819D01*
X141705920Y-89000000D01*
X143294080Y-89000000D01*
X143868105Y-88885819D01*
X144354740Y-88560660D01*
X144679899Y-88074025D01*
X144764243Y-87650000D01*
X145430000Y-87650000D01*
X145430000Y-88400000D01*
X145651062Y-89211351D01*
X146165787Y-89876345D01*
X146895813Y-90293743D01*
X147096332Y-90344890D01*
X147430000Y-90294505D01*
X147430000Y-87650000D01*
X145430000Y-87650000D01*
X144764243Y-87650000D01*
X144794080Y-87500000D01*
X144679899Y-86925975D01*
X144462090Y-86600000D01*
X145430000Y-86600000D01*
X145430000Y-87350000D01*
X147430000Y-87350000D01*
X147430000Y-84705495D01*
X147096332Y-84655110D01*
X146895813Y-84706257D01*
X146165787Y-85123655D01*
X145651062Y-85788649D01*
X145430000Y-86600000D01*
X144462090Y-86600000D01*
X144354740Y-86439340D01*
X143868105Y-86114181D01*
X143294080Y-86000000D01*
X141705920Y-86000000D01*
X141131895Y-86114181D01*
X140645260Y-86439340D01*
X140320101Y-86925975D01*
X140205920Y-87500000D01*
X121635000Y-87500000D01*
X121635000Y-82737841D01*
X127956336Y-82737841D01*
X128100432Y-83086580D01*
X128367017Y-83353630D01*
X128715504Y-83498335D01*
X129092841Y-83498664D01*
X129405468Y-83369489D01*
X133377643Y-83369489D01*
X133453951Y-83536121D01*
X133871748Y-83664281D01*
X134306785Y-83622800D01*
X134516049Y-83536121D01*
X134592357Y-83369489D01*
X133985000Y-82762132D01*
X133377643Y-83369489D01*
X129405468Y-83369489D01*
X129441580Y-83354568D01*
X129708630Y-83087983D01*
X129853335Y-82739496D01*
X129853598Y-82436748D01*
X132870719Y-82436748D01*
X132912200Y-82871785D01*
X132998879Y-83081049D01*
X133165511Y-83157357D01*
X133772868Y-82550000D01*
X134197132Y-82550000D01*
X134804489Y-83157357D01*
X134971121Y-83081049D01*
X135025532Y-82903668D01*
X139655110Y-82903668D01*
X139706257Y-83104187D01*
X140123655Y-83834213D01*
X140788649Y-84348938D01*
X141600000Y-84570000D01*
X142350000Y-84570000D01*
X142350000Y-82570000D01*
X142650000Y-82570000D01*
X142650000Y-84570000D01*
X143400000Y-84570000D01*
X144211351Y-84348938D01*
X144876345Y-83834213D01*
X145293743Y-83104187D01*
X145344890Y-82903668D01*
X145294505Y-82570000D01*
X142650000Y-82570000D01*
X142350000Y-82570000D01*
X142350000Y-82570000D01*
X139705495Y-82570000D01*
X139655110Y-82903668D01*
X135025532Y-82903668D01*
X135099281Y-82663252D01*
X135057800Y-82228215D01*
X134971121Y-82018951D01*
X134804489Y-81942643D01*
X134197132Y-82550000D01*
X133772868Y-82550000D01*
X133772868Y-82550000D01*
X133165511Y-81942643D01*
X132998879Y-82018951D01*
X132870719Y-82436748D01*
X129853598Y-82436748D01*
X129853664Y-82362159D01*
X129709568Y-82013420D01*
X129442983Y-81746370D01*
X129404791Y-81730511D01*
X133377643Y-81730511D01*
X133985000Y-82337868D01*
X134386536Y-81936332D01*
X139655110Y-81936332D01*
X139705495Y-82270000D01*
X142350000Y-82270000D01*
X142350000Y-80270000D01*
X142650000Y-80270000D01*
X142650000Y-82270000D01*
X145294505Y-82270000D01*
X145344890Y-81936332D01*
X145293743Y-81735813D01*
X144876345Y-81005787D01*
X144211351Y-80491062D01*
X143400000Y-80270000D01*
X142650000Y-80270000D01*
X142350000Y-80270000D01*
X142350000Y-80270000D01*
X141600000Y-80270000D01*
X140788649Y-80491062D01*
X140123655Y-81005787D01*
X139706257Y-81735813D01*
X139655110Y-81936332D01*
X134386536Y-81936332D01*
X134592357Y-81730511D01*
X134516049Y-81563879D01*
X134098252Y-81435719D01*
X133663215Y-81477200D01*
X133453951Y-81563879D01*
X133377643Y-81730511D01*
X129404791Y-81730511D01*
X129094496Y-81601665D01*
X128717159Y-81601336D01*
X128368420Y-81745432D01*
X128101370Y-82012017D01*
X127956665Y-82360504D01*
X127956336Y-82737841D01*
X121635000Y-82737841D01*
X121635000Y-77937447D01*
X142628239Y-77937447D01*
X143028310Y-78394320D01*
X144477346Y-78890475D01*
X146005951Y-78794341D01*
X146971690Y-78394320D01*
X147371761Y-77937447D01*
X145000000Y-75565685D01*
X142628239Y-77937447D01*
X121635000Y-77937447D01*
X121635000Y-77192101D01*
X121708633Y-77118597D01*
X121784913Y-76934893D01*
X121785087Y-76735980D01*
X121709127Y-76552143D01*
X121568597Y-76411367D01*
X121384893Y-76335087D01*
X121185980Y-76334913D01*
X121002143Y-76410873D01*
X121000000Y-76413012D01*
X121000000Y-74652101D01*
X121073633Y-74578597D01*
X121115675Y-74477346D01*
X141109525Y-74477346D01*
X141205659Y-76005951D01*
X141605680Y-76971690D01*
X142062553Y-77371761D01*
X144434315Y-75000000D01*
X145565685Y-75000000D01*
X147937447Y-77371761D01*
X148394320Y-76971690D01*
X148890475Y-75522654D01*
X148794341Y-73994049D01*
X148394320Y-73028310D01*
X147937447Y-72628239D01*
X145565685Y-75000000D01*
X144434315Y-75000000D01*
X144434315Y-75000000D01*
X142062553Y-72628239D01*
X141605680Y-73028310D01*
X141109525Y-74477346D01*
X121115675Y-74477346D01*
X121149913Y-74394893D01*
X121150087Y-74195980D01*
X121074127Y-74012143D01*
X120933597Y-73871367D01*
X120749893Y-73795087D01*
X120550980Y-73794913D01*
X120367143Y-73870873D01*
X120226367Y-74011403D01*
X120150087Y-74195107D01*
X120149913Y-74394020D01*
X120225873Y-74577857D01*
X120300000Y-74652114D01*
X120300000Y-89177899D01*
X120226367Y-89251403D01*
X120150087Y-89435107D01*
X120149913Y-89634020D01*
X120225873Y-89817857D01*
X120366403Y-89958633D01*
X120550107Y-90034913D01*
X120749020Y-90035087D01*
X120932857Y-89959127D01*
X121073633Y-89818597D01*
X121149913Y-89634893D01*
X121150087Y-89435980D01*
X121074127Y-89252143D01*
X121000000Y-89177886D01*
X121000000Y-89091345D01*
X121037513Y-89147487D01*
X121570000Y-89679975D01*
X121570000Y-90673763D01*
X121437434Y-90475364D01*
X121076156Y-90233966D01*
X120650000Y-90149198D01*
X120223844Y-90233966D01*
X119862566Y-90475364D01*
X119621168Y-90836642D01*
X119536400Y-91262798D01*
X119228498Y-91262798D01*
X119228498Y-90424000D01*
X119210003Y-90328676D01*
X119154967Y-90244895D01*
X119071884Y-90188812D01*
X118973600Y-90169102D01*
X117246400Y-90169102D01*
X117151076Y-90187597D01*
X117067295Y-90242633D01*
X117011212Y-90325716D01*
X116991502Y-90424000D01*
X112470563Y-90424000D01*
X112186156Y-90233966D01*
X111760000Y-90149198D01*
X111333844Y-90233966D01*
X110972566Y-90475364D01*
X110731168Y-90836642D01*
X110646400Y-91262798D01*
X110333600Y-91262798D01*
X110333600Y-91262798D01*
X110248832Y-90836642D01*
X110007434Y-90475364D01*
X109646156Y-90233966D01*
X109220000Y-90149198D01*
X108793844Y-90233966D01*
X108432566Y-90475364D01*
X108300000Y-90673763D01*
X108300000Y-89634020D01*
X108719913Y-89634020D01*
X108795873Y-89817857D01*
X108936403Y-89958633D01*
X109120107Y-90034913D01*
X109319020Y-90035087D01*
X109502857Y-89959127D01*
X109577114Y-89885000D01*
X111125000Y-89885000D01*
X111258939Y-89858358D01*
X111372487Y-89782487D01*
X112642487Y-88512488D01*
X112642489Y-88512485D01*
X117469978Y-83684996D01*
X117574020Y-83685087D01*
X117757857Y-83609127D01*
X117898633Y-83468597D01*
X117974913Y-83284893D01*
X117975087Y-83085980D01*
X117899127Y-82902143D01*
X117758597Y-82761367D01*
X117574893Y-82685087D01*
X117375980Y-82684913D01*
X117192143Y-82760873D01*
X117051367Y-82901403D01*
X116975087Y-83085107D01*
X116974995Y-83190031D01*
X112147515Y-88017511D01*
X112147512Y-88017513D01*
X110980026Y-89185000D01*
X109577101Y-89185000D01*
X109503597Y-89111367D01*
X109319893Y-89035087D01*
X109120980Y-89034913D01*
X108937143Y-89110873D01*
X108796367Y-89251403D01*
X108720087Y-89435107D01*
X108719913Y-89634020D01*
X108300000Y-89634020D01*
X108300000Y-84586237D01*
X108432566Y-84784636D01*
X108793844Y-85026034D01*
X109220000Y-85110802D01*
X109646156Y-85026034D01*
X110007434Y-84784636D01*
X110248832Y-84423358D01*
X110333600Y-83997202D01*
X110333600Y-83642798D01*
X110646400Y-83642798D01*
X110646400Y-83997202D01*
X110731168Y-84423358D01*
X110972566Y-84784636D01*
X111333844Y-85026034D01*
X111760000Y-85110802D01*
X112186156Y-85026034D01*
X112547434Y-84784636D01*
X112788832Y-84423358D01*
X112873600Y-83997202D01*
X112873600Y-83642798D01*
X112788832Y-83216642D01*
X112547434Y-82855364D01*
X112186156Y-82613966D01*
X111760000Y-82529198D01*
X111333844Y-82613966D01*
X110972566Y-82855364D01*
X110731168Y-83216642D01*
X110646400Y-83642798D01*
X110333600Y-83642798D01*
X110333600Y-83642798D01*
X110248832Y-83216642D01*
X110007434Y-82855364D01*
X109646156Y-82613966D01*
X109220000Y-82529198D01*
X108793844Y-82613966D01*
X108432566Y-82855364D01*
X108300000Y-83053763D01*
X108300000Y-82694974D01*
X108729975Y-82265000D01*
X110490000Y-82265000D01*
X110623939Y-82238358D01*
X110737487Y-82162487D01*
X111372488Y-81527487D01*
X111448358Y-81413939D01*
X111475000Y-81280000D01*
X111475000Y-80168365D01*
X111933045Y-79710320D01*
X115957848Y-79710320D01*
X116046007Y-79798633D01*
X116229711Y-79874913D01*
X116428624Y-79875087D01*
X116612461Y-79799127D01*
X116753237Y-79658597D01*
X116829517Y-79474893D01*
X116829691Y-79275980D01*
X116753731Y-79092143D01*
X116613201Y-78951367D01*
X116429497Y-78875087D01*
X116230584Y-78874913D01*
X116046747Y-78950873D01*
X115987196Y-79010320D01*
X111788071Y-79010320D01*
X111654132Y-79036962D01*
X111540584Y-79112833D01*
X110877513Y-79775904D01*
X110801642Y-79889452D01*
X110775000Y-80023391D01*
X110775000Y-81135025D01*
X110345026Y-81565000D01*
X108585000Y-81565000D01*
X108451061Y-81591642D01*
X108337513Y-81667512D01*
X107702513Y-82302513D01*
X107626642Y-82416061D01*
X107600000Y-82550000D01*
X107600000Y-82560413D01*
X107543600Y-82549102D01*
X105816400Y-82549102D01*
X105721076Y-82567597D01*
X105637295Y-82622633D01*
X105581212Y-82705716D01*
X105561502Y-82804000D01*
X100300000Y-82804000D01*
X100300000Y-77937447D01*
X102628239Y-77937447D01*
X103028310Y-78394320D01*
X104477346Y-78890475D01*
X106005951Y-78794341D01*
X106971690Y-78394320D01*
X107371761Y-77937447D01*
X105000000Y-75565685D01*
X102628239Y-77937447D01*
X100300000Y-77937447D01*
X100300000Y-74477346D01*
X101109525Y-74477346D01*
X101205659Y-76005951D01*
X101605680Y-76971690D01*
X102062553Y-77371761D01*
X104434315Y-75000000D01*
X105565685Y-75000000D01*
X107937447Y-77371761D01*
X108394320Y-76971690D01*
X108890475Y-75522654D01*
X108794341Y-73994049D01*
X108394320Y-73028310D01*
X107937447Y-72628239D01*
X105565685Y-75000000D01*
X104434315Y-75000000D01*
X104434315Y-75000000D01*
X102062553Y-72628239D01*
X101605680Y-73028310D01*
X101109525Y-74477346D01*
X100300000Y-74477346D01*
X100300000Y-72062553D01*
X102628239Y-72062553D01*
X105000000Y-74434315D01*
X107371761Y-72062553D01*
X142628239Y-72062553D01*
X145000000Y-74434315D01*
X147371761Y-72062553D01*
X146971690Y-71605680D01*
X145522654Y-71109525D01*
X143994049Y-71205659D01*
X143028310Y-71605680D01*
X142628239Y-72062553D01*
X107371761Y-72062553D01*
X107371761Y-72062553D01*
X106971690Y-71605680D01*
X105522654Y-71109525D01*
X103994049Y-71205659D01*
X103028310Y-71605680D01*
X102628239Y-72062553D01*
X100300000Y-72062553D01*
X100300000Y-70300000D01*
X149700000Y-70300000D01*
X149700000Y-86489893D01*
M02*
