G04 #@! TF.FileFunction,Soldermask,Bot*
%FSLAX46Y46*%
G04 Gerber Fmt 4.6, Leading zero omitted, Abs format (unit mm)*
G04 Created by KiCad (PCBNEW (2015-07-22 BZR 5980)-product) date Montag, 16. Mai 2016 'u14' 16:14:33*
%MOMM*%
G01*
G04 APERTURE LIST*
%ADD10C,0.100000*%
%ADD11C,0.500000*%
%ADD12C,6.500000*%
%ADD13C,1.501140*%
%ADD14C,1.699260*%
%ADD15R,1.699260X1.699260*%
%ADD16O,3.500000X5.000000*%
%ADD17O,5.000000X3.500000*%
%ADD18O,4.000000X2.500000*%
%ADD19R,2.032000X1.727200*%
%ADD20O,2.032000X1.727200*%
%ADD21R,1.727200X2.032000*%
%ADD22O,1.727200X2.032000*%
%ADD23C,1.998980*%
%ADD24R,1.727200X1.727200*%
%ADD25O,1.727200X1.727200*%
%ADD26C,1.397000*%
%ADD27O,2.300000X1.600000*%
%ADD28O,2.500000X1.800000*%
%ADD29C,4.000000*%
%ADD30R,2.032000X2.032000*%
%ADD31O,2.032000X2.032000*%
G04 APERTURE END LIST*
D10*
D11*
X113030000Y-74930000D03*
X114300000Y-74930000D03*
X114300000Y-76200000D03*
X113030000Y-76200000D03*
D12*
X105000000Y-75000000D03*
X145000000Y-75000000D03*
X145000000Y-145000000D03*
D11*
X119380000Y-113030000D03*
X117475000Y-118110000D03*
X121920000Y-113030000D03*
X117475000Y-115570000D03*
X121285000Y-120650000D03*
X121920000Y-121285000D03*
X116205000Y-128270000D03*
X116205000Y-129540000D03*
X106680000Y-86360000D03*
X105410000Y-86360000D03*
X114300000Y-82550000D03*
X114300000Y-83820000D03*
X114935000Y-90170000D03*
X114935000Y-91440000D03*
X114935000Y-92710000D03*
X127000000Y-128270000D03*
X125730000Y-128270000D03*
X124460000Y-128270000D03*
X123190000Y-128270000D03*
X108585000Y-127000000D03*
X108585000Y-129540000D03*
X108585000Y-132080000D03*
X131445000Y-130175000D03*
X130810000Y-130810000D03*
X123190000Y-125730000D03*
X124460000Y-125730000D03*
X125730000Y-125730000D03*
X127000000Y-125730000D03*
X128270000Y-125730000D03*
D12*
X105000000Y-145000000D03*
D13*
X104140000Y-138430000D03*
X106680000Y-138430000D03*
D14*
X104140000Y-121920000D03*
D15*
X114300000Y-121920000D03*
D16*
X147580000Y-87500000D03*
D17*
X142500000Y-92580000D03*
X142500000Y-82420000D03*
D18*
X142500000Y-87500000D03*
D16*
X147580000Y-132500000D03*
D17*
X142500000Y-137580000D03*
X142500000Y-127420000D03*
D18*
X142500000Y-132500000D03*
D19*
X134620000Y-93980000D03*
D20*
X134620000Y-96520000D03*
X134620000Y-99060000D03*
D19*
X134620000Y-125730000D03*
D20*
X134620000Y-123190000D03*
X134620000Y-120650000D03*
D21*
X106680000Y-91440000D03*
D22*
X109220000Y-91440000D03*
X111760000Y-91440000D03*
D21*
X118110000Y-91440000D03*
D22*
X120650000Y-91440000D03*
X123190000Y-91440000D03*
D21*
X118110000Y-99060000D03*
D22*
X120650000Y-99060000D03*
X123190000Y-99060000D03*
D21*
X106680000Y-83820000D03*
D22*
X109220000Y-83820000D03*
X111760000Y-83820000D03*
D21*
X106680000Y-99060000D03*
D22*
X109220000Y-99060000D03*
X111760000Y-99060000D03*
D13*
X114300000Y-118110000D03*
X111760000Y-118110000D03*
D23*
X118745000Y-106680000D03*
X118745000Y-116840000D03*
D24*
X130810000Y-143510000D03*
D25*
X130810000Y-146050000D03*
X128270000Y-143510000D03*
X128270000Y-146050000D03*
X125730000Y-143510000D03*
X125730000Y-146050000D03*
X123190000Y-143510000D03*
X123190000Y-146050000D03*
X120650000Y-143510000D03*
X120650000Y-146050000D03*
X118110000Y-143510000D03*
X118110000Y-146050000D03*
X115570000Y-143510000D03*
X115570000Y-146050000D03*
X113030000Y-143510000D03*
X113030000Y-146050000D03*
D26*
X128905000Y-82550000D03*
X133985000Y-82550000D03*
X128905000Y-90170000D03*
X133985000Y-90170000D03*
D27*
X104140000Y-125730000D03*
X104140000Y-128270000D03*
X104140000Y-130810000D03*
X104140000Y-133350000D03*
X111760000Y-133350000D03*
X111760000Y-130810000D03*
X111760000Y-128270000D03*
X111760000Y-125730000D03*
D28*
X142500000Y-99960000D03*
X142500000Y-102500000D03*
X142500000Y-105040000D03*
D29*
X146310000Y-106310000D03*
X146310000Y-98690000D03*
D28*
X142500000Y-114960000D03*
X142500000Y-117500000D03*
X142500000Y-120040000D03*
D29*
X146310000Y-121310000D03*
X146310000Y-113690000D03*
D30*
X138430000Y-96520000D03*
D31*
X138430000Y-93980000D03*
D30*
X138430000Y-123190000D03*
D31*
X138430000Y-125730000D03*
D13*
X105410000Y-114300000D03*
X107950000Y-114300000D03*
D23*
X123190000Y-111125000D03*
X133350000Y-111125000D03*
X123190000Y-114300000D03*
X133350000Y-114300000D03*
M02*
