M48
;DRILL file {KiCad (2015-07-22 BZR 5980)-product} date Montag, 16. Mai 2016 'u14' 16:14:35
;FORMAT={-:-/ absolute / metric / decimal}
FMAT,2
METRIC,TZ
T1C0.300
T2C0.701
T3C0.800
T4C0.800
T5C0.813
T6C1.001
T7C1.016
T8C1.500
T9C2.400
T10C3.200
T11C3.300
%
G90
G05
M71
T1
X105.41Y-86.36
X106.68Y-86.36
X108.585Y-127.
X108.585Y-129.54
X108.585Y-132.08
X109.22Y-89.535
X109.22Y-97.155
X113.03Y-74.93
X113.03Y-76.2
X114.3Y-74.93
X114.3Y-76.2
X114.3Y-82.55
X114.3Y-83.82
X114.935Y-90.17
X114.935Y-91.44
X114.935Y-92.71
X114.935Y-101.6
X114.935Y-105.41
X116.205Y-128.27
X116.205Y-129.54
X116.33Y-79.375
X117.475Y-83.185
X117.475Y-115.57
X117.475Y-118.11
X119.38Y-113.03
X120.65Y-74.295
X120.65Y-89.535
X120.65Y-97.155
X121.285Y-76.835
X121.285Y-120.65
X121.92Y-113.03
X121.92Y-121.285
X123.07Y-133.985
X123.19Y-125.73
X123.19Y-128.27
X123.705Y-133.35
X124.34Y-132.715
X124.46Y-118.11
X124.46Y-125.73
X124.46Y-128.27
X124.46Y-137.16
X124.975Y-132.08
X125.095Y-136.525
X125.73Y-125.73
X125.73Y-128.27
X126.245Y-133.35
X126.88Y-133.985
X127.Y-125.73
X127.Y-128.27
X127.515Y-134.62
X127.635Y-103.505
X128.15Y-135.255
X128.27Y-124.46
X128.27Y-125.73
X129.54Y-128.27
X130.175Y-128.905
X130.81Y-124.46
X130.81Y-130.81
X131.445Y-130.175
T2
X104.14Y-121.92
X114.3Y-121.92
T3
X104.14Y-125.73
X104.14Y-128.27
X104.14Y-130.81
X104.14Y-133.35
X111.76Y-125.73
X111.76Y-128.27
X111.76Y-130.81
X111.76Y-133.35
X142.5Y-99.96
X142.5Y-102.5
X142.5Y-105.04
X142.5Y-114.96
X142.5Y-117.5
X142.5Y-120.04
T4
X104.14Y-138.43
X105.41Y-114.3
X106.68Y-138.43
X107.95Y-114.3
X111.76Y-118.11
X114.3Y-118.11
T5
X128.905Y-82.55
X128.905Y-90.17
X133.985Y-82.55
X133.985Y-90.17
T6
X118.745Y-106.68
X118.745Y-116.84
X123.19Y-111.125
X123.19Y-114.3
X133.35Y-111.125
X133.35Y-114.3
T7
X106.68Y-83.82
X106.68Y-91.44
X106.68Y-99.06
X109.22Y-83.82
X109.22Y-91.44
X109.22Y-99.06
X111.76Y-83.82
X111.76Y-91.44
X111.76Y-99.06
X113.03Y-143.51
X113.03Y-146.05
X115.57Y-143.51
X115.57Y-146.05
X118.11Y-91.44
X118.11Y-99.06
X118.11Y-143.51
X118.11Y-146.05
X120.65Y-91.44
X120.65Y-99.06
X120.65Y-143.51
X120.65Y-146.05
X123.19Y-91.44
X123.19Y-99.06
X123.19Y-143.51
X123.19Y-146.05
X125.73Y-143.51
X125.73Y-146.05
X128.27Y-143.51
X128.27Y-146.05
X130.81Y-143.51
X130.81Y-146.05
X134.62Y-93.98
X134.62Y-96.52
X134.62Y-99.06
X134.62Y-120.65
X134.62Y-123.19
X134.62Y-125.73
X138.43Y-93.98
X138.43Y-96.52
X138.43Y-123.19
X138.43Y-125.73
T8
X142.5Y-87.5
X142.5Y-132.5
T9
X142.5Y-82.42
X142.5Y-92.58
X142.5Y-127.42
X142.5Y-137.58
X147.58Y-87.5
X147.58Y-132.5
T10
X105.Y-75.
X105.Y-145.
X145.Y-75.
X145.Y-145.
T11
X146.31Y-98.69
X146.31Y-106.31
X146.31Y-113.69
X146.31Y-121.31
T0
M30
