G04 #@! TF.FileFunction,Legend,Bot*
%FSLAX46Y46*%
G04 Gerber Fmt 4.6, Leading zero omitted, Abs format (unit mm)*
G04 Created by KiCad (PCBNEW (2015-07-22 BZR 5980)-product) date Montag, 16. Mai 2016 'u14' 16:14:33*
%MOMM*%
G01*
G04 APERTURE LIST*
%ADD10C,0.100000*%
%ADD11C,0.300000*%
%ADD12C,0.500000*%
%ADD13C,0.500000*%
%ADD14C,6.500000*%
%ADD15C,1.501140*%
%ADD16C,1.699260*%
%ADD17R,1.699260X1.699260*%
%ADD18O,3.500000X5.000000*%
%ADD19O,5.000000X3.500000*%
%ADD20O,4.000000X2.500000*%
%ADD21R,2.032000X1.727200*%
%ADD22O,2.032000X1.727200*%
%ADD23R,1.727200X2.032000*%
%ADD24O,1.727200X2.032000*%
%ADD25C,1.998980*%
%ADD26R,1.727200X1.727200*%
%ADD27O,1.727200X1.727200*%
%ADD28C,1.397000*%
%ADD29O,2.300000X1.600000*%
%ADD30O,2.500000X1.800000*%
%ADD31C,4.000000*%
%ADD32R,2.032000X2.032000*%
%ADD33O,2.032000X2.032000*%
G04 APERTURE END LIST*
D10*
D11*
X124352857Y-131930000D02*
X124352857Y-131496667D01*
X125138571Y-131496667D02*
X123638571Y-131496667D01*
X123638571Y-132115714D01*
X125138571Y-133168096D02*
X124352857Y-133168096D01*
X124210000Y-133106191D01*
X124138571Y-132982381D01*
X124138571Y-132734762D01*
X124210000Y-132610953D01*
X125067143Y-133168096D02*
X125138571Y-133044286D01*
X125138571Y-132734762D01*
X125067143Y-132610953D01*
X124924286Y-132549048D01*
X124781429Y-132549048D01*
X124638571Y-132610953D01*
X124567143Y-132734762D01*
X124567143Y-133044286D01*
X124495714Y-133168096D01*
X125138571Y-133787143D02*
X123638571Y-133787143D01*
X124210000Y-133787143D02*
X124138571Y-133910952D01*
X124138571Y-134158571D01*
X124210000Y-134282381D01*
X124281429Y-134344286D01*
X124424286Y-134406190D01*
X124852857Y-134406190D01*
X124995714Y-134344286D01*
X125067143Y-134282381D01*
X125138571Y-134158571D01*
X125138571Y-133910952D01*
X125067143Y-133787143D01*
X125138571Y-134963333D02*
X124138571Y-134963333D01*
X123638571Y-134963333D02*
X123710000Y-134901428D01*
X123781429Y-134963333D01*
X123710000Y-135025238D01*
X123638571Y-134963333D01*
X123781429Y-134963333D01*
X125138571Y-136139524D02*
X124352857Y-136139524D01*
X124210000Y-136077619D01*
X124138571Y-135953809D01*
X124138571Y-135706190D01*
X124210000Y-135582381D01*
X125067143Y-136139524D02*
X125138571Y-136015714D01*
X125138571Y-135706190D01*
X125067143Y-135582381D01*
X124924286Y-135520476D01*
X124781429Y-135520476D01*
X124638571Y-135582381D01*
X124567143Y-135706190D01*
X124567143Y-136015714D01*
X124495714Y-136139524D01*
X124138571Y-136758571D02*
X125138571Y-136758571D01*
X124281429Y-136758571D02*
X124210000Y-136820476D01*
X124138571Y-136944285D01*
X124138571Y-137129999D01*
X124210000Y-137253809D01*
X124352857Y-137315714D01*
X125138571Y-137315714D01*
X123710000Y-139606189D02*
X123638571Y-139482380D01*
X123638571Y-139296665D01*
X123710000Y-139110951D01*
X123852857Y-138987142D01*
X123995714Y-138925237D01*
X124281429Y-138863332D01*
X124495714Y-138863332D01*
X124781429Y-138925237D01*
X124924286Y-138987142D01*
X125067143Y-139110951D01*
X125138571Y-139296665D01*
X125138571Y-139420475D01*
X125067143Y-139606189D01*
X124995714Y-139668094D01*
X124495714Y-139668094D01*
X124495714Y-139420475D01*
X125067143Y-140720475D02*
X125138571Y-140596665D01*
X125138571Y-140349046D01*
X125067143Y-140225237D01*
X124924286Y-140163332D01*
X124352857Y-140163332D01*
X124210000Y-140225237D01*
X124138571Y-140349046D01*
X124138571Y-140596665D01*
X124210000Y-140720475D01*
X124352857Y-140782380D01*
X124495714Y-140782380D01*
X124638571Y-140163332D01*
X125138571Y-141339523D02*
X124138571Y-141339523D01*
X123638571Y-141339523D02*
X123710000Y-141277618D01*
X123781429Y-141339523D01*
X123710000Y-141401428D01*
X123638571Y-141339523D01*
X123781429Y-141339523D01*
X125138571Y-141958571D02*
X123924286Y-141958571D01*
X123781429Y-142020476D01*
X123710000Y-142082380D01*
X123638571Y-142206190D01*
X123638571Y-142391904D01*
X123710000Y-142515714D01*
X123781429Y-142577618D01*
X123924286Y-142639523D01*
X124138571Y-142639523D01*
X124138571Y-142453809D01*
X124210000Y-142329999D01*
X124352857Y-142268095D01*
X124424286Y-142268095D01*
X124567143Y-142329999D01*
X124638571Y-142453809D01*
X124638571Y-142639523D01*
X124710000Y-142763333D01*
X124852857Y-142825237D01*
X124924286Y-142825237D01*
X125067143Y-142763333D01*
X125138571Y-142639523D01*
X125138571Y-142391904D01*
X125067143Y-142268095D01*
X125138571Y-143568095D02*
X125067143Y-143444286D01*
X124924286Y-143382381D01*
X123638571Y-143382381D01*
X125067143Y-144558571D02*
X125138571Y-144434761D01*
X125138571Y-144187142D01*
X125067143Y-144063333D01*
X124924286Y-144001428D01*
X124352857Y-144001428D01*
X124210000Y-144063333D01*
X124138571Y-144187142D01*
X124138571Y-144434761D01*
X124210000Y-144558571D01*
X124352857Y-144620476D01*
X124495714Y-144620476D01*
X124638571Y-144001428D01*
X125138571Y-145177619D02*
X124138571Y-145177619D01*
X124424286Y-145177619D02*
X124281429Y-145239524D01*
X124210000Y-145301428D01*
X124138571Y-145425238D01*
X124138571Y-145549047D01*
D12*
X131214286Y-76571429D02*
X131357143Y-77000000D01*
X131357143Y-77714286D01*
X131214286Y-78000000D01*
X131071429Y-78142857D01*
X130785714Y-78285714D01*
X130500000Y-78285714D01*
X130214286Y-78142857D01*
X130071429Y-78000000D01*
X129928571Y-77714286D01*
X129785714Y-77142857D01*
X129642857Y-76857143D01*
X129500000Y-76714286D01*
X129214286Y-76571429D01*
X128928571Y-76571429D01*
X128642857Y-76714286D01*
X128500000Y-76857143D01*
X128357143Y-77142857D01*
X128357143Y-77857143D01*
X128500000Y-78285714D01*
X128214286Y-81714286D02*
X132071429Y-79142857D01*
X131357143Y-82714286D02*
X128357143Y-82714286D01*
X128357143Y-83857143D01*
X128500000Y-84142857D01*
X128642857Y-84285714D01*
X128928571Y-84428571D01*
X129357143Y-84428571D01*
X129642857Y-84285714D01*
X129785714Y-84142857D01*
X129928571Y-83857143D01*
X129928571Y-82714286D01*
X131357143Y-85714286D02*
X128357143Y-85714286D01*
X128357143Y-86428571D01*
X128500000Y-86857143D01*
X128785714Y-87142857D01*
X129071429Y-87285714D01*
X129642857Y-87428571D01*
X130071429Y-87428571D01*
X130642857Y-87285714D01*
X130928571Y-87142857D01*
X131214286Y-86857143D01*
X131357143Y-86428571D01*
X131357143Y-85714286D01*
X131357143Y-88714286D02*
X128357143Y-88714286D01*
X129785714Y-91142857D02*
X129785714Y-90142857D01*
X131357143Y-90142857D02*
X128357143Y-90142857D01*
X128357143Y-91571428D01*
X128357143Y-94571428D02*
X128357143Y-96285714D01*
X131357143Y-95428571D02*
X128357143Y-95428571D01*
X131357143Y-97285714D02*
X129357143Y-97285714D01*
X129928571Y-97285714D02*
X129642857Y-97428571D01*
X129500000Y-97571428D01*
X129357143Y-97857142D01*
X129357143Y-98142857D01*
X131357143Y-100428571D02*
X129785714Y-100428571D01*
X129500000Y-100285714D01*
X129357143Y-100000000D01*
X129357143Y-99428571D01*
X129500000Y-99142857D01*
X131214286Y-100428571D02*
X131357143Y-100142857D01*
X131357143Y-99428571D01*
X131214286Y-99142857D01*
X130928571Y-99000000D01*
X130642857Y-99000000D01*
X130357143Y-99142857D01*
X130214286Y-99428571D01*
X130214286Y-100142857D01*
X130071429Y-100428571D01*
X129357143Y-101857143D02*
X131357143Y-101857143D01*
X129642857Y-101857143D02*
X129500000Y-102000000D01*
X129357143Y-102285714D01*
X129357143Y-102714286D01*
X129500000Y-103000000D01*
X129785714Y-103142857D01*
X131357143Y-103142857D01*
X131214286Y-104428572D02*
X131357143Y-104714286D01*
X131357143Y-105285714D01*
X131214286Y-105571429D01*
X130928571Y-105714286D01*
X130785714Y-105714286D01*
X130500000Y-105571429D01*
X130357143Y-105285714D01*
X130357143Y-104857143D01*
X130214286Y-104571429D01*
X129928571Y-104428572D01*
X129785714Y-104428572D01*
X129500000Y-104571429D01*
X129357143Y-104857143D01*
X129357143Y-105285714D01*
X129500000Y-105571429D01*
X131214286Y-108285714D02*
X131357143Y-108000000D01*
X131357143Y-107428571D01*
X131214286Y-107142857D01*
X131071429Y-107000000D01*
X130785714Y-106857143D01*
X129928571Y-106857143D01*
X129642857Y-107000000D01*
X129500000Y-107142857D01*
X129357143Y-107428571D01*
X129357143Y-108000000D01*
X129500000Y-108285714D01*
X131214286Y-110714286D02*
X131357143Y-110428572D01*
X131357143Y-109857143D01*
X131214286Y-109571429D01*
X130928571Y-109428572D01*
X129785714Y-109428572D01*
X129500000Y-109571429D01*
X129357143Y-109857143D01*
X129357143Y-110428572D01*
X129500000Y-110714286D01*
X129785714Y-110857143D01*
X130071429Y-110857143D01*
X130357143Y-109428572D01*
X131357143Y-112142858D02*
X129357143Y-112142858D01*
X128357143Y-112142858D02*
X128500000Y-112000001D01*
X128642857Y-112142858D01*
X128500000Y-112285715D01*
X128357143Y-112142858D01*
X128642857Y-112142858D01*
X129357143Y-113285714D02*
X131357143Y-114000000D01*
X129357143Y-114714286D01*
X131214286Y-117000000D02*
X131357143Y-116714286D01*
X131357143Y-116142857D01*
X131214286Y-115857143D01*
X130928571Y-115714286D01*
X129785714Y-115714286D01*
X129500000Y-115857143D01*
X129357143Y-116142857D01*
X129357143Y-116714286D01*
X129500000Y-117000000D01*
X129785714Y-117142857D01*
X130071429Y-117142857D01*
X130357143Y-115714286D01*
X131357143Y-118428572D02*
X129357143Y-118428572D01*
X129928571Y-118428572D02*
X129642857Y-118571429D01*
X129500000Y-118714286D01*
X129357143Y-119000000D01*
X129357143Y-119285715D01*
X128357143Y-122142857D02*
X131357143Y-123142857D01*
X128357143Y-124142857D01*
X128357143Y-125714286D02*
X128357143Y-126000001D01*
X128500000Y-126285715D01*
X128642857Y-126428572D01*
X128928571Y-126571429D01*
X129500000Y-126714286D01*
X130214286Y-126714286D01*
X130785714Y-126571429D01*
X131071429Y-126428572D01*
X131214286Y-126285715D01*
X131357143Y-126000001D01*
X131357143Y-125714286D01*
X131214286Y-125428572D01*
X131071429Y-125285715D01*
X130785714Y-125142858D01*
X130214286Y-125000001D01*
X129500000Y-125000001D01*
X128928571Y-125142858D01*
X128642857Y-125285715D01*
X128500000Y-125428572D01*
X128357143Y-125714286D01*
X131071429Y-128000001D02*
X131214286Y-128142858D01*
X131357143Y-128000001D01*
X131214286Y-127857144D01*
X131071429Y-128000001D01*
X131357143Y-128000001D01*
X131357143Y-131000000D02*
X131357143Y-129285715D01*
X131357143Y-130142857D02*
X128357143Y-130142857D01*
X128785714Y-129857143D01*
X129071429Y-129571429D01*
X129214286Y-129285715D01*
D10*
G36*
X120685718Y-87241600D02*
X120731316Y-86372852D01*
X120760517Y-85936099D01*
X120802844Y-85647633D01*
X120873707Y-85452553D01*
X120988516Y-85295960D01*
X121052151Y-85229852D01*
X121327389Y-84955600D01*
X123914894Y-84985841D01*
X126502400Y-85016082D01*
X126502400Y-83786761D01*
X126502400Y-82557439D01*
X123276600Y-82588119D01*
X122379406Y-82597169D01*
X121661734Y-82606502D01*
X121099913Y-82617783D01*
X120670269Y-82632675D01*
X120349131Y-82652841D01*
X120112824Y-82679945D01*
X119937677Y-82715651D01*
X119800017Y-82761621D01*
X119676172Y-82819520D01*
X119628827Y-82844451D01*
X119129987Y-83206990D01*
X118736131Y-83682985D01*
X118494688Y-84214120D01*
X118484973Y-84250852D01*
X118441611Y-84525846D01*
X118406232Y-84945876D01*
X118382585Y-85452822D01*
X118374399Y-85965790D01*
X118374400Y-87241600D01*
X119530059Y-87241600D01*
X120685718Y-87241600D01*
X120685718Y-87241600D01*
X120685718Y-87241600D01*
G37*
X120685718Y-87241600D02*
X120731316Y-86372852D01*
X120760517Y-85936099D01*
X120802844Y-85647633D01*
X120873707Y-85452553D01*
X120988516Y-85295960D01*
X121052151Y-85229852D01*
X121327389Y-84955600D01*
X123914894Y-84985841D01*
X126502400Y-85016082D01*
X126502400Y-83786761D01*
X126502400Y-82557439D01*
X123276600Y-82588119D01*
X122379406Y-82597169D01*
X121661734Y-82606502D01*
X121099913Y-82617783D01*
X120670269Y-82632675D01*
X120349131Y-82652841D01*
X120112824Y-82679945D01*
X119937677Y-82715651D01*
X119800017Y-82761621D01*
X119676172Y-82819520D01*
X119628827Y-82844451D01*
X119129987Y-83206990D01*
X118736131Y-83682985D01*
X118494688Y-84214120D01*
X118484973Y-84250852D01*
X118441611Y-84525846D01*
X118406232Y-84945876D01*
X118382585Y-85452822D01*
X118374399Y-85965790D01*
X118374400Y-87241600D01*
X119530059Y-87241600D01*
X120685718Y-87241600D01*
X120685718Y-87241600D01*
G36*
X126502400Y-94861600D02*
X126495323Y-92601000D01*
X126488759Y-91767673D01*
X126473907Y-91111756D01*
X126449288Y-90607571D01*
X126413422Y-90229443D01*
X126364828Y-89951693D01*
X126336592Y-89846630D01*
X126073078Y-89310631D01*
X125706453Y-88874376D01*
X125021318Y-88331411D01*
X124213944Y-87946518D01*
X123293203Y-87722525D01*
X122267967Y-87662264D01*
X121948839Y-87676046D01*
X120976902Y-87815579D01*
X120140843Y-88097769D01*
X119445659Y-88520062D01*
X118896346Y-89079905D01*
X118732177Y-89319610D01*
X118425200Y-89815804D01*
X118394833Y-92338702D01*
X118364467Y-94861600D01*
X119436233Y-94861600D01*
X120508000Y-94861600D01*
X120508000Y-92840124D01*
X120508000Y-90818649D01*
X120867135Y-90503324D01*
X121099850Y-90315960D01*
X121277426Y-90202999D01*
X121324335Y-90188000D01*
X121356674Y-90286869D01*
X121383318Y-90572682D01*
X121403588Y-91029244D01*
X121416803Y-91640358D01*
X121422285Y-92389831D01*
X121422400Y-92524800D01*
X121422400Y-94861600D01*
X122438400Y-94861600D01*
X123454400Y-94861600D01*
X123454400Y-92524800D01*
X123456909Y-91860160D01*
X123463946Y-91269037D01*
X123474777Y-90779793D01*
X123488667Y-90420790D01*
X123504881Y-90220390D01*
X123514923Y-90188000D01*
X123705348Y-90256899D01*
X123946543Y-90423449D01*
X124161346Y-90627428D01*
X124258542Y-90768372D01*
X124298891Y-90962256D01*
X124331224Y-91334634D01*
X124354289Y-91860911D01*
X124366835Y-92516492D01*
X124368800Y-92935980D01*
X124368800Y-94861600D01*
X125435600Y-94861600D01*
X126502400Y-94861600D01*
X126502400Y-94861600D01*
X126502400Y-94861600D01*
G37*
X126502400Y-94861600D02*
X126495323Y-92601000D01*
X126488759Y-91767673D01*
X126473907Y-91111756D01*
X126449288Y-90607571D01*
X126413422Y-90229443D01*
X126364828Y-89951693D01*
X126336592Y-89846630D01*
X126073078Y-89310631D01*
X125706453Y-88874376D01*
X125021318Y-88331411D01*
X124213944Y-87946518D01*
X123293203Y-87722525D01*
X122267967Y-87662264D01*
X121948839Y-87676046D01*
X120976902Y-87815579D01*
X120140843Y-88097769D01*
X119445659Y-88520062D01*
X118896346Y-89079905D01*
X118732177Y-89319610D01*
X118425200Y-89815804D01*
X118394833Y-92338702D01*
X118364467Y-94861600D01*
X119436233Y-94861600D01*
X120508000Y-94861600D01*
X120508000Y-92840124D01*
X120508000Y-90818649D01*
X120867135Y-90503324D01*
X121099850Y-90315960D01*
X121277426Y-90202999D01*
X121324335Y-90188000D01*
X121356674Y-90286869D01*
X121383318Y-90572682D01*
X121403588Y-91029244D01*
X121416803Y-91640358D01*
X121422285Y-92389831D01*
X121422400Y-92524800D01*
X121422400Y-94861600D01*
X122438400Y-94861600D01*
X123454400Y-94861600D01*
X123454400Y-92524800D01*
X123456909Y-91860160D01*
X123463946Y-91269037D01*
X123474777Y-90779793D01*
X123488667Y-90420790D01*
X123504881Y-90220390D01*
X123514923Y-90188000D01*
X123705348Y-90256899D01*
X123946543Y-90423449D01*
X124161346Y-90627428D01*
X124258542Y-90768372D01*
X124298891Y-90962256D01*
X124331224Y-91334634D01*
X124354289Y-91860911D01*
X124366835Y-92516492D01*
X124368800Y-92935980D01*
X124368800Y-94861600D01*
X125435600Y-94861600D01*
X126502400Y-94861600D01*
X126502400Y-94861600D01*
G36*
X123454400Y-102989600D02*
X123454400Y-100599390D01*
X123454400Y-98209181D01*
X123753032Y-98363610D01*
X123953980Y-98476869D01*
X124105739Y-98600127D01*
X124215192Y-98762059D01*
X124289220Y-98991342D01*
X124334704Y-99316652D01*
X124358529Y-99766665D01*
X124367574Y-100370057D01*
X124368800Y-100929406D01*
X124368800Y-102888000D01*
X125435600Y-102888000D01*
X126502400Y-102888000D01*
X126497940Y-100627400D01*
X126492045Y-99784208D01*
X126477312Y-99123036D01*
X126452594Y-98622850D01*
X126416748Y-98262616D01*
X126368628Y-98021300D01*
X126353535Y-97974230D01*
X126012137Y-97312987D01*
X125501337Y-96747988D01*
X124837716Y-96293624D01*
X124037857Y-95964287D01*
X124037541Y-95964192D01*
X123444660Y-95841133D01*
X122740885Y-95783371D01*
X121994335Y-95788996D01*
X121273131Y-95856098D01*
X120645392Y-95982765D01*
X120391455Y-96066430D01*
X119773353Y-96390101D01*
X119219866Y-96834358D01*
X118785193Y-97350841D01*
X118614744Y-97651728D01*
X118538554Y-97824087D01*
X118480574Y-97991228D01*
X118438307Y-98183106D01*
X118409261Y-98429674D01*
X118390939Y-98760886D01*
X118380847Y-99206697D01*
X118376492Y-99797060D01*
X118375392Y-100525800D01*
X118374400Y-102888000D01*
X119441200Y-102888000D01*
X120508000Y-102888000D01*
X120508000Y-100950920D01*
X120513522Y-100270801D01*
X120529164Y-99688014D01*
X120553537Y-99230779D01*
X120585252Y-98927317D01*
X120612997Y-98817652D01*
X120766578Y-98650505D01*
X121024008Y-98469296D01*
X121120997Y-98415866D01*
X121524000Y-98210270D01*
X121524000Y-100599935D01*
X121524000Y-102989600D01*
X122489200Y-102989600D01*
X123454400Y-102989600D01*
X123454400Y-102989600D01*
X123454400Y-102989600D01*
G37*
X123454400Y-102989600D02*
X123454400Y-100599390D01*
X123454400Y-98209181D01*
X123753032Y-98363610D01*
X123953980Y-98476869D01*
X124105739Y-98600127D01*
X124215192Y-98762059D01*
X124289220Y-98991342D01*
X124334704Y-99316652D01*
X124358529Y-99766665D01*
X124367574Y-100370057D01*
X124368800Y-100929406D01*
X124368800Y-102888000D01*
X125435600Y-102888000D01*
X126502400Y-102888000D01*
X126497940Y-100627400D01*
X126492045Y-99784208D01*
X126477312Y-99123036D01*
X126452594Y-98622850D01*
X126416748Y-98262616D01*
X126368628Y-98021300D01*
X126353535Y-97974230D01*
X126012137Y-97312987D01*
X125501337Y-96747988D01*
X124837716Y-96293624D01*
X124037857Y-95964287D01*
X124037541Y-95964192D01*
X123444660Y-95841133D01*
X122740885Y-95783371D01*
X121994335Y-95788996D01*
X121273131Y-95856098D01*
X120645392Y-95982765D01*
X120391455Y-96066430D01*
X119773353Y-96390101D01*
X119219866Y-96834358D01*
X118785193Y-97350841D01*
X118614744Y-97651728D01*
X118538554Y-97824087D01*
X118480574Y-97991228D01*
X118438307Y-98183106D01*
X118409261Y-98429674D01*
X118390939Y-98760886D01*
X118380847Y-99206697D01*
X118376492Y-99797060D01*
X118375392Y-100525800D01*
X118374400Y-102888000D01*
X119441200Y-102888000D01*
X120508000Y-102888000D01*
X120508000Y-100950920D01*
X120513522Y-100270801D01*
X120529164Y-99688014D01*
X120553537Y-99230779D01*
X120585252Y-98927317D01*
X120612997Y-98817652D01*
X120766578Y-98650505D01*
X121024008Y-98469296D01*
X121120997Y-98415866D01*
X121524000Y-98210270D01*
X121524000Y-100599935D01*
X121524000Y-102989600D01*
X122489200Y-102989600D01*
X123454400Y-102989600D01*
X123454400Y-102989600D01*
G36*
X116647200Y-102989600D02*
X116647200Y-91371424D01*
X116647200Y-79753249D01*
X116875800Y-79416862D01*
X117230610Y-79057837D01*
X117721021Y-78790339D01*
X118145800Y-78670163D01*
X118476000Y-78610680D01*
X118476000Y-80233740D01*
X118476000Y-81856800D01*
X119644400Y-81856800D01*
X120812800Y-81856800D01*
X120812800Y-80231200D01*
X120812800Y-78605600D01*
X123606800Y-78605600D01*
X126400800Y-78605600D01*
X126400800Y-77183200D01*
X126400800Y-75760800D01*
X123225800Y-75761668D01*
X121777521Y-75770202D01*
X120524878Y-75795202D01*
X119460946Y-75837042D01*
X118578800Y-75896093D01*
X117871514Y-75972729D01*
X117332163Y-76067320D01*
X117270557Y-76081799D01*
X116327004Y-76398308D01*
X115521641Y-76850757D01*
X114863959Y-77432140D01*
X114363446Y-78135450D01*
X114284993Y-78286154D01*
X113954800Y-78956815D01*
X113927377Y-90973207D01*
X113899955Y-102989600D01*
X115273577Y-102989600D01*
X116647200Y-102989600D01*
X116647200Y-102989600D01*
X116647200Y-102989600D01*
G37*
X116647200Y-102989600D02*
X116647200Y-91371424D01*
X116647200Y-79753249D01*
X116875800Y-79416862D01*
X117230610Y-79057837D01*
X117721021Y-78790339D01*
X118145800Y-78670163D01*
X118476000Y-78610680D01*
X118476000Y-80233740D01*
X118476000Y-81856800D01*
X119644400Y-81856800D01*
X120812800Y-81856800D01*
X120812800Y-80231200D01*
X120812800Y-78605600D01*
X123606800Y-78605600D01*
X126400800Y-78605600D01*
X126400800Y-77183200D01*
X126400800Y-75760800D01*
X123225800Y-75761668D01*
X121777521Y-75770202D01*
X120524878Y-75795202D01*
X119460946Y-75837042D01*
X118578800Y-75896093D01*
X117871514Y-75972729D01*
X117332163Y-76067320D01*
X117270557Y-76081799D01*
X116327004Y-76398308D01*
X115521641Y-76850757D01*
X114863959Y-77432140D01*
X114363446Y-78135450D01*
X114284993Y-78286154D01*
X113954800Y-78956815D01*
X113927377Y-90973207D01*
X113899955Y-102989600D01*
X115273577Y-102989600D01*
X116647200Y-102989600D01*
X116647200Y-102989600D01*
G36*
X119929248Y-114633499D02*
X120746426Y-114631811D01*
X121523342Y-114588026D01*
X122200111Y-114501562D01*
X122501445Y-114437279D01*
X123469764Y-114110372D01*
X124335299Y-113660513D01*
X125076236Y-113105100D01*
X125670762Y-112461534D01*
X126097063Y-111747214D01*
X126201762Y-111485772D01*
X126255465Y-111319608D01*
X126298599Y-111143323D01*
X126332309Y-110933488D01*
X126357739Y-110666673D01*
X126376035Y-110319450D01*
X126388341Y-109868390D01*
X126395801Y-109290063D01*
X126399561Y-108561040D01*
X126400764Y-107657893D01*
X126400800Y-107411738D01*
X126400800Y-103904000D01*
X125029200Y-103904000D01*
X123657600Y-103904000D01*
X123655928Y-106875800D01*
X123654958Y-107732103D01*
X123651990Y-108409973D01*
X123645326Y-108934178D01*
X123633271Y-109329484D01*
X123614126Y-109620659D01*
X123586196Y-109832470D01*
X123547783Y-109989683D01*
X123497191Y-110117066D01*
X123432722Y-110239385D01*
X123424482Y-110254000D01*
X123066264Y-110692158D01*
X122554022Y-111049497D01*
X121921721Y-111322341D01*
X121203324Y-111507013D01*
X120432795Y-111599838D01*
X119644097Y-111597138D01*
X118871196Y-111495239D01*
X118148054Y-111290462D01*
X117508634Y-110979134D01*
X117397549Y-110906351D01*
X117196282Y-110762212D01*
X117034647Y-110620555D01*
X116908303Y-110458259D01*
X116812905Y-110252200D01*
X116744111Y-109979255D01*
X116697579Y-109616301D01*
X116668965Y-109140217D01*
X116653926Y-108527879D01*
X116648120Y-107756165D01*
X116647199Y-106911245D01*
X116647200Y-103904000D01*
X115275600Y-103904000D01*
X113904000Y-103904000D01*
X113904000Y-107296897D01*
X113904843Y-108231029D01*
X113908190Y-108986485D01*
X113915267Y-109587787D01*
X113927302Y-110059455D01*
X113945520Y-110426011D01*
X113971147Y-110711975D01*
X114005411Y-110941868D01*
X114049537Y-111140211D01*
X114104752Y-111331525D01*
X114105993Y-111335497D01*
X114444646Y-112083225D01*
X114964658Y-112762723D01*
X115652355Y-113362784D01*
X116494062Y-113872198D01*
X117476103Y-114279757D01*
X117834973Y-114391818D01*
X118413638Y-114512919D01*
X119131691Y-114593674D01*
X119929248Y-114633499D01*
X119929248Y-114633499D01*
X119929248Y-114633499D01*
G37*
X119929248Y-114633499D02*
X120746426Y-114631811D01*
X121523342Y-114588026D01*
X122200111Y-114501562D01*
X122501445Y-114437279D01*
X123469764Y-114110372D01*
X124335299Y-113660513D01*
X125076236Y-113105100D01*
X125670762Y-112461534D01*
X126097063Y-111747214D01*
X126201762Y-111485772D01*
X126255465Y-111319608D01*
X126298599Y-111143323D01*
X126332309Y-110933488D01*
X126357739Y-110666673D01*
X126376035Y-110319450D01*
X126388341Y-109868390D01*
X126395801Y-109290063D01*
X126399561Y-108561040D01*
X126400764Y-107657893D01*
X126400800Y-107411738D01*
X126400800Y-103904000D01*
X125029200Y-103904000D01*
X123657600Y-103904000D01*
X123655928Y-106875800D01*
X123654958Y-107732103D01*
X123651990Y-108409973D01*
X123645326Y-108934178D01*
X123633271Y-109329484D01*
X123614126Y-109620659D01*
X123586196Y-109832470D01*
X123547783Y-109989683D01*
X123497191Y-110117066D01*
X123432722Y-110239385D01*
X123424482Y-110254000D01*
X123066264Y-110692158D01*
X122554022Y-111049497D01*
X121921721Y-111322341D01*
X121203324Y-111507013D01*
X120432795Y-111599838D01*
X119644097Y-111597138D01*
X118871196Y-111495239D01*
X118148054Y-111290462D01*
X117508634Y-110979134D01*
X117397549Y-110906351D01*
X117196282Y-110762212D01*
X117034647Y-110620555D01*
X116908303Y-110458259D01*
X116812905Y-110252200D01*
X116744111Y-109979255D01*
X116697579Y-109616301D01*
X116668965Y-109140217D01*
X116653926Y-108527879D01*
X116648120Y-107756165D01*
X116647199Y-106911245D01*
X116647200Y-103904000D01*
X115275600Y-103904000D01*
X113904000Y-103904000D01*
X113904000Y-107296897D01*
X113904843Y-108231029D01*
X113908190Y-108986485D01*
X113915267Y-109587787D01*
X113927302Y-110059455D01*
X113945520Y-110426011D01*
X113971147Y-110711975D01*
X114005411Y-110941868D01*
X114049537Y-111140211D01*
X114104752Y-111331525D01*
X114105993Y-111335497D01*
X114444646Y-112083225D01*
X114964658Y-112762723D01*
X115652355Y-113362784D01*
X116494062Y-113872198D01*
X117476103Y-114279757D01*
X117834973Y-114391818D01*
X118413638Y-114512919D01*
X119131691Y-114593674D01*
X119929248Y-114633499D01*
X119929248Y-114633499D01*
G36*
X117714000Y-137381200D02*
X118247285Y-137377546D01*
X118631961Y-137360844D01*
X118922570Y-137322479D01*
X119173653Y-137253840D01*
X119439754Y-137146311D01*
X119566606Y-137088640D01*
X120116448Y-136762546D01*
X120631286Y-136327423D01*
X121053979Y-135838256D01*
X121297169Y-135423249D01*
X121358023Y-135242798D01*
X121406462Y-134990385D01*
X121444889Y-134638669D01*
X121475707Y-134160312D01*
X121501321Y-133527974D01*
X121519686Y-132892673D01*
X121539502Y-132171436D01*
X121559183Y-131624306D01*
X121581936Y-131222216D01*
X121610966Y-130936102D01*
X121649479Y-130736897D01*
X121700681Y-130595536D01*
X121767777Y-130482953D01*
X121788620Y-130454273D01*
X121974300Y-130227043D01*
X122168065Y-130054871D01*
X122401198Y-129929515D01*
X122704981Y-129842736D01*
X123110696Y-129786291D01*
X123649625Y-129751941D01*
X124353051Y-129731445D01*
X124546600Y-129727730D01*
X126400800Y-129694261D01*
X126400800Y-128324670D01*
X126400800Y-126955080D01*
X123683000Y-126986540D01*
X120965200Y-127018000D01*
X120383616Y-127303592D01*
X120000093Y-127532564D01*
X119634653Y-127816503D01*
X119449330Y-128001237D01*
X119242848Y-128261017D01*
X119083308Y-128518825D01*
X118964802Y-128805209D01*
X118881426Y-129150719D01*
X118827271Y-129585903D01*
X118796433Y-130141310D01*
X118783004Y-130847488D01*
X118780800Y-131458962D01*
X118775057Y-132326595D01*
X118752722Y-133012252D01*
X118706129Y-133536961D01*
X118627614Y-133921750D01*
X118509513Y-134187646D01*
X118344163Y-134355679D01*
X118123898Y-134446874D01*
X117841056Y-134482262D01*
X117677674Y-134485600D01*
X117258588Y-134410293D01*
X116959795Y-134222568D01*
X116647200Y-133959536D01*
X116647199Y-126246968D01*
X116647291Y-124812706D01*
X116647805Y-123567813D01*
X116649106Y-122498459D01*
X116651553Y-121590813D01*
X116655511Y-120831044D01*
X116661339Y-120205323D01*
X116669401Y-119699817D01*
X116680058Y-119300697D01*
X116693672Y-118994132D01*
X116710606Y-118766291D01*
X116731220Y-118603344D01*
X116755878Y-118491459D01*
X116784940Y-118416807D01*
X116818769Y-118365557D01*
X116854457Y-118327142D01*
X117241526Y-118062810D01*
X117673814Y-117965230D01*
X118100160Y-118035311D01*
X118469404Y-118273960D01*
X118492795Y-118298069D01*
X118564552Y-118379932D01*
X118620713Y-118471301D01*
X118663765Y-118597330D01*
X118696197Y-118783175D01*
X118720497Y-119053990D01*
X118739155Y-119434930D01*
X118754659Y-119951149D01*
X118769496Y-120627802D01*
X118780800Y-121209376D01*
X118797125Y-122018788D01*
X118813081Y-122651878D01*
X118831093Y-123135504D01*
X118853585Y-123496526D01*
X118882982Y-123761801D01*
X118921710Y-123958188D01*
X118972193Y-124112547D01*
X119036856Y-124251734D01*
X119059347Y-124294481D01*
X119515471Y-124938026D01*
X120119453Y-125455709D01*
X120852277Y-125837612D01*
X121694925Y-126073815D01*
X122625254Y-126154400D01*
X123516971Y-126072280D01*
X124333148Y-125834978D01*
X125049462Y-125456074D01*
X125641588Y-124949153D01*
X126085203Y-124327796D01*
X126158424Y-124181455D01*
X126218608Y-124048957D01*
X126267806Y-123921148D01*
X126307132Y-123777036D01*
X126337698Y-123595628D01*
X126360617Y-123355931D01*
X126377001Y-123036955D01*
X126387963Y-122617707D01*
X126394614Y-122077193D01*
X126398068Y-121394423D01*
X126399437Y-120548403D01*
X126399807Y-119626600D01*
X126400800Y-115588000D01*
X125029200Y-115588000D01*
X123657600Y-115588000D01*
X123657600Y-119136625D01*
X123657600Y-122685251D01*
X123393292Y-122893155D01*
X122990530Y-123105380D01*
X122545517Y-123174720D01*
X122118262Y-123103554D01*
X121768772Y-122894264D01*
X121705168Y-122826201D01*
X121660275Y-122710470D01*
X121622503Y-122469901D01*
X121590797Y-122088396D01*
X121564097Y-121549857D01*
X121541347Y-120838184D01*
X121524000Y-120068532D01*
X121508064Y-119274825D01*
X121493056Y-118655929D01*
X121475994Y-118183494D01*
X121453897Y-117829169D01*
X121423783Y-117564604D01*
X121382669Y-117361447D01*
X121327574Y-117191348D01*
X121255517Y-117025957D01*
X121189727Y-116890349D01*
X120973481Y-116519017D01*
X120717120Y-116174678D01*
X120550976Y-116001160D01*
X119861490Y-115526064D01*
X119068475Y-115201589D01*
X118209804Y-115032425D01*
X117323348Y-115023259D01*
X116446978Y-115178780D01*
X115803471Y-115413433D01*
X115122916Y-115810088D01*
X114592499Y-116319421D01*
X114254154Y-116825604D01*
X113954800Y-117366000D01*
X113954800Y-126205200D01*
X113954865Y-127747488D01*
X113955267Y-129099809D01*
X113956309Y-130275399D01*
X113958299Y-131287490D01*
X113961541Y-132149316D01*
X113966343Y-132874111D01*
X113973008Y-133475108D01*
X113981845Y-133965542D01*
X113993157Y-134358647D01*
X114007251Y-134667656D01*
X114024433Y-134905802D01*
X114045009Y-135086320D01*
X114069284Y-135222444D01*
X114097564Y-135327407D01*
X114130156Y-135414443D01*
X114167364Y-135496786D01*
X114169624Y-135501600D01*
X114564516Y-136110710D01*
X115130916Y-136640924D01*
X115834400Y-137064907D01*
X116128846Y-137200168D01*
X116376426Y-137290169D01*
X116631651Y-137344082D01*
X116949036Y-137371082D01*
X117383095Y-137380342D01*
X117714000Y-137381200D01*
X117714000Y-137381200D01*
X117714000Y-137381200D01*
G37*
X117714000Y-137381200D02*
X118247285Y-137377546D01*
X118631961Y-137360844D01*
X118922570Y-137322479D01*
X119173653Y-137253840D01*
X119439754Y-137146311D01*
X119566606Y-137088640D01*
X120116448Y-136762546D01*
X120631286Y-136327423D01*
X121053979Y-135838256D01*
X121297169Y-135423249D01*
X121358023Y-135242798D01*
X121406462Y-134990385D01*
X121444889Y-134638669D01*
X121475707Y-134160312D01*
X121501321Y-133527974D01*
X121519686Y-132892673D01*
X121539502Y-132171436D01*
X121559183Y-131624306D01*
X121581936Y-131222216D01*
X121610966Y-130936102D01*
X121649479Y-130736897D01*
X121700681Y-130595536D01*
X121767777Y-130482953D01*
X121788620Y-130454273D01*
X121974300Y-130227043D01*
X122168065Y-130054871D01*
X122401198Y-129929515D01*
X122704981Y-129842736D01*
X123110696Y-129786291D01*
X123649625Y-129751941D01*
X124353051Y-129731445D01*
X124546600Y-129727730D01*
X126400800Y-129694261D01*
X126400800Y-128324670D01*
X126400800Y-126955080D01*
X123683000Y-126986540D01*
X120965200Y-127018000D01*
X120383616Y-127303592D01*
X120000093Y-127532564D01*
X119634653Y-127816503D01*
X119449330Y-128001237D01*
X119242848Y-128261017D01*
X119083308Y-128518825D01*
X118964802Y-128805209D01*
X118881426Y-129150719D01*
X118827271Y-129585903D01*
X118796433Y-130141310D01*
X118783004Y-130847488D01*
X118780800Y-131458962D01*
X118775057Y-132326595D01*
X118752722Y-133012252D01*
X118706129Y-133536961D01*
X118627614Y-133921750D01*
X118509513Y-134187646D01*
X118344163Y-134355679D01*
X118123898Y-134446874D01*
X117841056Y-134482262D01*
X117677674Y-134485600D01*
X117258588Y-134410293D01*
X116959795Y-134222568D01*
X116647200Y-133959536D01*
X116647199Y-126246968D01*
X116647291Y-124812706D01*
X116647805Y-123567813D01*
X116649106Y-122498459D01*
X116651553Y-121590813D01*
X116655511Y-120831044D01*
X116661339Y-120205323D01*
X116669401Y-119699817D01*
X116680058Y-119300697D01*
X116693672Y-118994132D01*
X116710606Y-118766291D01*
X116731220Y-118603344D01*
X116755878Y-118491459D01*
X116784940Y-118416807D01*
X116818769Y-118365557D01*
X116854457Y-118327142D01*
X117241526Y-118062810D01*
X117673814Y-117965230D01*
X118100160Y-118035311D01*
X118469404Y-118273960D01*
X118492795Y-118298069D01*
X118564552Y-118379932D01*
X118620713Y-118471301D01*
X118663765Y-118597330D01*
X118696197Y-118783175D01*
X118720497Y-119053990D01*
X118739155Y-119434930D01*
X118754659Y-119951149D01*
X118769496Y-120627802D01*
X118780800Y-121209376D01*
X118797125Y-122018788D01*
X118813081Y-122651878D01*
X118831093Y-123135504D01*
X118853585Y-123496526D01*
X118882982Y-123761801D01*
X118921710Y-123958188D01*
X118972193Y-124112547D01*
X119036856Y-124251734D01*
X119059347Y-124294481D01*
X119515471Y-124938026D01*
X120119453Y-125455709D01*
X120852277Y-125837612D01*
X121694925Y-126073815D01*
X122625254Y-126154400D01*
X123516971Y-126072280D01*
X124333148Y-125834978D01*
X125049462Y-125456074D01*
X125641588Y-124949153D01*
X126085203Y-124327796D01*
X126158424Y-124181455D01*
X126218608Y-124048957D01*
X126267806Y-123921148D01*
X126307132Y-123777036D01*
X126337698Y-123595628D01*
X126360617Y-123355931D01*
X126377001Y-123036955D01*
X126387963Y-122617707D01*
X126394614Y-122077193D01*
X126398068Y-121394423D01*
X126399437Y-120548403D01*
X126399807Y-119626600D01*
X126400800Y-115588000D01*
X125029200Y-115588000D01*
X123657600Y-115588000D01*
X123657600Y-119136625D01*
X123657600Y-122685251D01*
X123393292Y-122893155D01*
X122990530Y-123105380D01*
X122545517Y-123174720D01*
X122118262Y-123103554D01*
X121768772Y-122894264D01*
X121705168Y-122826201D01*
X121660275Y-122710470D01*
X121622503Y-122469901D01*
X121590797Y-122088396D01*
X121564097Y-121549857D01*
X121541347Y-120838184D01*
X121524000Y-120068532D01*
X121508064Y-119274825D01*
X121493056Y-118655929D01*
X121475994Y-118183494D01*
X121453897Y-117829169D01*
X121423783Y-117564604D01*
X121382669Y-117361447D01*
X121327574Y-117191348D01*
X121255517Y-117025957D01*
X121189727Y-116890349D01*
X120973481Y-116519017D01*
X120717120Y-116174678D01*
X120550976Y-116001160D01*
X119861490Y-115526064D01*
X119068475Y-115201589D01*
X118209804Y-115032425D01*
X117323348Y-115023259D01*
X116446978Y-115178780D01*
X115803471Y-115413433D01*
X115122916Y-115810088D01*
X114592499Y-116319421D01*
X114254154Y-116825604D01*
X113954800Y-117366000D01*
X113954800Y-126205200D01*
X113954865Y-127747488D01*
X113955267Y-129099809D01*
X113956309Y-130275399D01*
X113958299Y-131287490D01*
X113961541Y-132149316D01*
X113966343Y-132874111D01*
X113973008Y-133475108D01*
X113981845Y-133965542D01*
X113993157Y-134358647D01*
X114007251Y-134667656D01*
X114024433Y-134905802D01*
X114045009Y-135086320D01*
X114069284Y-135222444D01*
X114097564Y-135327407D01*
X114130156Y-135414443D01*
X114167364Y-135496786D01*
X114169624Y-135501600D01*
X114564516Y-136110710D01*
X115130916Y-136640924D01*
X115834400Y-137064907D01*
X116128846Y-137200168D01*
X116376426Y-137290169D01*
X116631651Y-137344082D01*
X116949036Y-137371082D01*
X117383095Y-137380342D01*
X117714000Y-137381200D01*
X117714000Y-137381200D01*
G36*
X120272075Y-110097708D02*
X121087036Y-110013660D01*
X121518059Y-109908085D01*
X121934394Y-109749031D01*
X122317637Y-109551106D01*
X122623698Y-109342698D01*
X122808489Y-109152199D01*
X122842813Y-109055029D01*
X122776113Y-108926068D01*
X122602140Y-108699501D01*
X122356921Y-108421787D01*
X122327593Y-108390587D01*
X122059432Y-108114799D01*
X121887057Y-107968770D01*
X121771143Y-107930486D01*
X121672364Y-107977932D01*
X121640061Y-108005712D01*
X121232639Y-108258302D01*
X120702429Y-108423926D01*
X120113237Y-108496080D01*
X119528866Y-108468261D01*
X119013121Y-108333964D01*
X118905296Y-108284481D01*
X118646829Y-108130623D01*
X118477449Y-107988797D01*
X118449329Y-107945316D01*
X118363032Y-107947519D01*
X118177923Y-108058823D01*
X117936905Y-108242703D01*
X117682882Y-108462636D01*
X117458759Y-108682096D01*
X117307438Y-108864558D01*
X117267759Y-108951203D01*
X117343071Y-109117253D01*
X117564417Y-109325245D01*
X117887772Y-109545231D01*
X118269114Y-109747260D01*
X118664418Y-109901384D01*
X118664502Y-109901409D01*
X119435013Y-110060222D01*
X120272075Y-110097708D01*
X120272075Y-110097708D01*
X120272075Y-110097708D01*
G37*
X120272075Y-110097708D02*
X121087036Y-110013660D01*
X121518059Y-109908085D01*
X121934394Y-109749031D01*
X122317637Y-109551106D01*
X122623698Y-109342698D01*
X122808489Y-109152199D01*
X122842813Y-109055029D01*
X122776113Y-108926068D01*
X122602140Y-108699501D01*
X122356921Y-108421787D01*
X122327593Y-108390587D01*
X122059432Y-108114799D01*
X121887057Y-107968770D01*
X121771143Y-107930486D01*
X121672364Y-107977932D01*
X121640061Y-108005712D01*
X121232639Y-108258302D01*
X120702429Y-108423926D01*
X120113237Y-108496080D01*
X119528866Y-108468261D01*
X119013121Y-108333964D01*
X118905296Y-108284481D01*
X118646829Y-108130623D01*
X118477449Y-107988797D01*
X118449329Y-107945316D01*
X118363032Y-107947519D01*
X118177923Y-108058823D01*
X117936905Y-108242703D01*
X117682882Y-108462636D01*
X117458759Y-108682096D01*
X117307438Y-108864558D01*
X117267759Y-108951203D01*
X117343071Y-109117253D01*
X117564417Y-109325245D01*
X117887772Y-109545231D01*
X118269114Y-109747260D01*
X118664418Y-109901384D01*
X118664502Y-109901409D01*
X119435013Y-110060222D01*
X120272075Y-110097708D01*
X120272075Y-110097708D01*
G36*
X120101600Y-107155200D02*
X120766236Y-107151919D01*
X121357356Y-107142718D01*
X121846599Y-107128557D01*
X122205603Y-107110395D01*
X122406006Y-107089195D01*
X122438400Y-107076064D01*
X122370700Y-106974169D01*
X122189323Y-106767405D01*
X121926848Y-106491966D01*
X121778000Y-106342400D01*
X121117600Y-105687870D01*
X121117600Y-104795935D01*
X121117600Y-103904000D01*
X120152400Y-103904000D01*
X119187200Y-103904000D01*
X119187200Y-104811955D01*
X119187200Y-105719910D01*
X118476000Y-106356664D01*
X118167083Y-106641323D01*
X117925922Y-106878923D01*
X117786206Y-107035471D01*
X117764800Y-107074308D01*
X117861670Y-107097315D01*
X118133372Y-107117778D01*
X118551546Y-107134714D01*
X119087829Y-107147141D01*
X119713860Y-107154078D01*
X120101600Y-107155200D01*
X120101600Y-107155200D01*
X120101600Y-107155200D01*
G37*
X120101600Y-107155200D02*
X120766236Y-107151919D01*
X121357356Y-107142718D01*
X121846599Y-107128557D01*
X122205603Y-107110395D01*
X122406006Y-107089195D01*
X122438400Y-107076064D01*
X122370700Y-106974169D01*
X122189323Y-106767405D01*
X121926848Y-106491966D01*
X121778000Y-106342400D01*
X121117600Y-105687870D01*
X121117600Y-104795935D01*
X121117600Y-103904000D01*
X120152400Y-103904000D01*
X119187200Y-103904000D01*
X119187200Y-104811955D01*
X119187200Y-105719910D01*
X118476000Y-106356664D01*
X118167083Y-106641323D01*
X117925922Y-106878923D01*
X117786206Y-107035471D01*
X117764800Y-107074308D01*
X117861670Y-107097315D01*
X118133372Y-107117778D01*
X118551546Y-107134714D01*
X119087829Y-107147141D01*
X119713860Y-107154078D01*
X120101600Y-107155200D01*
X120101600Y-107155200D01*
G36*
X121482109Y-145864800D02*
X121497933Y-145769681D01*
X121510592Y-145510233D01*
X121518858Y-145125316D01*
X121521503Y-144653791D01*
X121521449Y-144620200D01*
X121518898Y-143375600D01*
X120242226Y-142530871D01*
X118965554Y-141686143D01*
X120244777Y-140816068D01*
X121524000Y-139945994D01*
X121524000Y-138728926D01*
X121519965Y-138203733D01*
X121505635Y-137853614D01*
X121477672Y-137650561D01*
X121432738Y-137566568D01*
X121385294Y-137565086D01*
X121256495Y-137635804D01*
X120988933Y-137797369D01*
X120614365Y-138030115D01*
X120164545Y-138314375D01*
X119828508Y-138529231D01*
X119326599Y-138849147D01*
X118859898Y-139142056D01*
X118465815Y-139384818D01*
X118181760Y-139554292D01*
X118077942Y-139612086D01*
X117745456Y-139784021D01*
X116046604Y-138713588D01*
X115514002Y-138380066D01*
X115032081Y-138082166D01*
X114630206Y-137837731D01*
X114337742Y-137664601D01*
X114184055Y-137580617D01*
X114176676Y-137577508D01*
X114104107Y-137567312D01*
X114055404Y-137623558D01*
X114025907Y-137777426D01*
X114010958Y-138060096D01*
X114005899Y-138502751D01*
X114005599Y-138722471D01*
X114005599Y-139933083D01*
X115285953Y-140808860D01*
X116566306Y-141684637D01*
X115288503Y-142530118D01*
X114010701Y-143375600D01*
X114008150Y-144620200D01*
X114010657Y-145096118D01*
X114019352Y-145488023D01*
X114032892Y-145757054D01*
X114049934Y-145864349D01*
X114051163Y-145864800D01*
X114147341Y-145813949D01*
X114390333Y-145671798D01*
X114754146Y-145453950D01*
X115212788Y-145176005D01*
X115740264Y-144853565D01*
X115924581Y-144740317D01*
X116557892Y-144354315D01*
X117042537Y-144068505D01*
X117399981Y-143871963D01*
X117651686Y-143753768D01*
X117819117Y-143702995D01*
X117923737Y-143708723D01*
X117938533Y-143715429D01*
X118080867Y-143798578D01*
X118365402Y-143970260D01*
X118761665Y-144211894D01*
X119239185Y-144504894D01*
X119767488Y-144830679D01*
X119782424Y-144839912D01*
X120299397Y-145158231D01*
X120754941Y-145436276D01*
X121121807Y-145657619D01*
X121372746Y-145805827D01*
X121480508Y-145864469D01*
X121482109Y-145864800D01*
X121482109Y-145864800D01*
X121482109Y-145864800D01*
G37*
X121482109Y-145864800D02*
X121497933Y-145769681D01*
X121510592Y-145510233D01*
X121518858Y-145125316D01*
X121521503Y-144653791D01*
X121521449Y-144620200D01*
X121518898Y-143375600D01*
X120242226Y-142530871D01*
X118965554Y-141686143D01*
X120244777Y-140816068D01*
X121524000Y-139945994D01*
X121524000Y-138728926D01*
X121519965Y-138203733D01*
X121505635Y-137853614D01*
X121477672Y-137650561D01*
X121432738Y-137566568D01*
X121385294Y-137565086D01*
X121256495Y-137635804D01*
X120988933Y-137797369D01*
X120614365Y-138030115D01*
X120164545Y-138314375D01*
X119828508Y-138529231D01*
X119326599Y-138849147D01*
X118859898Y-139142056D01*
X118465815Y-139384818D01*
X118181760Y-139554292D01*
X118077942Y-139612086D01*
X117745456Y-139784021D01*
X116046604Y-138713588D01*
X115514002Y-138380066D01*
X115032081Y-138082166D01*
X114630206Y-137837731D01*
X114337742Y-137664601D01*
X114184055Y-137580617D01*
X114176676Y-137577508D01*
X114104107Y-137567312D01*
X114055404Y-137623558D01*
X114025907Y-137777426D01*
X114010958Y-138060096D01*
X114005899Y-138502751D01*
X114005599Y-138722471D01*
X114005599Y-139933083D01*
X115285953Y-140808860D01*
X116566306Y-141684637D01*
X115288503Y-142530118D01*
X114010701Y-143375600D01*
X114008150Y-144620200D01*
X114010657Y-145096118D01*
X114019352Y-145488023D01*
X114032892Y-145757054D01*
X114049934Y-145864349D01*
X114051163Y-145864800D01*
X114147341Y-145813949D01*
X114390333Y-145671798D01*
X114754146Y-145453950D01*
X115212788Y-145176005D01*
X115740264Y-144853565D01*
X115924581Y-144740317D01*
X116557892Y-144354315D01*
X117042537Y-144068505D01*
X117399981Y-143871963D01*
X117651686Y-143753768D01*
X117819117Y-143702995D01*
X117923737Y-143708723D01*
X117938533Y-143715429D01*
X118080867Y-143798578D01*
X118365402Y-143970260D01*
X118761665Y-144211894D01*
X119239185Y-144504894D01*
X119767488Y-144830679D01*
X119782424Y-144839912D01*
X120299397Y-145158231D01*
X120754941Y-145436276D01*
X121121807Y-145657619D01*
X121372746Y-145805827D01*
X121480508Y-145864469D01*
X121482109Y-145864800D01*
X121482109Y-145864800D01*
%LPC*%
D13*
X113030000Y-74930000D03*
X114300000Y-74930000D03*
X114300000Y-76200000D03*
X113030000Y-76200000D03*
D14*
X105000000Y-75000000D03*
X145000000Y-75000000D03*
X145000000Y-145000000D03*
D13*
X119380000Y-113030000D03*
X117475000Y-118110000D03*
X121920000Y-113030000D03*
X117475000Y-115570000D03*
X121285000Y-120650000D03*
X121920000Y-121285000D03*
X116205000Y-128270000D03*
X116205000Y-129540000D03*
X106680000Y-86360000D03*
X105410000Y-86360000D03*
X114300000Y-82550000D03*
X114300000Y-83820000D03*
X114935000Y-90170000D03*
X114935000Y-91440000D03*
X114935000Y-92710000D03*
X127000000Y-128270000D03*
X125730000Y-128270000D03*
X124460000Y-128270000D03*
X123190000Y-128270000D03*
X108585000Y-127000000D03*
X108585000Y-129540000D03*
X108585000Y-132080000D03*
X131445000Y-130175000D03*
X130810000Y-130810000D03*
X123190000Y-125730000D03*
X124460000Y-125730000D03*
X125730000Y-125730000D03*
X127000000Y-125730000D03*
X128270000Y-125730000D03*
D14*
X105000000Y-145000000D03*
D15*
X104140000Y-138430000D03*
X106680000Y-138430000D03*
D16*
X104140000Y-121920000D03*
D17*
X114300000Y-121920000D03*
D18*
X147580000Y-87500000D03*
D19*
X142500000Y-92580000D03*
X142500000Y-82420000D03*
D20*
X142500000Y-87500000D03*
D18*
X147580000Y-132500000D03*
D19*
X142500000Y-137580000D03*
X142500000Y-127420000D03*
D20*
X142500000Y-132500000D03*
D21*
X134620000Y-93980000D03*
D22*
X134620000Y-96520000D03*
X134620000Y-99060000D03*
D21*
X134620000Y-125730000D03*
D22*
X134620000Y-123190000D03*
X134620000Y-120650000D03*
D23*
X106680000Y-91440000D03*
D24*
X109220000Y-91440000D03*
X111760000Y-91440000D03*
D23*
X118110000Y-91440000D03*
D24*
X120650000Y-91440000D03*
X123190000Y-91440000D03*
D23*
X118110000Y-99060000D03*
D24*
X120650000Y-99060000D03*
X123190000Y-99060000D03*
D23*
X106680000Y-83820000D03*
D24*
X109220000Y-83820000D03*
X111760000Y-83820000D03*
D23*
X106680000Y-99060000D03*
D24*
X109220000Y-99060000D03*
X111760000Y-99060000D03*
D15*
X114300000Y-118110000D03*
X111760000Y-118110000D03*
D25*
X118745000Y-106680000D03*
X118745000Y-116840000D03*
D26*
X130810000Y-143510000D03*
D27*
X130810000Y-146050000D03*
X128270000Y-143510000D03*
X128270000Y-146050000D03*
X125730000Y-143510000D03*
X125730000Y-146050000D03*
X123190000Y-143510000D03*
X123190000Y-146050000D03*
X120650000Y-143510000D03*
X120650000Y-146050000D03*
X118110000Y-143510000D03*
X118110000Y-146050000D03*
X115570000Y-143510000D03*
X115570000Y-146050000D03*
X113030000Y-143510000D03*
X113030000Y-146050000D03*
D28*
X128905000Y-82550000D03*
X133985000Y-82550000D03*
X128905000Y-90170000D03*
X133985000Y-90170000D03*
D29*
X104140000Y-125730000D03*
X104140000Y-128270000D03*
X104140000Y-130810000D03*
X104140000Y-133350000D03*
X111760000Y-133350000D03*
X111760000Y-130810000D03*
X111760000Y-128270000D03*
X111760000Y-125730000D03*
D30*
X142500000Y-99960000D03*
X142500000Y-102500000D03*
X142500000Y-105040000D03*
D31*
X146310000Y-106310000D03*
X146310000Y-98690000D03*
D30*
X142500000Y-114960000D03*
X142500000Y-117500000D03*
X142500000Y-120040000D03*
D31*
X146310000Y-121310000D03*
X146310000Y-113690000D03*
D32*
X138430000Y-96520000D03*
D33*
X138430000Y-93980000D03*
D32*
X138430000Y-123190000D03*
D33*
X138430000Y-125730000D03*
D15*
X105410000Y-114300000D03*
X107950000Y-114300000D03*
D25*
X123190000Y-111125000D03*
X133350000Y-111125000D03*
X123190000Y-114300000D03*
X133350000Y-114300000D03*
M02*
